<svg width="21" height="11" viewBox="0 0 21 11" fill="none" xmlns="http://www.w3.org/2000/svg">
<path d="M0.279481 6.13682C0.100529 5.96492 0 5.7318 0 5.48873C0 5.24567 0.100529 5.01255 0.279481 4.84065L5.05225 0.25732C5.23229 0.0903413 5.47341 -0.0020539 5.72369 3.46523e-05C5.97397 0.0021232 6.21339 0.0985283 6.39037 0.268486C6.56735 0.438443 6.66774 0.668354 6.66991 0.908701C6.67209 1.14905 6.57587 1.3806 6.40199 1.55349L3.25865 4.57207L20.0454 4.57207C20.2986 4.57207 20.5414 4.66865 20.7204 4.84055C20.8994 5.01246 21 5.24562 21 5.48873C21 5.73185 20.8994 5.96501 20.7204 6.13692C20.5414 6.30882 20.2986 6.4054 20.0454 6.4054L3.25865 6.4054L6.40199 9.42398C6.49316 9.50854 6.56589 9.60969 6.61591 9.72153C6.66594 9.83337 6.69227 9.95365 6.69337 10.0754C6.69448 10.1971 6.67032 10.3178 6.62233 10.4304C6.57433 10.5431 6.50345 10.6454 6.41383 10.7315C6.3242 10.8176 6.21762 10.8856 6.10031 10.9317C5.983 10.9778 5.85731 11.001 5.73056 11C5.60382 10.9989 5.47856 10.9736 5.3621 10.9256C5.24564 10.8775 5.14031 10.8077 5.05225 10.7202L0.279481 6.13682Z" fill="#FBBA6F"/>
</svg>
