<svg width="154" height="123" viewBox="0 0 154 123" fill="none" xmlns="http://www.w3.org/2000/svg">
<circle opacity="0.2" cx="61.4999" cy="60.8573" r="51.4286" fill="#100F46"/>
<g clip-path="url(#clip0_1399_3400)">
<rect x="23" y="22" width="75.5" height="60.2548" rx="3.62981" fill="white"/>
<circle cx="60.75" cy="40.149" r="9.4375" fill="#F7FAFA"/>
<path d="M60.7499 42.2532C61.1038 42.2532 61.3908 41.9663 61.3908 41.6123C61.3908 41.2583 61.1038 40.9713 60.7499 40.9713C60.3959 40.9713 60.1089 41.2583 60.1089 41.6123C60.1089 41.9663 60.3959 42.2532 60.7499 42.2532Z" fill="#F86A53"/>
<path d="M63.2196 39.1782V38.6866C63.2196 37.6249 62.964 36.2172 60.7502 36.2172C58.5363 36.2172 58.2807 37.6249 58.2807 38.6866V39.1782C57.1796 39.3158 56.8179 39.8742 56.8179 41.2466V41.978C56.8179 43.5902 57.3094 44.0817 58.9216 44.0817H62.5787C64.1909 44.0817 64.6825 43.5902 64.6825 41.978V41.2466C64.6825 39.8742 64.3207 39.3158 63.2196 39.1782ZM60.7502 42.7998C60.0935 42.7998 59.5626 42.265 59.5626 41.6123C59.5626 40.9556 60.0974 40.4247 60.7502 40.4247C61.4029 40.4247 61.9377 40.9595 61.9377 41.6123C61.9377 42.269 61.4069 42.7998 60.7502 42.7998ZM58.9216 39.1428C58.8902 39.1428 58.8627 39.1428 58.8312 39.1428V38.6866C58.8312 37.5345 59.1576 36.7677 60.7502 36.7677C62.3427 36.7677 62.6691 37.5345 62.6691 38.6866V39.1467C62.6377 39.1467 62.6101 39.1467 62.5787 39.1467H58.9216V39.1428Z" fill="#F86A53"/>
<g opacity="0.2">
<rect x="31.7114" y="58.298" width="58.0769" height="5.80769" rx="2.90385" fill="#100F46"/>
<rect x="37.9668" y="67.7356" width="45.6319" height="5.80769" rx="2.90385" fill="#100F46"/>
</g>
<rect x="23" y="88.2548" width="75.5" height="18.875" rx="3.62981" fill="white"/>
<circle cx="33.1637" cy="97.6923" r="5.8077" fill="#F9FBFB"/>
<path d="M34.3735 95.6355H31.9536C31.2276 95.6355 30.7437 95.9985 30.7437 96.8454V98.5393C30.7437 99.3863 31.2276 99.7493 31.9536 99.7493H34.3735C35.0994 99.7493 35.5834 99.3863 35.5834 98.5393V96.8454C35.5834 95.9985 35.0994 95.6355 34.3735 95.6355ZM34.4872 97.1092L33.7298 97.7142C33.5701 97.8424 33.3668 97.9053 33.1635 97.9053C32.9603 97.9053 32.7546 97.8424 32.5973 97.7142L31.8399 97.1092C31.7624 97.0463 31.7503 96.9301 31.8108 96.8527C31.8737 96.7753 31.9875 96.7607 32.0649 96.8237L32.8223 97.4286C33.0062 97.5762 33.3184 97.5762 33.5023 97.4286L34.2597 96.8237C34.3372 96.7607 34.4533 96.7728 34.5138 96.8527C34.5767 96.9301 34.5646 97.0463 34.4872 97.1092Z" fill="#F86A53"/>
<rect opacity="0.2" x="42.6011" y="94.7885" width="51.5433" height="5.80769" rx="2.90385" fill="#100F46"/>
</g>
<g filter="url(#filter0_d_1399_3400)">
<rect x="66" y="74" width="66" height="24" rx="4" fill="#100F46" shape-rendering="crispEdges"/>
<path d="M76.3896 90L74.8727 88.8663L76.4727 86.6417L74 85.7861L74.5818 83.9465L77.0545 84.8021V82H78.9455V84.8021L81.4182 83.9465L82 85.7861L79.5273 86.6417L81.1481 88.8663L79.6312 90L78.0104 87.7754L76.3896 90Z" fill="white"/>
<path d="M90.3896 90L88.8727 88.8663L90.4727 86.6417L88 85.7861L88.5818 83.9465L91.0545 84.8021V82H92.9455V84.8021L95.4182 83.9465L96 85.7861L93.5273 86.6417L95.1481 88.8663L93.6312 90L92.0104 87.7754L90.3896 90Z" fill="white"/>
<path d="M104.39 90L102.873 88.8663L104.473 86.6417L102 85.7861L102.582 83.9465L105.055 84.8021V82H106.945V84.8021L109.418 83.9465L110 85.7861L107.527 86.6417L109.148 88.8663L107.631 90L106.01 87.7754L104.39 90Z" fill="white"/>
<path d="M118.39 90L116.873 88.8663L118.473 86.6417L116 85.7861L116.582 83.9465L119.055 84.8021V82H120.945V84.8021L123.418 83.9465L124 85.7861L121.527 86.6417L123.148 88.8663L121.631 90L120.01 87.7754L118.39 90Z" fill="white"/>
</g>
<path d="M114.238 26.8699C114.372 26.4874 114.913 26.4874 115.047 26.8699L115.76 28.905C115.819 29.0735 115.976 29.1878 116.155 29.1918L118.31 29.2407C118.716 29.2499 118.883 29.7645 118.56 30.0101L116.845 31.3167C116.703 31.4249 116.643 31.6098 116.694 31.7808L117.314 33.8461C117.431 34.2344 116.993 34.5524 116.66 34.3216L114.887 33.0941C114.74 32.9924 114.546 32.9924 114.399 33.0941L112.626 34.3216C112.293 34.5524 111.855 34.2344 111.972 33.8461L112.591 31.7808C112.643 31.6098 112.583 31.4249 112.441 31.3167L110.725 30.0101C110.403 29.7645 110.57 29.2499 110.975 29.2407L113.131 29.1918C113.309 29.1878 113.467 29.0735 113.526 28.905L114.238 26.8699Z" fill="#FEE1DD"/>
<circle cx="8.35728" cy="99.4287" r="3.42857" fill="#FCC3BA"/>
<circle opacity="0.2" cx="14.7854" cy="17.5716" r="2.14286" fill="#100F46"/>
<rect x="0.693359" y="33.1289" width="6.85714" height="6.85714" rx="0.428571" transform="rotate(-34 0.693359 33.1289)" fill="#FEE1DD"/>
<defs>
<filter id="filter0_d_1399_3400" x="48" y="59" width="106" height="64" filterUnits="userSpaceOnUse" color-interpolation-filters="sRGB">
<feFlood flood-opacity="0" result="BackgroundImageFix"/>
<feColorMatrix in="SourceAlpha" type="matrix" values="0 0 0 0 0 0 0 0 0 0 0 0 0 0 0 0 0 0 127 0" result="hardAlpha"/>
<feOffset dx="2" dy="5"/>
<feGaussianBlur stdDeviation="10"/>
<feComposite in2="hardAlpha" operator="out"/>
<feColorMatrix type="matrix" values="0 0 0 0 0 0 0 0 0 0.36 0 0 0 0 0.3264 0 0 0 0.13 0"/>
<feBlend mode="normal" in2="BackgroundImageFix" result="effect1_dropShadow_1399_3400"/>
<feBlend mode="normal" in="SourceGraphic" in2="effect1_dropShadow_1399_3400" result="shape"/>
</filter>
<clipPath id="clip0_1399_3400">
<rect width="75.5" height="83" fill="white" transform="translate(23 22)"/>
</clipPath>
</defs>
</svg>
