<svg width="25" height="26" viewBox="0 0 25 26" fill="none" xmlns="http://www.w3.org/2000/svg">
<g id="Group 1171277643">
<path id="Vector" d="M6.10924 20.9585L5.03271 22.2868C6.10801 23.2013 7.33658 23.9185 8.66165 24.4051L9.26068 22.7816C8.11133 22.3636 7.04456 21.7465 6.10924 20.9585Z" fill="#1C2325"/>
<path id="Vector_2" d="M2.59278 14.7593L0.856445 15.1152C1.10405 16.5178 1.5947 17.8663 2.30628 19.1001L3.80821 18.2319C3.20742 17.1524 2.79632 15.9778 2.59278 14.7593Z" fill="#1C2325"/>
<path id="Vector_3" d="M9.21727 3.26507L8.61824 1.6416C7.30849 2.13282 6.09496 2.84977 5.03271 3.75992L6.10924 5.08822C7.03149 4.30459 8.08323 3.68765 9.21727 3.26507Z" fill="#1C2325"/>
<path id="Vector_4" d="M3.80853 7.81421L2.3066 6.94604C1.60855 8.18357 1.12703 9.53125 0.882812 10.9309L2.61914 11.2261C2.81471 10.0284 3.21718 8.87391 3.80853 7.81421Z" fill="#1C2325"/>
<path id="Vector_5" d="M12.8457 0.868896V2.60523C15.6087 2.60523 18.2586 3.70283 20.2123 5.65658C22.1661 7.61034 23.2637 10.2602 23.2637 13.0232C23.2637 15.7862 22.1661 18.4361 20.2123 20.3898C18.2586 22.3436 15.6087 23.4412 12.8457 23.4412V25.1775C16.0692 25.1775 19.1607 23.897 21.4401 21.6176C23.7195 19.3382 25 16.2467 25 13.0232C25 9.79969 23.7195 6.70819 21.4401 4.42881C19.1607 2.14944 16.0692 0.868896 12.8457 0.868896Z" fill="#1C2325"/>
</g>
</svg>
