<svg width="168" height="144" viewBox="0 0 168 144" fill="none" xmlns="http://www.w3.org/2000/svg">
<path d="M159.818 23.8263C159.996 23.3162 160.718 23.3162 160.896 23.8263L161.847 26.5397C161.925 26.7644 162.135 26.9167 162.373 26.9221L165.247 26.9873C165.788 26.9996 166.011 27.6856 165.581 28.0132L163.294 29.7553C163.104 29.8996 163.024 30.1461 163.093 30.3741L163.919 33.1278C164.074 33.6455 163.49 34.0695 163.046 33.7618L160.682 32.1251C160.487 31.9896 160.228 31.9896 160.032 32.1251L157.668 33.7618C157.224 34.0695 156.64 33.6455 156.796 33.1278L157.622 30.3741C157.69 30.1461 157.61 29.8996 157.421 29.7553L155.134 28.0132C154.704 27.6856 154.927 26.9996 155.467 26.9873L158.341 26.9221C158.579 26.9167 158.789 26.7644 158.868 26.5397L159.818 23.8263Z" fill="#FEE1DD"/>
<circle cx="18.6427" cy="120.571" r="4.57143" fill="#FCC3BA"/>
<circle opacity="0.2" cx="27.2146" cy="11.4286" r="2.85714" fill="#100F46"/>
<rect x="15.0908" y="52.1719" width="9.14286" height="9.14286" rx="0.571429" transform="rotate(-34 15.0908 52.1719)" fill="#FEE1DD"/>
<circle opacity="0.2" cx="89.5714" cy="69.1429" r="68.5714" fill="#100F46"/>
<rect x="36.5" y="-0.00012207" width="104" height="83" rx="5" fill="white"/>
<circle cx="88.5" cy="24.9999" r="13" fill="#F7FAFA"/>
<path d="M88.5001 27.8978C88.9877 27.8978 89.383 27.5025 89.383 27.0149C89.383 26.5273 88.9877 26.132 88.5001 26.132C88.0125 26.132 87.6172 26.5273 87.6172 27.0149C87.6172 27.5025 88.0125 27.8978 88.5001 27.8978Z" fill="#F86A53"/>
<path d="M91.9013 23.6619V22.9849C91.9013 21.5224 91.5493 19.5832 88.4997 19.5832C85.4501 19.5832 85.098 21.5224 85.098 22.9849V23.6619C83.5813 23.8515 83.083 24.6207 83.083 26.5111V27.5186C83.083 29.7394 83.7601 30.4165 85.9809 30.4165H91.0184C93.2393 30.4165 93.9163 29.7394 93.9163 27.5186V26.5111C93.9163 24.6207 93.418 23.8515 91.9013 23.6619ZM88.4997 28.6507C87.5951 28.6507 86.8638 27.914 86.8638 27.0149C86.8638 26.1103 87.6005 25.379 88.4997 25.379C89.3988 25.379 90.1355 26.1157 90.1355 27.0149C90.1355 27.9194 89.4043 28.6507 88.4997 28.6507ZM85.9809 23.6132C85.9376 23.6132 85.8997 23.6132 85.8563 23.6132V22.9849C85.8563 21.3978 86.3059 20.3415 88.4997 20.3415C90.6934 20.3415 91.143 21.3978 91.143 22.9849V23.6186C91.0997 23.6186 91.0618 23.6186 91.0184 23.6186H85.9809V23.6132Z" fill="#F86A53"/>
<rect x="48.5" y="49.9999" width="80" height="8" rx="4" fill="#100F46"/>
<rect x="57.1162" y="62.9999" width="62.8571" height="8" rx="4" fill="#100F46"/>
<rect x="36.5" y="87.9999" width="104" height="26" rx="5" fill="white"/>
<circle cx="50.5" cy="101" r="8.00001" fill="#F9FBFB"/>
<path d="M52.167 98.1666H48.8337C47.8337 98.1666 47.167 98.6666 47.167 99.8333V102.167C47.167 103.333 47.8337 103.833 48.8337 103.833H52.167C53.167 103.833 53.8337 103.333 53.8337 102.167V99.8333C53.8337 98.6666 53.167 98.1666 52.167 98.1666ZM52.3237 100.197L51.2803 101.03C51.0603 101.207 50.7803 101.293 50.5003 101.293C50.2203 101.293 49.937 101.207 49.7203 101.03L48.677 100.197C48.5703 100.11 48.5537 99.95 48.637 99.8433C48.7237 99.7366 48.8803 99.7166 48.987 99.8033L50.0303 100.637C50.2837 100.84 50.7137 100.84 50.967 100.637L52.0103 99.8033C52.117 99.7166 52.277 99.7333 52.3603 99.8433C52.447 99.95 52.4303 100.11 52.3237 100.197Z" fill="#F86A53"/>
<rect x="63.5" y="96.9999" width="71" height="8" rx="4" fill="#100F46"/>
<rect x="36.5" y="118" width="104" height="26" rx="5" fill="white"/>
<circle cx="50.5" cy="131" r="8.00001" fill="#F9FBFB"/>
<path d="M52.167 128.167H48.8337C47.8337 128.167 47.167 128.667 47.167 129.833V132.167C47.167 133.333 47.8337 133.833 48.8337 133.833H52.167C53.167 133.833 53.8337 133.333 53.8337 132.167V129.833C53.8337 128.667 53.167 128.167 52.167 128.167ZM52.3237 130.197L51.2803 131.03C51.0603 131.207 50.7803 131.293 50.5003 131.293C50.2203 131.293 49.937 131.207 49.7203 131.03L48.677 130.197C48.5703 130.11 48.5537 129.95 48.637 129.843C48.7237 129.737 48.8803 129.717 48.987 129.803L50.0303 130.637C50.2837 130.84 50.7137 130.84 50.967 130.637L52.0103 129.803C52.117 129.717 52.277 129.733 52.3603 129.843C52.447 129.95 52.4303 130.11 52.3237 130.197Z" fill="#F86A53"/>
<rect opacity="0.2" x="63.5" y="127" width="71" height="8" rx="4" fill="#100F46"/>
<g clip-path="url(#clip0_1399_3268)">
<rect x="36.5" y="-0.00012207" width="104" height="83" rx="5" fill="white"/>
<circle cx="88.5" cy="24.9999" r="13" fill="#F7FAFA"/>
<path d="M88.5001 27.8978C88.9877 27.8978 89.383 27.5025 89.383 27.0149C89.383 26.5273 88.9877 26.132 88.5001 26.132C88.0125 26.132 87.6172 26.5273 87.6172 27.0149C87.6172 27.5025 88.0125 27.8978 88.5001 27.8978Z" fill="#F86A53"/>
<path d="M91.9013 23.6619V22.9849C91.9013 21.5224 91.5493 19.5832 88.4997 19.5832C85.4501 19.5832 85.098 21.5224 85.098 22.9849V23.6619C83.5813 23.8515 83.083 24.6207 83.083 26.5111V27.5186C83.083 29.7394 83.7601 30.4165 85.9809 30.4165H91.0184C93.2393 30.4165 93.9163 29.7394 93.9163 27.5186V26.5111C93.9163 24.6207 93.418 23.8515 91.9013 23.6619ZM88.4997 28.6507C87.5951 28.6507 86.8638 27.914 86.8638 27.0149C86.8638 26.1103 87.6005 25.379 88.4997 25.379C89.3988 25.379 90.1355 26.1157 90.1355 27.0149C90.1355 27.9194 89.4043 28.6507 88.4997 28.6507ZM85.9809 23.6132C85.9376 23.6132 85.8997 23.6132 85.8563 23.6132V22.9849C85.8563 21.3978 86.3059 20.3415 88.4997 20.3415C90.6934 20.3415 91.143 21.3978 91.143 22.9849V23.6186C91.0997 23.6186 91.0618 23.6186 91.0184 23.6186H85.9809V23.6132Z" fill="#F86A53"/>
<rect opacity="0.2" x="48.5" y="49.9999" width="80" height="8" rx="4" fill="#100F46"/>
<rect opacity="0.2" x="57.1162" y="62.9999" width="62.8571" height="8" rx="4" fill="#100F46"/>
<rect x="36.5" y="87.9999" width="104" height="26" rx="5" fill="white"/>
<circle cx="50.5" cy="101" r="8.00001" fill="#F9FBFB"/>
<path d="M52.167 98.1666H48.8337C47.8337 98.1666 47.167 98.6666 47.167 99.8333V102.167C47.167 103.333 47.8337 103.833 48.8337 103.833H52.167C53.167 103.833 53.8337 103.333 53.8337 102.167V99.8333C53.8337 98.6666 53.167 98.1666 52.167 98.1666ZM52.3237 100.197L51.2803 101.03C51.0603 101.207 50.7803 101.293 50.5003 101.293C50.2203 101.293 49.937 101.207 49.7203 101.03L48.677 100.197C48.5703 100.11 48.5537 99.95 48.637 99.8433C48.7237 99.7366 48.8803 99.7166 48.987 99.8033L50.0303 100.637C50.2837 100.84 50.7137 100.84 50.967 100.637L52.0103 99.8033C52.117 99.7166 52.277 99.7333 52.3603 99.8433C52.447 99.95 52.4303 100.11 52.3237 100.197Z" fill="#F86A53"/>
<rect opacity="0.2" x="63.5" y="96.9999" width="71" height="8" rx="4" fill="#100F46"/>
</g>
<circle cx="143" cy="116" r="18" fill="#100F46"/>
<path d="M143.133 119.525C142.792 119.525 142.504 119.404 142.27 119.162C142.035 118.921 141.932 118.636 141.96 118.309C142.003 117.712 142.145 117.193 142.387 116.752C142.628 116.312 143.012 115.857 143.538 115.387C144.121 114.875 144.565 114.431 144.871 114.054C145.177 113.677 145.33 113.247 145.33 112.764C145.33 112.181 145.134 111.698 144.744 111.314C144.352 110.93 143.808 110.738 143.112 110.738C142.657 110.738 142.269 110.834 141.95 111.025C141.63 111.218 141.37 111.456 141.171 111.74C140.972 112.025 140.727 112.217 140.435 112.316C140.144 112.416 139.863 112.408 139.593 112.295C139.266 112.153 139.042 111.918 138.921 111.591C138.8 111.264 138.825 110.958 138.995 110.674C139.408 110.034 139.962 109.501 140.659 109.074C141.356 108.648 142.173 108.434 143.112 108.434C144.605 108.434 145.753 108.85 146.557 109.682C147.36 110.514 147.761 111.513 147.761 112.679C147.761 113.39 147.609 113.998 147.303 114.503C146.997 115.007 146.517 115.579 145.863 116.219C145.38 116.674 145.038 117.044 144.839 117.328C144.64 117.613 144.505 117.94 144.434 118.309C144.377 118.665 144.228 118.956 143.986 119.184C143.744 119.411 143.46 119.525 143.133 119.525ZM143.112 124.644C142.642 124.644 142.241 124.477 141.907 124.143C141.573 123.808 141.405 123.407 141.405 122.937C141.405 122.468 141.573 122.066 141.907 121.732C142.241 121.398 142.642 121.231 143.112 121.231C143.581 121.231 143.983 121.398 144.317 121.732C144.651 122.066 144.818 122.468 144.818 122.937C144.818 123.407 144.651 123.808 144.317 124.143C143.983 124.477 143.581 124.644 143.112 124.644Z" fill="white"/>
<g filter="url(#filter0_d_1399_3268)">
<rect x="18" y="36" width="52" height="24" rx="4" fill="#100F46" shape-rendering="crispEdges"/>
<path d="M28.3896 52L26.8727 50.8663L28.4727 48.6417L26 47.7861L26.5818 45.9465L29.0545 46.8021V44H30.9455V46.8021L33.4182 45.9465L34 47.7861L31.5273 48.6417L33.1481 50.8663L31.6312 52L30.0104 49.7754L28.3896 52Z" fill="white"/>
<path d="M42.3896 52L40.8727 50.8663L42.4727 48.6417L40 47.7861L40.5818 45.9465L43.0545 46.8021V44H44.9455V46.8021L47.4182 45.9465L48 47.7861L45.5273 48.6417L47.1481 50.8663L45.6312 52L44.0104 49.7754L42.3896 52Z" fill="white"/>
<path d="M56.3896 52L54.8727 50.8663L56.4727 48.6417L54 47.7861L54.5818 45.9465L57.0545 46.8021V44H58.9455V46.8021L61.4182 45.9465L62 47.7861L59.5273 48.6417L61.1481 50.8663L59.6312 52L58.0104 49.7754L56.3896 52Z" fill="white"/>
</g>
<defs>
<filter id="filter0_d_1399_3268" x="-1.66893e-06" y="21" width="92" height="64" filterUnits="userSpaceOnUse" color-interpolation-filters="sRGB">
<feFlood flood-opacity="0" result="BackgroundImageFix"/>
<feColorMatrix in="SourceAlpha" type="matrix" values="0 0 0 0 0 0 0 0 0 0 0 0 0 0 0 0 0 0 127 0" result="hardAlpha"/>
<feOffset dx="2" dy="5"/>
<feGaussianBlur stdDeviation="10"/>
<feComposite in2="hardAlpha" operator="out"/>
<feColorMatrix type="matrix" values="0 0 0 0 0 0 0 0 0 0.36 0 0 0 0 0.3264 0 0 0 0.13 0"/>
<feBlend mode="normal" in2="BackgroundImageFix" result="effect1_dropShadow_1399_3268"/>
<feBlend mode="normal" in="SourceGraphic" in2="effect1_dropShadow_1399_3268" result="shape"/>
</filter>
<clipPath id="clip0_1399_3268">
<rect width="104" height="111" fill="white" transform="translate(36.5 -0.00012207)"/>
</clipPath>
</defs>
</svg>
