<svg width="186" height="186" viewBox="0 0 186 186" fill="none" xmlns="http://www.w3.org/2000/svg">
<g id="check_FILL0_wght400_GRAD0_opsz24 1">
<circle id="Ellipse 220" cx="93.7963" cy="92.7963" r="78.2963" stroke="white" stroke-width="3"/>
<path id="Vector" d="M53 116V108H133V116H53ZM57.6 91.8L52.4 88.8L55.8 82.8H49V76.8H55.8L52.4 71L57.6 68L61 73.8L64.4 68L69.6 71L66.2 76.8H73V82.8H66.2L69.6 88.8L64.4 91.8L61 85.8L57.6 91.8ZM89.6 91.8L84.4 88.8L87.8 82.8H81V76.8H87.8L84.4 71L89.6 68L93 73.8L96.4 68L101.6 71L98.2 76.8H105V82.8H98.2L101.6 88.8L96.4 91.8L93 85.8L89.6 91.8ZM121.6 91.8L116.4 88.8L119.8 82.8H113V76.8H119.8L116.4 71L121.6 68L125 73.8L128.4 68L133.6 71L130.2 76.8H137V82.8H130.2L133.6 88.8L128.4 91.8L125 85.8L121.6 91.8Z" fill="white"/>
</g>
</svg>
