<svg width="65" height="64" viewBox="0 0 65 64" fill="none" xmlns="http://www.w3.org/2000/svg">
<g id="healthicons:nurse">
<g id="Group">
<path id="Vector" fill-rule="evenodd" clip-rule="evenodd" d="M32.6244 8C28.8831 8 24.3071 9.368 21.6058 10.308C20.2884 10.7667 19.6284 12.1973 20.0644 13.5213L22.9284 22.216C22.1833 23.8411 21.8586 25.6273 21.9841 27.4107C22.1096 29.194 22.6813 30.9172 23.6467 32.4218C24.6121 33.9265 25.9401 35.1644 27.5089 36.0218C29.0776 36.8792 30.8367 37.3285 32.6244 37.3285C34.4122 37.3285 36.1712 36.8792 37.74 36.0218C39.3087 35.1644 40.6368 33.9265 41.6022 32.4218C42.5676 30.9172 43.1393 29.194 43.2648 27.4107C43.3903 25.6273 43.0655 23.8411 42.3204 22.216L45.1844 13.5227C45.6204 12.1973 44.9604 10.7667 43.6431 10.3093C40.9404 9.36667 36.3658 8 32.6244 8ZM25.1311 24.5667C30.1404 22.5093 35.1084 22.5093 40.1178 24.5667C40.1978 24.6 40.2818 24.624 40.3658 24.6413C40.6737 25.8242 40.7064 27.0619 40.4616 28.2594C40.2167 29.4569 39.7007 30.5823 38.9531 31.5494C38.2056 32.5164 37.2464 33.2993 36.1492 33.8379C35.0521 34.3766 33.846 34.6566 32.6238 34.6566C31.4015 34.6566 30.1955 34.3766 29.0983 33.8379C28.0011 33.2993 27.0419 32.5164 26.2944 31.5494C25.5468 30.5823 25.0308 29.4569 24.7859 28.2594C24.5411 27.0619 24.5739 25.8242 24.8818 24.6413C24.967 24.6244 25.0505 24.5994 25.1311 24.5667ZM33.9578 14.6667H36.6244V17.3333H33.9578V20H31.2911V17.3333H28.6244V14.6667H31.2911V12H33.9578V14.6667Z" fill="white"/>
<path id="Vector_2" fill-rule="evenodd" clip-rule="evenodd" d="M31.0907 42.9239L23.1307 37.3333C23.1307 37.3333 8.62402 41.8573 8.62402 47.2893V55.9999H56.624V47.2893C56.624 41.8573 42.1187 37.3333 42.1187 37.3333L34.156 42.9239C33.7073 43.2389 33.1723 43.4079 32.624 43.4079C32.0757 43.4079 31.5395 43.2389 31.0907 42.9239ZM43.2907 42.6666H45.9574V45.3333H48.624V47.9999H45.9574V50.6666H43.2907V47.9999H40.624V45.3333H43.2907V42.6666Z" fill="white"/>
</g>
</g>
</svg>
