<svg width="27" height="26" viewBox="0 0 27 26" fill="none" xmlns="http://www.w3.org/2000/svg">
<g id="Dribbble-Light-Preview">
<g id="icons">
<path id="helmet_round-[#594]" d="M3.31777 18.075H3.19277V18.2V20.8844C3.19277 22.2748 4.31943 23.525 5.72538 23.525H5.94118H21.4099C22.9737 23.525 24.2428 22.1353 24.2428 20.5829V13C24.2428 6.95556 19.1234 2.19632 12.997 2.60668L13.0054 2.7314L12.997 2.60668C8.51166 2.90719 4.92555 6.42369 3.67573 10.3622L3.62407 10.525H3.79488H14.0103C15.7008 10.525 16.8919 12.1533 16.3592 13.7544C16.3591 13.7545 16.3591 13.7545 16.3591 13.7546L15.4921 16.3269L15.492 16.3273C15.154 17.3424 14.2045 18.075 13.1432 18.075H3.31777ZM6.01612 2.70005L6.01612 2.70004C8.16659 1.08912 10.8263 0.125 13.7178 0.125C16.6092 0.125 19.269 1.08912 21.4194 2.70004L21.4944 2.6L21.4194 2.70005C22.4044 3.4378 23.2786 4.31213 24.0177 5.29842C25.6274 7.44761 26.5928 10.1073 26.5928 13V20.5829C26.5928 23.3923 24.3139 25.875 21.5178 25.875H13.7178H5.91777C3.12162 25.875 0.842773 23.3923 0.842773 20.5829V13C0.842773 10.1073 1.80818 7.44763 3.4178 5.29844C4.15689 4.31214 5.03115 3.43781 6.01612 2.70005Z" fill="#0A1920" stroke="white" stroke-width="0.25"/>
</g>
</g>
</svg>
