<svg width="65" height="64" viewBox="0 0 65 64" fill="none" xmlns="http://www.w3.org/2000/svg">
<g id="game-icons:medicines">
<path id="Vector" d="M27.8019 3.42822C24.3144 3.48697 21.1644 5.56697 19.7394 8.78322L36.8019 13.937C37.5519 9.46322 34.8644 5.12572 30.5394 3.80947C29.7644 3.57447 28.9519 3.44572 28.1394 3.42822H27.8019ZM19.0894 10.9382C18.3269 15.4245 21.0144 19.7745 25.3519 21.087C29.7019 22.3995 34.3394 20.2495 36.1644 16.087L19.0894 10.9382ZM52.2769 16.4745C49.1144 16.487 45.7519 18.012 43.2144 21.5995L27.6144 43.712C23.4269 49.637 25.2519 55.837 29.3769 58.762C33.5144 61.6995 39.9519 61.362 44.1394 55.437L59.7269 33.337C63.9144 27.3995 62.0894 21.212 57.9644 18.2745C56.4144 17.1745 54.5519 16.537 52.5894 16.4745H52.2769ZM52.0519 18.637C52.2144 18.637 52.3769 18.637 52.5269 18.6495C54.0394 18.712 55.4644 19.2495 56.6644 20.112C59.8769 22.387 61.4894 26.9245 57.8769 32.037L49.8144 43.4745C45.3394 42.2745 39.5894 38.187 36.9769 34.3495L45.0644 22.8995C47.1769 19.912 49.6894 18.687 52.0519 18.637ZM12.0331 28.162C10.8306 28.1745 9.64437 28.4245 8.54187 28.912C4.40312 30.7245 2.24937 35.3495 3.51187 39.6995L19.8519 32.562C18.2144 29.7995 15.2394 28.1245 12.0331 28.162ZM20.7394 34.612L4.40187 41.762C6.70812 45.687 11.5644 47.262 15.7269 45.4495C19.8769 43.6245 22.0269 38.9745 20.7394 34.612Z" fill="white"/>
</g>
</svg>
