<svg width="64" height="65" viewBox="0 0 64 65" fill="none" xmlns="http://www.w3.org/2000/svg">
<g id="medical-icon:i-physical-therapy" clip-path="url(#clip0_2215_660)">
<path id="Vector" d="M30.8321 19.4885C32.3932 19.4898 33.891 18.871 34.9959 17.7681C36.1009 16.6653 36.7225 15.1687 36.7241 13.6075C36.7234 12.8346 36.5705 12.0693 36.274 11.3555C35.9775 10.6417 35.5433 9.99326 34.9961 9.44731C34.4489 8.90135 33.7996 8.46855 33.0851 8.17364C32.3706 7.87872 31.605 7.72747 30.8321 7.72852C27.5771 7.72852 24.9391 10.3605 24.9391 13.6075C24.9412 15.1687 25.5631 16.6651 26.6682 17.7679C27.7732 18.8707 29.2709 19.4896 30.8321 19.4885ZM48.7851 59.2455H1.81107C0.488072 59.2455 0.624072 60.2855 0.624072 60.2855V62.0165C0.624072 62.0165 0.504072 64.2655 2.81407 64.2655H61.6311C63.9561 64.2655 63.8301 62.0685 63.8301 62.0685V57.2745C63.8301 57.2745 63.6331 55.7585 61.8501 55.7585H56.1181C54.1531 55.7585 52.5291 59.2445 48.7861 59.2445L48.7851 59.2455ZM53.3531 48.6235C53.3531 51.5455 55.7311 53.9185 58.6611 53.9185C61.5901 53.9185 63.9741 51.5445 63.9741 48.6235C63.9741 45.6905 61.5901 43.3265 58.6611 43.3265C57.9646 43.3252 57.2746 43.4612 56.6308 43.7268C55.9869 43.9924 55.4017 44.3824 54.9087 44.8744C54.4157 45.3664 54.0245 45.9507 53.7576 46.5941C53.4907 47.2374 53.3532 47.927 53.3531 48.6235ZM36.0021 38.5205C35.8256 39.0592 35.53 39.5511 35.1371 39.9597C34.7443 40.3683 34.2644 40.683 33.7331 40.8805L29.0061 42.6335L30.7501 44.3645H38.7301L38.7251 32.1495L36.0541 38.4465C36.0411 38.4765 36.0171 38.4935 36.0011 38.5205H36.0021Z" fill="white"/>
<path id="Vector_2" d="M47.4624 47.2666H30.9624L26.9844 43.3826L24.2154 44.4026C22.1614 45.1376 19.6604 44.0156 18.8894 41.9746C18.4354 40.7076 18.4984 39.2925 19.2564 38.2615C18.9174 38.2465 9.24942 38.2615 9.24942 38.2615C8.86772 38.2604 8.48952 38.3344 8.13643 38.4794C7.78334 38.6244 7.46228 38.8376 7.19158 39.1067C6.92088 39.3758 6.70586 39.6956 6.55878 40.0479C6.41171 40.4001 6.33547 40.7778 6.33442 41.1596C6.33442 42.7666 7.64142 44.0226 9.24942 44.0226H19.0924L22.9954 49.9316L2.84442 51.5506C2.14699 51.7098 1.53269 52.1205 1.11893 52.7041C0.705171 53.2877 0.520964 54.0033 0.601513 54.7141C0.682063 55.4249 1.02172 56.0812 1.55557 56.5574C2.08943 57.0336 2.78004 57.2964 3.49542 57.2955L26.1044 57.2986C25.696 56.6457 25.4782 55.8916 25.4754 55.1215C25.4762 54.015 25.9161 52.9541 26.6985 52.1717C27.481 51.3893 28.5419 50.9493 29.6484 50.9486H38.6944L46.0254 49.4176L46.4324 51.3646L38.8994 52.9376H29.6474C29.0691 52.9317 28.5122 53.1559 28.0991 53.5606C27.6861 53.9654 27.4508 54.5177 27.4449 55.0961C27.4391 55.6744 27.6632 56.2313 28.068 56.6443C28.4728 57.0574 29.0251 57.2927 29.6034 57.2986L47.5014 57.3006C48.8272 57.2947 50.0968 56.764 51.0323 55.8246C51.9678 54.8851 52.4932 53.6134 52.4934 52.2876C52.4933 51.6273 52.363 50.9736 52.11 50.3638C51.857 49.754 51.4863 49.2 51.019 48.7336C50.5518 48.2671 49.9971 47.8974 49.3869 47.6455C48.7766 47.3936 48.1226 47.2655 47.4624 47.2666Z" fill="white"/>
<path id="Vector_3" d="M23.8666 42.5805C23.3064 42.8254 22.6721 42.8381 22.1026 42.616C21.5331 42.3939 21.0749 41.955 20.8286 41.3955C20.7063 41.1181 20.6399 40.8192 20.6334 40.516C20.6269 40.2129 20.6804 39.9114 20.7906 39.629C20.9009 39.3465 21.0659 39.0887 21.2761 38.8701C21.4863 38.6516 21.7376 38.4767 22.0156 38.3555L30.4166 35.2015L33.0126 29.0095L31.3206 28.3845L29.1136 33.6865L22.7186 36.0415V29.5595L16.4676 36.3865L9.39355 36.3795C9.39355 36.3795 21.7726 22.8095 22.1596 22.4035C22.6726 21.8945 23.8456 21.0505 26.0576 21.0505H34.0066C38.5226 21.0505 39.3916 25.5525 38.4676 27.8825L34.3106 37.9645C34.184 38.2541 34.0003 38.515 33.7704 38.7317C33.5404 38.9484 33.2691 39.1164 32.9726 39.2255L23.8666 42.5785V42.5805Z" fill="white"/>
</g>
<defs>
<clipPath id="clip0_2215_660">
<rect width="64" height="64" fill="white" transform="translate(0.00488281 0.265625)"/>
</clipPath>
</defs>
</svg>
