<svg width="46" height="46" viewBox="0 0 46 46" fill="none" xmlns="http://www.w3.org/2000/svg">
<circle opacity="0.3" cx="23" cy="23" r="23" fill="white"/>
<circle opacity="0.3" cx="23" cy="23" r="20" fill="white"/>
<circle cx="22.9992" cy="23.0002" r="11.6769" fill="white"/>
<path fill-rule="evenodd" clip-rule="evenodd" d="M23.0004 35.5393C24.6471 35.5393 26.2776 35.215 27.799 34.5848C29.3203 33.9546 30.7027 33.031 31.8671 31.8666C33.0315 30.7022 33.9551 29.3199 34.5853 27.7985C35.2154 26.2771 35.5398 24.6466 35.5398 22.9999C35.5398 21.3532 35.2154 19.7226 34.5853 18.2012C33.9551 16.6799 33.0315 15.2976 31.8671 14.1332C30.7027 12.9688 29.3203 12.0451 27.799 11.415C26.2776 10.7848 24.6471 10.4604 23.0004 10.4604C19.6747 10.4604 16.4852 11.7816 14.1336 14.1332C11.7821 16.4848 10.4609 19.6742 10.4609 22.9999C10.4609 26.3255 11.7821 29.515 14.1336 31.8666C16.4852 34.2182 19.6747 35.5393 23.0004 35.5393ZM21.3048 17.4129L29.1684 21.7822C29.3855 21.9029 29.5663 22.0794 29.6923 22.2935C29.8182 22.5076 29.8846 22.7515 29.8846 22.9999C29.8846 23.2483 29.8182 23.4921 29.6923 23.7062C29.5663 23.9203 29.3855 24.0969 29.1684 24.2176L21.3048 28.5869C21.0501 28.7284 20.763 28.801 20.4717 28.7973C20.1804 28.7937 19.8951 28.714 19.6441 28.5662C19.3931 28.4184 19.185 28.2075 19.0406 27.9546C18.8961 27.7016 18.8203 27.4153 18.8206 27.1239V18.8758C18.8203 18.5845 18.8961 18.2982 19.0406 18.0452C19.185 17.7922 19.3931 17.5814 19.6441 17.4335C19.8951 17.2857 20.1804 17.206 20.4717 17.2024C20.763 17.1988 21.0501 17.2713 21.3048 17.4129Z" fill="#0A1920"/>
</svg>
