<svg width="186" height="186" viewBox="0 0 186 186" fill="none" xmlns="http://www.w3.org/2000/svg">
<g id="check_FILL0_wght400_GRAD0_opsz24 1">
<circle id="Ellipse 220" cx="93.7963" cy="92.4257" r="78.2963" stroke="white" stroke-width="3"/>
<path id="Vector" d="M35.2142 145.947C35.6334 146.056 36.0788 145.996 36.4538 145.78C36.8288 145.565 37.1032 145.211 37.2175 144.797C40.5892 132.305 54.2918 129.068 62.482 127.131C64.5345 126.646 66.1548 126.263 67.2089 125.811C76.5382 121.79 79.5792 115.322 80.4893 110.603C80.5434 110.322 80.5219 110.032 80.4271 109.762C80.3323 109.492 80.1674 109.252 79.9491 109.065C75.0913 104.901 70.993 98.6509 68.407 91.461C68.334 91.2548 68.2193 91.0657 68.0698 90.9052C64.649 87.2128 62.685 83.3091 62.685 80.1985C62.685 78.3815 63.3757 77.1626 64.9306 76.2428C65.1635 76.1045 65.3581 75.9109 65.497 75.6794C65.6358 75.4479 65.7145 75.1858 65.726 74.9166C66.4494 58.3592 78.3255 45.3251 92.8924 45.2406L93.2426 45.2634C107.882 45.4649 119.682 58.7785 120.105 75.5699C120.11 75.7994 120.165 76.0251 120.266 76.2319C120.366 76.4387 120.51 76.6219 120.687 76.7693C121.712 77.6307 122.19 78.7228 122.19 80.205C122.19 82.8085 120.792 86.0102 118.258 89.215C118.138 89.3692 118.045 89.543 117.983 89.7286C115.365 97.9716 110.664 105.249 105.093 109.702C104.862 109.887 104.686 110.131 104.583 110.407C104.481 110.684 104.455 110.983 104.51 111.272C105.42 115.988 108.461 122.453 117.79 126.481C118.893 126.955 120.605 127.326 122.776 127.791C130.884 129.533 144.452 132.455 147.782 144.797C147.837 145.003 147.934 145.196 148.065 145.365C148.196 145.534 148.359 145.676 148.546 145.783C148.732 145.889 148.938 145.958 149.151 145.986C149.364 146.014 149.581 145.999 149.788 145.944C149.996 145.888 150.19 145.793 150.361 145.663C150.531 145.533 150.674 145.37 150.782 145.185C150.889 145 150.958 144.796 150.986 144.584C151.014 144.373 151 144.158 150.944 143.951C147.097 129.692 131.725 126.386 123.47 124.612C121.555 124.199 119.902 123.845 119.096 123.494C113.008 120.867 109.256 116.866 107.931 111.581C113.584 106.761 118.314 99.3237 121.018 90.9832C123.889 87.2778 125.466 83.4619 125.466 80.2017C125.466 78.0272 124.759 76.2135 123.358 74.7963C122.579 56.5812 109.489 42.2373 93.2426 42.0065L92.7549 42C76.8034 42.0845 63.6572 56.0514 62.5082 73.9512C60.459 75.4464 59.4181 77.5429 59.4181 80.205C59.4181 84.0502 61.608 88.6495 65.4412 92.8685C68.0894 100.094 72.1943 106.442 77.0816 110.885C75.7624 116.19 72.0078 120.204 65.906 122.834C65.1171 123.175 63.5459 123.549 61.7258 123.978C53.408 125.941 37.9311 129.598 34.0554 143.958C33.9434 144.374 34.0026 144.818 34.2199 145.191C34.4373 145.564 34.7949 145.836 35.2142 145.947Z" fill="white"/>
</g>
</svg>
