<svg width="192" height="192" viewBox="0 0 192 192" fill="none" xmlns="http://www.w3.org/2000/svg">
<path d="M132.666 77.9167C132.666 87.7739 128.751 97.2274 121.78 104.197C114.81 111.168 105.357 115.083 95.4997 115.083C85.6425 115.083 76.189 111.168 69.2189 104.197C62.2488 97.2274 58.333 87.7739 58.333 77.9167C58.333 68.0595 62.2488 58.606 69.2189 51.6359C76.189 44.6658 85.6425 40.75 95.4997 40.75C105.357 40.75 114.81 44.6658 121.78 51.6359C128.751 58.606 132.666 68.0595 132.666 77.9167Z" fill="white"/>
<path fill-rule="evenodd" clip-rule="evenodd" d="M91.7087 189.342C42.1516 187.354 2.58301 146.545 2.58301 96.4999C2.58301 45.182 44.1818 3.58325 95.4997 3.58325C146.818 3.58325 188.416 45.182 188.416 96.4999C188.416 147.818 146.818 189.417 95.4997 189.417C95.0754 189.419 94.651 189.419 94.2267 189.417C93.3858 189.417 92.5449 189.389 91.7087 189.342ZM35.8751 155.13C35.1803 153.135 34.9439 151.009 35.1832 148.91C35.4225 146.811 36.1315 144.793 37.2575 143.006C38.3836 141.219 39.8977 139.708 41.6876 138.585C43.4774 137.463 45.497 136.759 47.5965 136.524C83.8154 132.514 107.407 132.877 143.449 136.607C145.552 136.826 147.576 137.522 149.369 138.642C151.162 139.761 152.675 141.275 153.794 143.068C154.914 144.861 155.609 146.886 155.827 148.988C156.046 151.091 155.781 153.215 155.055 155.2C170.502 139.571 179.152 118.474 179.125 96.4999C179.125 50.3157 141.684 12.8749 95.4997 12.8749C49.3154 12.8749 11.8747 50.3157 11.8747 96.4999C11.8747 119.339 21.0316 140.041 35.8751 155.13Z" fill="white"/>
</svg>
