<svg width="390" height="868" viewBox="0 0 390 868" fill="none" xmlns="http://www.w3.org/2000/svg">
<g clip-path="url(#clip0_1749_1111)">
<rect width="390" height="868" rx="20" fill="white"/>
<path d="M339.876 425.308C336.991 415.276 335.905 409.758 335.445 403.739C335.779 403.781 326.165 381.084 325.915 375.943C324.828 343.924 318.516 316.337 316.134 302.794C313.249 286.617 312.121 271.737 304.221 257.065C300.835 250.754 294.147 240.387 292.266 233.699C290.511 227.304 290.803 215.977 288.88 208.662C286.122 198.421 277.804 186.633 266.392 183.457C264.595 182.997 262.38 182.412 260.039 181.91C259.955 182.119 259.913 182.244 259.83 182.37C258.116 182.119 256.361 181.868 254.48 181.868C253.351 181.868 252.139 181.994 251.01 182.203C239.515 174.052 221.249 170.457 218.24 170.666C213.433 168.618 215.606 151.355 215.857 146.297C216.693 145.963 217.989 144.332 221.04 136.391C221.416 135.22 221.918 134.092 222.378 132.838C222.378 132.796 222.461 132.67 222.503 132.503C222.712 131.834 222.921 131.166 223.214 130.455C223.464 129.619 223.715 126.693 224.05 124.436C224.05 124.352 224.05 124.269 224.05 124.143C224.384 125.272 225.22 125.983 225.931 125.941C226.14 125.941 226.39 125.857 226.516 125.606C228.23 123.558 232.033 116.954 232.869 114.195C234.499 108.552 232.744 102.115 229.651 102.575C228.898 102.7 228.146 103.202 227.31 104.163C227.477 96.932 226.056 100.778 227.561 96.1378C227.561 96.096 227.561 96.0542 227.603 96.0124C228.898 92.961 229.693 89.9515 230.069 87.2345C230.863 82.7202 230.654 79.2927 229.86 76.2413C229.86 76.1159 229.776 76.0323 229.734 75.8233C225.304 58.1004 210.799 53.0427 202.147 52.3739C201.06 52.0813 199.89 51.9141 198.845 51.7887C198.259 51.6633 197.465 51.5797 196.546 51.4961C196.546 51.4961 196.337 51.4961 196.211 51.4961C195.835 51.4961 195.542 51.4961 195.208 51.4961C194.915 51.4961 194.665 51.4961 194.289 51.4961C194.163 51.4961 194.08 51.4961 193.954 51.4961C193.035 51.5797 192.24 51.6633 191.655 51.7887C190.527 51.9141 189.482 52.0813 188.353 52.3739C179.701 53.0427 165.113 58.1004 160.765 75.8233C160.765 76.0323 160.682 76.1577 160.682 76.2413C159.888 79.2927 159.595 82.7202 160.389 87.2345C160.849 89.9515 161.643 92.961 162.939 96.0124C162.939 96.0542 162.939 96.096 162.981 96.1378C164.402 100.778 163.064 96.932 163.19 104.163C162.354 103.202 161.56 102.7 160.849 102.575C157.714 102.115 155.958 108.552 157.63 114.195C158.425 116.954 162.228 123.558 163.942 125.606C164.068 125.857 164.277 125.941 164.527 125.941C165.154 125.941 166.074 125.272 166.408 124.143C166.408 124.311 166.408 124.394 166.408 124.436C166.659 126.693 166.994 129.661 167.244 130.455C167.453 131.166 167.746 131.834 167.955 132.503C167.955 132.629 168.039 132.754 168.039 132.838C168.54 134.133 168.916 135.262 169.418 136.391C172.469 144.332 173.681 145.963 174.517 146.297C174.852 151.355 176.9 168.618 172.093 170.666C169.167 170.457 150.817 174.052 139.406 182.203C138.236 181.952 137.023 181.868 135.937 181.868C134.014 181.868 132.258 182.119 130.545 182.37C130.461 182.244 130.419 182.119 130.335 181.91C127.953 182.412 125.779 182.997 123.898 183.457C112.571 186.633 104.253 198.463 101.494 208.662C99.5712 215.977 99.8638 227.346 98.0664 233.699C96.1436 240.387 89.4976 250.754 86.1536 257.065C78.2117 271.737 77.0413 286.659 74.2408 302.794C71.8164 316.379 65.5465 343.966 64.3761 375.943C64.2089 381.042 54.5533 403.781 54.8459 403.739C54.4279 409.716 53.2575 415.276 50.457 425.308C47.949 434.211 49.3284 448.255 53.0903 455.654C55.3893 460.21 55.9745 464.766 61.7846 464.348C61.91 464.348 61.91 464.432 61.8264 464.515C62.4952 467.065 62.4952 467.107 62.4952 467.107C69.0577 469.239 66.4661 461.046 66.2989 455.445C66.0481 449.133 67.5111 438.349 71.1476 432.915C75.5784 437.555 67.9709 454.651 77.7519 456.406C78.1281 456.448 77.7519 456.406 78.1281 456.448C79.7583 454.985 77.6683 445.455 80.2599 434.587C82.2245 426.687 77.8355 420.25 77.0831 412.392C76.6652 407.292 77.3339 402.067 78.5461 397.009C80.5943 388.859 84.1472 380.75 87.4076 373.267C87.6166 372.891 87.742 372.599 87.8674 372.306C88.0764 371.763 88.369 371.177 88.5362 370.718C88.9124 369.589 89.4139 368.628 89.7483 367.625C95.642 352.995 93.0505 335.439 99.404 322.857C101.536 318.51 121.599 273.534 125.779 268.058C129.583 263.21 132.76 258.612 135.393 254.307C135.393 261.58 135.101 283.65 133.805 282.939C135.351 289.627 133.888 301.122 135.142 306.096C136.814 312.867 139.573 319.221 140.827 326.076C142.834 337.989 143.043 357.844 143.377 358.345C143.252 359.265 143.126 360.142 142.875 361.187C140.451 374.898 124.86 405.328 122.185 507.067C122.185 508.572 122.185 507.067 122.017 508.572C120.011 524.916 118.632 536.076 122.435 551.124C126.114 565.879 125.612 578.46 125.779 594.344C125.779 595.055 125.779 595.724 125.779 596.351C125.779 596.852 125.779 597.354 125.779 597.772C125.779 598.232 125.779 598.524 125.738 598.984C125.738 599.694 125.654 600.447 125.612 601.116C124.358 616.581 118.966 630.459 117.837 646.134C117.712 648.558 117.503 650.732 117.461 652.78C117.252 654.577 117.085 656.333 116.96 657.963C115.706 674.933 117.545 680.869 119.802 696.418C122.059 711.55 126.783 739.889 129.5 755.272C129.959 757.947 130.085 761.082 130.043 764.468C127.744 774.165 124.651 783.068 120.136 794.354C117.127 801.585 108.934 807.939 108.683 810.739C108.265 816.884 123.021 816.926 127.869 817.26C133.972 817.678 141.329 817.636 146.763 814.919C153.952 811.032 156.962 803.717 154.955 795.817C156.794 793.56 158.926 789.631 155.958 776.798C154.287 769.442 157.923 773.663 156.126 766.223C148.017 733.285 164.527 699.093 165.614 664.066C166.158 659.677 166.45 655.329 166.534 650.773C166.659 642.622 165.405 622.935 164.653 615.035C164.653 614.45 164.569 614.032 164.569 613.488C165.698 606.508 167.746 599.778 168.874 594.261C172.595 576.83 172.762 559.609 176.398 543.6C183.462 511.958 195.166 463.972 193.369 446.375C193.494 446.458 193.703 446.5 193.871 446.542V446.876C193.871 446.876 194.08 446.876 194.205 446.876C194.497 446.918 194.748 446.96 194.957 446.96C194.999 446.96 195.083 446.96 195.083 446.96C195.124 446.96 195.25 446.96 195.292 446.96C195.501 446.96 195.751 446.96 196.044 446.876C196.169 446.876 196.253 446.876 196.378 446.876V446.542C196.378 446.542 196.671 446.416 196.88 446.375C194.999 463.972 206.787 511.958 213.851 543.6C217.445 559.567 217.696 576.83 221.374 594.261C222.503 599.778 224.551 606.508 225.722 613.488C225.722 613.99 225.638 614.45 225.596 615.035C224.844 622.977 223.464 642.622 223.632 650.773C223.799 655.329 224.091 659.677 224.635 664.066C225.722 699.093 242.232 733.327 234.165 766.223C232.284 773.663 236.004 769.442 234.332 776.798C231.323 789.631 233.496 793.56 235.335 795.817C233.371 803.717 236.297 811.032 243.445 814.919C248.878 817.678 256.361 817.678 262.338 817.26C267.145 816.967 282.025 816.926 281.566 810.739C281.315 807.939 273.122 801.627 270.154 794.354C265.556 783.068 262.421 774.165 260.206 764.468C260.039 761.082 260.29 757.947 260.708 755.272C263.466 739.889 268.232 711.55 270.363 696.418C272.62 680.827 274.585 674.892 273.289 657.963C273.164 656.291 272.997 654.577 272.746 652.78C272.704 650.732 272.579 648.516 272.453 646.134C271.366 630.417 265.933 616.581 264.679 601.116C264.637 600.447 264.595 599.694 264.553 598.984C264.553 598.566 264.553 598.232 264.511 597.772C264.511 597.354 264.511 596.852 264.511 596.351C264.511 595.765 264.511 595.055 264.511 594.344C264.72 578.46 264.177 565.879 267.855 551.124C271.701 536.034 270.28 524.916 268.273 508.572C267.981 507.067 268.023 508.572 267.981 507.067C265.389 405.369 249.714 374.939 247.29 361.187C247.165 360.142 246.997 359.265 246.872 358.345C247.165 357.844 247.29 337.989 249.422 326.076C250.55 319.221 253.435 312.826 255.065 306.096C256.361 301.122 254.856 289.585 256.402 282.939C255.107 283.65 254.814 261.58 254.814 254.307C257.405 258.612 260.582 263.21 264.428 268.058C268.608 273.492 288.588 318.51 290.803 322.857C297.157 335.481 294.565 353.037 300.375 367.625C300.793 368.628 301.211 369.631 301.671 370.718C301.88 371.177 302.173 371.763 302.382 372.306C302.507 372.599 302.632 372.891 302.758 373.267C305.976 380.75 309.655 388.859 311.703 397.009C312.915 402.067 313.584 407.292 313.04 412.392C312.288 420.25 307.983 426.687 309.905 434.587C312.622 445.455 310.491 454.985 312.121 456.448C312.539 456.448 312.121 456.448 312.497 456.406C322.278 454.651 314.587 437.555 319.101 432.915C322.654 438.349 324.117 449.133 323.95 455.445C323.825 461.046 321.233 469.239 327.754 467.107C327.754 467.107 327.754 467.107 328.423 464.515C328.381 464.432 328.339 464.306 328.464 464.348C334.233 464.808 334.818 460.252 337.117 455.654C340.795 448.255 342.258 434.169 339.75 425.308H339.876Z" fill="#E8D4B5"/>
<path d="M196.21 403.489C197.589 408.713 199.136 413.813 200.808 418.787C205.448 432.832 210.84 446.124 215.814 459.123C220.788 472.123 225.302 484.83 228.604 497.412C231.99 509.993 233.495 522.575 234.958 534.78C237.675 559.149 238.469 582.139 238.469 603.164C237.968 624.189 234.874 643.417 235 660.931C235 669.667 235.669 677.985 237.006 685.592L240.475 706.994C242.691 720.244 244.781 731.446 246.62 740.433C250.298 758.49 253.015 767.812 253.015 767.812C253.015 767.812 250.549 758.699 247.247 740.976C245.575 732.115 243.694 721.08 241.688 707.997L238.553 686.846C237.341 679.281 236.588 671.255 236.672 662.644C236.672 645.423 239.89 626.446 240.852 605.254C241.27 584.062 240.768 561.072 238.386 536.369C237.09 524.08 235.794 511.205 232.575 498.206C229.44 485.206 224.968 472.207 220.077 458.956C215.187 445.706 209.878 432.246 205.28 418.16C202.062 408.212 199.303 397.846 197.506 387.229C197.882 385.097 198.216 382.923 198.509 380.75C199.554 382.338 200.557 383.926 201.644 385.431L207.245 393.331C208.875 395.881 210.464 398.64 211.927 401.399C217.82 412.475 222.418 423.97 227.1 435.089C229.44 440.648 231.823 446.166 234.331 451.474C236.714 456.741 238.845 462.091 240.768 467.4C244.614 478.017 247.665 488.55 250.006 498.875C254.729 519.523 256.652 539.336 256.443 557.561C256.317 566.673 255.69 575.367 254.52 583.602C253.391 591.836 251.97 599.695 251.051 607.219C250.131 614.742 249.713 621.932 250.215 628.662C250.591 635.391 252.054 641.619 253.392 647.221C255.899 658.548 255.356 668.538 254.06 676.355C252.764 684.213 251.051 690.065 250.006 693.994L248.292 699.929L250.048 694.161C251.176 690.316 252.932 684.631 254.436 676.94C255.899 669.291 256.735 659.384 254.604 648.015C253.433 642.33 251.97 636.436 251.636 629.832C251.176 623.269 251.594 616.247 252.556 608.891C253.517 601.492 255.063 593.759 256.359 585.525C257.697 577.29 258.575 568.512 258.867 559.358C259.494 541.008 257.906 520.945 253.559 499.836C251.385 489.303 248.459 478.477 244.697 467.567C242.816 462.091 240.726 456.657 238.386 451.098C235.919 445.706 233.579 440.272 231.28 434.587C226.64 423.343 222.167 411.556 216.19 399.894C214.685 396.968 213.097 394.125 211.341 391.2L205.698 383.007C203.817 380.29 201.978 377.573 200.265 374.772C199.429 373.393 198.593 371.972 197.924 370.551C197.84 370.342 197.757 370.174 197.673 369.965C197.84 369.464 197.966 368.92 198.049 368.293C198.133 367.416 198.049 366.538 197.673 365.786L196.837 366.162C196.837 363.737 196.921 361.313 196.962 358.763C198.049 360.937 199.178 363.027 200.265 365.117C203.065 370.383 205.949 375.399 208.75 380.29C214.309 390.029 220.119 399.141 224.801 407.627C233.746 425.266 239.849 441.275 244.53 454.526C253.642 481.068 258.157 496.074 258.24 496.032C258.115 496.032 254.436 481.319 246.327 454.609C242.147 441.317 236.588 425.015 228.061 406.874C227.016 404.575 225.762 402.235 224.466 400.019L220.579 393.164L212.554 378.743C209.837 373.769 207.078 368.628 204.361 363.319C202.355 359.307 200.265 355.168 198.509 350.947C211.843 348.481 223.338 348.272 230.611 351.114C234.582 352.577 236.797 355.294 237.591 357.384C238.386 359.516 238.302 360.811 238.344 360.77C238.302 360.77 238.553 359.557 238.051 357.3C237.591 355.043 235.585 351.783 231.489 349.651C223.923 345.596 211.634 344.677 197.088 346.391C197.088 344.468 197.13 342.461 197.171 340.455C210.255 339.494 218.447 338.198 218.447 338.198C218.447 338.198 210.505 336.944 197.255 335.941C197.255 334.394 197.297 332.764 197.339 331.176C211.174 328.542 223.087 328.208 230.569 331.176C234.54 332.639 236.755 335.356 237.55 337.446C238.344 339.577 238.26 340.873 238.302 340.831C238.26 340.831 238.511 339.619 238.009 337.362C237.55 335.105 235.543 331.844 231.447 329.713C223.923 325.7 211.759 324.78 197.339 326.452C197.339 324.53 197.38 322.523 197.422 320.517C210.338 319.555 218.364 318.301 218.364 318.301C218.364 318.301 210.547 317.089 197.464 316.086C197.464 314.456 197.506 312.909 197.548 311.237C211.258 308.646 223.087 308.353 230.485 311.237C234.456 312.7 236.672 315.417 237.466 317.507C238.26 319.639 238.177 320.935 238.218 320.893C238.177 320.893 238.427 319.681 237.926 317.424C237.466 315.167 235.46 311.864 231.363 309.774C223.881 305.803 211.843 304.842 197.548 306.472C197.548 304.508 197.589 302.585 197.631 300.579C210.38 299.617 218.28 298.363 218.28 298.363C218.28 298.363 210.589 297.151 197.673 296.148C197.673 294.518 197.715 292.887 197.757 291.257C211.341 288.708 223.045 288.457 230.444 291.341C234.415 292.804 236.63 295.521 237.424 297.611C238.218 299.743 238.135 301.038 238.177 300.997C238.135 300.997 238.386 299.784 237.884 297.527C237.424 295.27 235.418 292.01 231.321 289.878C223.881 285.907 211.968 284.946 197.798 286.534C197.798 284.611 197.84 282.605 197.882 280.64C210.464 279.679 218.28 278.467 218.28 278.467C218.28 278.467 210.714 277.296 197.966 276.293C197.966 274.621 198.007 272.991 198.049 271.319C211.509 268.811 223.129 268.56 230.444 271.444C234.415 272.907 236.63 275.624 237.424 277.714C238.218 279.846 238.135 281.142 238.177 281.1C238.135 281.1 238.386 279.888 237.884 277.631C237.424 275.374 235.418 272.071 231.321 269.981C223.923 266.052 212.094 265.091 198.091 266.596C198.091 264.673 198.133 262.667 198.175 260.702C210.589 259.741 218.28 258.528 218.28 258.528C218.28 258.528 210.798 257.358 198.216 256.355C198.216 254.683 198.258 253.011 198.3 251.297C211.676 248.831 223.129 248.622 230.444 251.464C234.415 252.927 236.63 255.644 237.424 257.734C238.218 259.866 238.135 261.162 238.177 261.12C238.135 261.12 238.386 259.908 237.884 257.651C237.424 255.393 235.418 252.133 231.321 250.001C223.965 246.072 212.261 245.111 198.342 246.574C198.342 244.609 198.384 242.686 198.425 240.722C210.714 239.761 218.28 238.59 218.28 238.59C218.28 238.59 210.923 237.42 198.467 236.458C198.467 234.786 198.509 233.031 198.551 231.359C211.801 228.934 223.171 228.767 230.444 231.568C234.415 233.031 236.63 235.748 237.424 237.838C238.218 239.97 238.135 241.265 238.177 241.223C238.135 241.223 238.386 240.011 237.884 237.754C237.424 235.497 235.418 232.237 231.321 230.105C224.007 226.218 212.386 225.214 198.593 226.677C198.593 224.713 198.634 222.79 198.676 220.825C210.798 219.864 218.28 218.694 218.28 218.694C218.28 218.694 211.007 217.565 198.718 216.562C198.718 214.848 198.718 213.093 198.76 211.379C211.927 208.996 223.212 208.829 230.402 211.63C234.373 213.093 236.588 215.809 237.382 217.899C238.177 220.031 238.093 221.327 238.135 221.285C238.093 221.285 238.344 220.073 237.842 217.816C237.382 215.559 235.376 212.298 231.28 210.167C224.048 206.279 212.512 205.276 198.802 206.697C198.802 204.774 198.843 202.81 198.885 200.845C210.882 199.884 218.28 198.755 218.28 198.755C218.28 198.755 216.775 198.505 214.017 198.17C216.483 198.087 218.907 198.087 221.331 198.254C229.524 198.881 237.299 201.472 243.61 205.987C249.964 210.459 254.771 216.604 258.491 223.041C262.211 229.52 264.845 236.417 266.934 243.188C269.024 250.001 270.487 256.647 271.783 263.252C273.33 270.316 278.011 275.499 281.815 280.18C285.702 284.904 289.172 289.585 290.969 294.768C292.85 299.91 293.31 305.26 293.937 310.276C294.229 312.784 294.606 315.25 295.065 317.633C295.734 320.099 296.528 322.231 297.406 324.362C299.12 328.584 301.043 332.346 302.798 335.857C306.309 342.838 308.901 348.94 309.946 354.207C312.036 364.824 309.026 370.425 309.779 370.425C309.026 370.425 312.12 365.117 310.448 354.5C309.653 349.233 307.271 343.047 303.969 336.066C302.339 332.555 300.541 328.793 298.953 324.697C298.159 322.649 297.406 320.475 296.779 318.218C296.236 316.086 296.027 313.536 295.734 311.112C295.191 306.138 294.94 300.746 293.268 295.186C291.68 289.585 288.294 284.402 284.448 279.595C280.686 274.747 276.381 269.898 274.793 263.753C273.581 257.442 272.327 250.336 270.32 243.355C268.356 236.333 265.806 229.143 262.128 222.163C258.449 215.224 253.475 208.369 246.62 203.144C239.807 197.878 231.112 194.701 222.167 193.823C214.518 193.029 206.702 193.739 198.969 195.202C198.969 192.444 199.052 189.685 199.052 186.884C220.663 182.663 242.816 189.685 258.073 202.559C266.266 209.414 272.619 217.941 276.423 227.221C278.388 231.902 279.558 236.584 280.436 241.558C281.481 246.574 282.944 251.381 284.741 255.979C288.294 265.175 292.85 273.367 296.487 281.56C298.326 285.656 299.956 289.669 301.377 293.765C303.007 297.694 303.467 301.665 303.425 305.803C303.425 309.9 302.966 313.954 303.091 318.051C303.175 320.141 303.3 322.022 303.843 324.237C304.512 326.16 305.348 327.915 306.226 329.629C309.862 336.401 314.168 342.253 315.673 348.815C318.682 362.065 319.518 374.271 320.647 384.762C321.65 395.296 322.778 404.199 324.325 411.263C327.335 425.517 331.807 432.037 331.64 432.037C331.807 432.037 327.585 425.6 324.868 411.639C323.489 404.701 322.528 395.965 321.733 385.557C320.814 375.19 320.229 363.11 317.595 349.693C316.425 342.712 312.245 336.442 308.692 329.922C307.814 328.292 307.02 326.578 306.351 324.822L305.891 323.485C305.808 323.234 305.724 322.69 305.641 322.231C305.515 321.311 305.432 320.35 305.39 319.388C305.181 315.543 305.641 311.53 305.808 307.35C306.017 303.17 305.891 298.656 304.387 294.309C303.007 290.212 301.503 285.949 299.705 281.811C296.194 273.409 291.721 265.133 288.294 256.146C286.58 251.673 285.117 247.034 284.114 242.185C283.278 237.42 282.317 231.986 280.352 227.054C276.59 217.022 270.069 207.659 261.542 200.135C253.015 192.569 242.44 186.801 230.778 183.624C220.788 180.907 209.92 180.155 199.136 181.994C199.47 153.403 199.805 122.681 200.097 89.9517C201.31 90.6623 202.563 91.54 203.943 92.4178C207.12 95.5946 208.792 99.1475 215.061 96.9739C217.11 96.2634 218.698 94.8422 219.91 93.0448C221.248 91.3728 222.084 89.0739 222.418 86.5241C224.216 76.7013 220.203 63.6599 212.094 62.1551H211.091C210.714 57.9334 203.107 57.5154 194.747 58.8529C186.387 57.5154 178.821 57.9334 178.445 62.1551H177.442C169.333 63.6599 165.32 76.7013 167.118 86.5241C167.452 89.1157 168.288 91.3728 169.626 93.0448C170.838 94.8422 172.426 96.2634 174.474 96.9739C180.744 99.1475 182.416 95.5528 185.593 92.4178C186.972 91.54 188.226 90.6623 189.439 89.9517C189.731 122.722 190.065 153.403 190.4 181.994C179.657 180.155 168.79 180.907 158.8 183.624C147.138 186.801 136.604 192.569 128.035 200.135C119.466 207.659 112.987 217.022 109.226 227.054C107.261 231.986 106.3 237.462 105.464 242.185C104.46 247.034 102.997 251.673 101.284 256.146C97.8561 265.091 93.3836 273.409 89.8725 281.811C88.0751 285.991 86.5703 290.212 85.1909 294.309C83.6862 298.656 83.5608 303.17 83.7698 307.35C83.9788 311.53 84.3967 315.543 84.1877 319.388C84.1459 320.35 84.0624 321.311 83.8952 322.231C83.8116 322.69 83.7698 323.234 83.6444 323.485L83.1846 324.822C82.5158 326.578 81.6798 328.25 80.802 329.922C77.2491 336.442 73.1109 342.712 71.8987 349.693C69.2654 363.11 68.6802 375.19 67.7606 385.557C66.9246 395.923 66.005 404.659 64.6257 411.639C61.9505 425.6 57.7288 432.037 57.8542 432.037C57.687 432.037 62.1595 425.517 65.1691 411.263C66.6738 404.157 67.8024 395.254 68.8474 384.762C69.9342 374.271 70.812 362.065 73.8215 348.815C75.3263 342.253 79.6316 336.401 83.2682 329.629C84.146 327.915 84.9819 326.118 85.6507 324.237C86.1941 322.022 86.3195 320.141 86.4031 318.051C86.5285 313.954 86.1105 309.9 86.0687 305.803C86.0269 301.707 86.4449 297.694 88.1169 293.765C89.5381 289.669 91.1682 285.656 93.0074 281.56C96.644 273.409 101.2 265.175 104.753 255.979C106.509 251.381 108.013 246.574 109.058 241.558C109.894 236.584 111.107 231.902 113.071 227.221C116.917 217.941 123.27 209.414 131.421 202.559C146.678 189.685 168.831 182.663 190.442 186.884C190.442 189.685 190.525 192.444 190.525 195.202C182.792 193.739 174.976 193.029 167.327 193.823C158.34 194.701 149.687 197.878 142.874 203.144C136.019 208.369 131.045 215.182 127.366 222.163C123.688 229.143 121.138 236.333 119.174 243.355C117.167 250.294 115.913 257.4 114.701 263.753C113.113 269.898 108.849 274.747 105.046 279.595C101.242 284.444 97.8143 289.627 96.226 295.186C94.554 300.704 94.3032 306.138 93.7598 311.112C93.4672 313.578 93.2582 316.086 92.7148 318.218C92.0878 320.475 91.3354 322.607 90.5413 324.697C88.9111 328.793 87.1137 332.555 85.5253 336.066C82.2232 343.047 79.8824 349.233 79.0464 354.5C77.3745 365.117 80.5094 370.383 79.7152 370.425C80.4676 370.425 77.4581 364.824 79.548 354.207C80.593 348.94 83.1428 342.838 86.6957 335.857C88.4095 332.346 90.3323 328.584 92.0878 324.362C92.9656 322.231 93.7598 320.141 94.4286 317.633C94.8884 315.25 95.2228 312.784 95.5572 310.276C96.1842 305.218 96.6858 299.91 98.5249 294.768C100.322 289.585 103.75 284.904 107.679 280.18C111.483 275.499 116.164 270.316 117.711 263.252C119.048 256.606 120.47 249.96 122.56 243.188C124.65 236.417 127.283 229.561 131.003 223.041C134.681 216.562 139.53 210.459 145.884 205.987C152.195 201.472 159.97 198.881 168.163 198.254C170.545 198.045 173.011 198.045 175.478 198.17C172.761 198.505 171.214 198.755 171.214 198.755C171.214 198.755 178.571 199.884 190.609 200.845C190.609 202.81 190.651 204.774 190.692 206.697C176.982 205.276 165.446 206.279 158.214 210.167C154.16 212.257 152.153 215.559 151.652 217.816C151.15 220.073 151.401 221.285 151.359 221.285C151.401 221.285 151.359 220.031 152.112 217.899C152.906 215.809 155.121 213.093 159.092 211.63C166.282 208.829 177.567 208.996 190.734 211.379C190.734 213.093 190.776 214.848 190.776 216.562C178.487 217.523 171.214 218.694 171.214 218.694C171.214 218.694 178.696 219.864 190.818 220.825C190.818 222.79 190.86 224.713 190.901 226.677C177.108 225.214 165.487 226.218 158.173 230.105C154.118 232.195 152.112 235.497 151.61 237.754C151.108 240.011 151.359 241.223 151.317 241.223C151.359 241.223 151.317 239.97 152.07 237.838C152.864 235.748 155.079 233.031 159.05 231.568C166.282 228.725 177.693 228.934 190.943 231.359C190.943 233.073 190.985 234.786 191.027 236.458C178.571 237.462 171.214 238.59 171.214 238.59C171.214 238.59 178.78 239.761 191.069 240.722C191.069 242.686 191.11 244.651 191.152 246.574C177.233 245.069 165.529 246.072 158.173 250.001C154.118 252.091 152.112 255.393 151.61 257.651C151.108 259.908 151.359 261.12 151.317 261.12C151.359 261.12 151.317 259.866 152.07 257.734C152.864 255.644 155.079 252.927 159.05 251.464C166.323 248.622 177.818 248.831 191.194 251.297C191.194 252.969 191.236 254.683 191.278 256.355C178.696 257.358 171.214 258.528 171.214 258.528C171.214 258.528 178.905 259.699 191.319 260.702C191.319 262.667 191.361 264.631 191.403 266.596C177.358 265.049 165.529 266.052 158.173 269.981C154.118 272.071 152.112 275.374 151.61 277.631C151.108 279.888 151.359 281.1 151.317 281.1C151.359 281.1 151.317 279.846 152.07 277.714C152.864 275.624 155.079 272.907 159.05 271.444C166.365 268.602 177.985 268.811 191.445 271.319C191.445 272.991 191.487 274.621 191.528 276.293C178.78 277.296 171.214 278.467 171.214 278.467C171.214 278.467 179.03 279.679 191.612 280.64C191.612 282.605 191.654 284.611 191.696 286.534C177.567 284.946 165.613 285.907 158.173 289.878C154.118 291.968 152.112 295.27 151.61 297.527C151.108 299.784 151.359 300.997 151.317 300.997C151.359 300.997 151.317 299.743 152.07 297.611C152.864 295.521 155.079 292.804 159.05 291.341C166.449 288.457 178.111 288.708 191.737 291.257C191.737 292.887 191.779 294.559 191.821 296.148C178.905 297.151 171.214 298.363 171.214 298.363C171.214 298.363 179.156 299.575 191.863 300.579C191.863 302.585 191.905 304.508 191.946 306.472C177.693 304.842 165.613 305.803 158.131 309.774C154.076 311.864 152.07 315.167 151.568 317.424C151.067 319.681 151.317 320.893 151.276 320.893C151.317 320.893 151.276 319.639 152.028 317.507C152.822 315.417 155.038 312.7 159.009 311.237C166.449 308.353 178.236 308.604 191.946 311.237C191.946 312.868 191.988 314.456 192.03 316.086C178.947 317.089 171.13 318.301 171.13 318.301C171.13 318.301 179.156 319.555 192.072 320.517C192.072 322.481 192.114 324.488 192.155 326.452C177.776 324.78 165.613 325.7 158.047 329.713C153.993 331.803 151.986 335.105 151.485 337.362C150.983 339.619 151.234 340.831 151.192 340.831C151.234 340.831 151.192 339.577 151.944 337.446C152.739 335.356 154.954 332.639 158.925 331.176C166.407 328.25 178.32 328.584 192.155 331.176C192.155 332.764 192.197 334.394 192.239 335.941C178.989 336.944 171.047 338.198 171.047 338.198C171.047 338.198 179.198 339.452 192.323 340.455C192.323 342.461 192.364 344.468 192.406 346.391C177.86 344.677 165.613 345.596 158.005 349.651C153.951 351.741 151.944 355.043 151.443 357.3C150.941 359.557 151.192 360.77 151.15 360.77C151.192 360.77 151.15 359.516 151.903 357.384C152.697 355.294 154.912 352.577 158.883 351.114C166.156 348.272 177.651 348.481 190.985 350.947C189.23 355.168 187.14 359.307 185.133 363.319C182.416 368.628 179.657 373.769 176.94 378.743L168.915 393.164L165.028 400.019C163.732 402.235 162.436 404.575 161.433 406.874C152.906 425.057 147.347 441.317 143.167 454.609C135.058 481.319 131.379 496.032 131.254 496.032C131.379 496.074 135.852 481.068 144.964 454.526C149.646 441.317 155.748 425.266 164.693 407.627C169.375 399.141 175.227 390.029 180.744 380.29C183.545 375.399 186.429 370.383 189.229 365.117C190.316 363.027 191.445 360.895 192.532 358.763C192.532 361.313 192.615 363.737 192.657 366.162L191.821 365.786C191.445 366.538 191.361 367.416 191.445 368.293C191.528 368.92 191.696 369.464 191.821 369.965C191.737 370.174 191.696 370.342 191.57 370.551C190.901 371.972 190.065 373.351 189.229 374.772C187.516 377.573 185.677 380.29 183.796 383.007L178.153 391.2C176.397 394.125 174.767 397.01 173.304 399.894C167.327 411.514 162.812 423.343 158.214 434.587C155.915 440.23 153.575 445.664 151.108 451.098C148.768 456.616 146.678 462.091 144.797 467.567C141.035 478.477 138.151 489.303 135.935 499.836C131.546 520.945 130 541.008 130.627 559.358C130.961 568.512 131.797 577.29 133.135 585.525C134.431 593.759 135.935 601.492 136.939 608.891C137.942 616.247 138.318 623.269 137.858 629.832C137.524 636.436 136.061 642.372 134.89 648.015C132.759 659.384 133.595 669.291 135.058 676.94C136.521 684.631 138.318 690.316 139.446 694.161L141.202 699.929L139.488 693.994C138.443 690.065 136.73 684.171 135.434 676.355C134.138 668.538 133.595 658.548 136.103 647.221C137.44 641.619 138.945 635.391 139.279 628.662C139.739 621.932 139.363 614.742 138.443 607.219C137.524 599.695 136.103 591.878 134.974 583.602C133.804 575.367 133.177 566.673 133.051 557.561C132.842 539.378 134.807 519.565 139.488 498.875C141.829 488.55 144.88 478.017 148.726 467.4C150.649 462.091 152.78 456.741 155.163 451.474C157.671 446.166 160.054 440.648 162.394 435.089C167.076 423.97 171.674 412.475 177.567 401.399C179.03 398.64 180.619 395.839 182.249 393.331L187.85 385.431C188.895 383.926 189.94 382.338 190.985 380.75C191.278 382.923 191.612 385.055 191.988 387.229C190.191 397.887 187.432 408.212 184.214 418.16C179.616 432.246 174.307 445.706 169.417 458.956C164.526 472.207 160.054 485.206 156.919 498.206C153.7 511.205 152.404 524.08 151.108 536.369C148.726 561.072 148.224 584.103 148.642 605.254C149.646 626.446 152.864 645.423 152.822 662.644C152.906 671.255 152.153 679.281 150.941 686.846L147.806 707.997C145.8 721.08 143.919 732.115 142.247 740.976C138.903 758.699 136.437 767.812 136.479 767.812C136.479 767.812 139.196 758.49 142.874 740.433C144.713 731.404 146.803 720.244 149.019 706.994L152.488 685.592C153.825 677.985 154.536 669.667 154.494 660.931C154.62 643.417 151.485 624.189 151.025 603.164C151.025 582.097 151.777 559.149 154.536 534.78C155.999 522.575 157.504 509.993 160.89 497.412C164.192 484.788 168.706 472.123 173.68 459.123C178.612 446.124 184.005 432.832 188.686 418.787C190.358 413.771 191.905 408.672 193.284 403.489C193.66 423.719 195.249 423.719 195.583 403.489H196.21Z" fill="#8564AD"/>
<rect width="390" height="868" fill="#1C2325" fill-opacity="0.85"/>
</g>
<defs>
<clipPath id="clip0_1749_1111">
<rect width="390" height="868" rx="20" fill="white"/>
</clipPath>
</defs>
</svg>
