<svg width="390" height="868" viewBox="0 0 390 868" fill="none" xmlns="http://www.w3.org/2000/svg">
<g clip-path="url(#clip0_1749_1138)">
<rect width="390" height="868" rx="20" fill="white"/>
<path d="M339.542 424.8C336.659 414.77 335.698 409.254 335.113 403.32C335.531 403.362 325.922 380.587 325.587 375.531C324.585 343.437 318.276 315.94 315.811 302.401C312.928 286.145 311.883 271.268 303.987 256.684C300.602 250.374 293.834 240.01 291.954 233.24C290.199 226.847 290.491 215.606 288.569 208.293C285.812 198.054 277.497 186.27 266.175 183.094C264.378 182.551 262.08 182.049 259.824 181.548C259.74 181.673 259.698 181.799 259.615 181.924C257.902 181.673 255.98 181.506 254.183 181.506C253.139 181.506 251.927 181.631 250.716 181.757C239.309 173.691 220.967 170.014 217.959 170.307C213.154 168.175 215.41 150.917 215.661 145.944C216.413 145.61 217.708 143.98 220.758 135.915C221.134 134.828 221.719 133.7 222.095 132.446C222.095 132.404 222.179 132.279 222.221 132.112C222.43 131.443 222.639 130.775 223.015 130.064C223.265 129.27 223.516 126.22 223.767 123.921C223.767 123.838 223.767 123.754 223.808 123.712C224.143 124.757 225.062 125.467 225.689 125.426C225.898 125.426 226.232 125.342 226.357 125.175C228.07 123.044 231.747 116.525 232.708 113.683C234.337 108.042 232.583 101.606 229.491 102.149C228.655 102.275 227.987 102.776 227.067 103.737C227.235 96.5078 225.814 100.269 227.318 95.7139C227.318 95.6721 227.318 95.5467 227.36 95.5049C228.655 92.5379 229.532 89.5291 229.908 86.7293C230.619 82.3415 230.41 78.7895 229.7 75.7389C229.7 75.6135 229.616 75.4882 229.574 75.4046C225.145 57.6862 210.647 52.5462 201.915 51.8776C200.912 51.6686 199.743 51.5015 198.614 51.3761C198.113 51.1672 197.319 51.0836 196.316 51C196.316 51 196.108 51 195.982 51C195.69 51 195.314 51 195.063 51C194.687 51 194.436 51 194.144 51C193.935 51 193.81 51 193.726 51C192.807 51.0836 192.013 51.1672 191.428 51.4179C190.384 51.5433 189.255 51.7104 188.127 51.9194C179.479 52.588 164.981 57.728 160.552 75.4464C160.552 75.5717 160.468 75.6553 160.468 75.7807C159.674 78.8312 159.465 82.3415 160.259 86.7711C160.635 89.5709 161.429 92.5797 162.724 95.5467C162.724 95.5885 162.724 95.7139 162.766 95.7557C164.27 100.311 162.85 96.5496 162.975 103.779C162.139 102.818 161.346 102.316 160.635 102.191C157.502 101.648 155.747 108.083 157.418 113.725C158.212 116.608 162.014 123.085 163.727 125.217C163.852 125.384 164.145 125.467 164.312 125.467C165.022 125.467 165.858 124.799 166.192 123.754C166.192 123.838 166.192 123.921 166.192 123.963C166.526 126.22 166.777 129.27 167.111 130.106C167.32 130.816 167.529 131.485 167.738 132.154C167.863 132.279 167.905 132.404 167.905 132.488C168.323 133.783 168.783 134.912 169.2 135.956C172.25 143.98 173.546 145.61 174.381 145.986C174.632 150.958 176.763 168.217 171.958 170.348C168.95 170.056 150.691 173.733 139.202 181.798C138.032 181.631 136.82 181.548 135.734 181.548C133.895 181.548 132.057 181.715 130.344 181.966C130.26 181.84 130.219 181.715 130.135 181.59C127.754 182.091 125.581 182.592 123.784 183.136C112.462 186.312 104.064 198.138 101.39 208.334C99.3841 215.647 99.6766 226.93 97.88 233.282C96.0417 240.052 89.3149 250.415 85.9306 256.726C77.9922 271.31 76.9059 286.228 74.023 302.442C71.5997 316.024 65.3325 343.521 64.2462 375.573C63.9955 380.587 54.3441 403.404 54.7201 403.362C54.2187 409.254 53.1324 414.77 50.2495 424.841C47.7426 433.742 49.205 447.783 52.8817 455.18C55.1797 459.735 55.7646 464.373 61.5722 463.872C61.8229 463.872 61.7811 464.039 61.614 464.123C62.2825 466.672 62.2825 466.714 62.2825 466.714C68.9257 468.845 66.2517 460.571 66.0846 454.971C65.9174 448.661 67.3797 437.963 70.9311 432.53C75.4435 437.169 67.7558 454.177 77.6161 455.89C77.9086 455.932 77.6162 455.89 77.9086 455.932C79.5381 454.553 77.4491 445.067 80.123 434.202C82.0032 426.304 77.6997 419.869 76.9476 412.012C76.4463 406.83 77.073 401.69 78.41 396.55C80.3737 388.402 84.0087 380.378 87.2676 372.814C87.3929 372.522 87.5183 372.229 87.6436 371.853C87.9361 371.394 88.145 370.809 88.3121 370.265C88.7717 369.262 89.1895 368.26 89.6073 367.173C95.4149 352.631 92.8245 335.079 99.1752 322.501C101.39 318.071 121.361 273.19 125.539 267.716C129.341 262.785 132.517 258.272 135.149 253.884C135.149 261.155 134.856 283.22 133.561 282.509C135.107 289.279 133.645 300.687 134.898 305.744C136.569 312.388 139.411 318.782 140.58 325.719C142.669 337.628 142.795 357.478 143.129 357.938C143.004 358.857 142.878 359.735 142.711 360.696C140.288 374.402 124.62 404.908 122.03 506.538C122.03 508.043 122.03 506.538 121.862 508.043C119.773 524.507 118.395 535.623 122.197 550.709C125.957 565.46 125.372 577.955 125.539 593.835C125.539 594.545 125.539 595.214 125.539 595.924C125.539 596.426 125.539 596.843 125.539 597.387C125.539 597.763 125.539 598.139 125.497 598.473C125.497 599.225 125.414 599.936 125.372 600.688C124.119 616.066 118.812 629.982 117.601 645.694C117.475 648.118 117.35 650.291 117.308 652.255C117.016 654.052 116.849 655.891 116.723 657.521C115.553 674.403 117.392 680.421 119.648 695.883C121.904 711.01 126.625 739.385 129.299 754.805C129.801 757.479 129.968 760.613 129.884 763.914C127.586 773.609 124.495 782.552 119.899 793.835C116.89 801.106 108.743 807.417 108.534 810.258C108.033 816.318 122.865 816.359 127.712 816.777C133.812 817.153 141.165 817.153 146.597 814.353C153.783 810.551 156.791 803.154 154.702 795.298C156.541 793.125 158.672 789.113 155.705 776.284C154.034 768.887 157.752 773.15 155.956 765.67C147.767 732.824 164.27 698.641 165.44 663.538C165.858 659.234 166.276 654.804 166.359 650.333C166.485 642.101 165.148 622.543 164.354 614.604C164.354 614.019 164.27 613.517 164.27 613.057C165.482 606.079 167.446 599.267 168.657 593.751C172.292 576.325 172.543 559.192 176.094 543.103C183.155 511.553 194.979 463.579 193.141 445.986C193.266 446.07 193.434 446.112 193.559 446.195V446.446C193.559 446.446 193.768 446.446 193.977 446.446C194.186 446.488 194.394 446.53 194.729 446.53C194.771 446.53 194.854 446.53 194.854 446.53C194.896 446.53 194.938 446.53 194.979 446.53C195.188 446.53 195.523 446.53 195.732 446.446C195.857 446.446 195.94 446.446 196.066 446.446V446.195C196.316 446.154 196.442 446.07 196.567 445.986C194.771 463.579 206.469 511.553 213.614 543.103C217.123 559.192 217.374 576.325 220.967 593.751C222.179 599.267 224.143 606.079 225.396 613.057C225.396 613.475 225.313 614.019 225.271 614.604C224.644 622.543 223.224 642.101 223.391 650.333C223.474 654.763 223.767 659.234 224.393 663.538C225.396 698.641 241.983 732.866 233.92 765.67C231.956 773.15 235.758 768.887 234.087 776.284C231.078 789.113 233.167 793.083 235.006 795.298C233.042 803.154 236.05 810.551 243.111 814.353C248.626 817.153 256.105 817.195 262.038 816.777C266.843 816.401 281.801 816.359 281.216 810.258C281.049 807.417 272.818 801.106 269.893 793.835C265.297 782.552 262.164 773.609 259.949 763.914C259.907 760.613 259.991 757.479 260.451 754.805C263.208 739.343 267.971 711.01 270.102 695.883C272.442 680.421 274.322 674.361 273.027 657.521C272.901 655.849 272.734 654.052 272.567 652.255C272.525 650.291 272.4 648.076 272.275 645.694C271.105 629.982 265.757 616.066 264.503 600.688C264.461 599.936 264.42 599.184 264.378 598.473C264.378 598.139 264.378 597.721 264.336 597.387C264.336 596.885 264.336 596.467 264.336 595.924C264.336 595.255 264.336 594.545 264.336 593.835C264.545 577.955 263.877 565.502 267.679 550.709C271.439 535.623 269.977 524.507 268.013 508.043C267.804 506.538 267.846 508.043 267.804 506.538C265.13 404.95 249.462 374.444 247.122 360.696C246.997 359.735 246.83 358.857 246.705 357.938C246.997 357.436 247.122 337.587 249.17 325.719C250.381 318.782 253.264 312.388 254.935 305.744C256.231 300.687 254.726 289.237 256.272 282.509C254.977 283.22 254.685 261.155 254.685 253.884C257.192 258.272 260.367 262.785 264.294 267.716C268.347 273.149 288.444 318.071 290.575 322.501C296.925 335.121 294.419 352.672 300.143 367.173C300.644 368.26 301.062 369.262 301.438 370.265C301.647 370.809 301.856 371.394 302.232 371.853C302.357 372.229 302.482 372.522 302.608 372.814C305.825 380.378 309.376 388.402 311.382 396.55C312.677 401.69 313.429 406.83 312.802 412.012C312.134 419.869 307.747 426.304 309.669 434.202C312.384 445.067 310.337 454.595 311.967 455.932C312.301 455.932 311.967 455.932 312.259 455.89C322.036 454.135 314.348 437.127 318.861 432.53C322.412 437.963 323.874 448.661 323.707 454.971C323.582 460.571 320.908 468.845 327.593 466.714C327.593 466.714 327.593 466.714 328.178 464.123C328.136 464.039 328.094 463.83 328.22 463.872C334.069 464.415 334.57 459.777 336.952 455.18C340.629 447.783 342.091 433.701 339.501 424.841L339.542 424.8Z" fill="#E8D4B5"/>
<path d="M183.24 230.817C184.577 230.817 185.747 230.065 186.081 229.187C186.29 228.686 186.54 228.184 186.833 227.683C187.501 226.513 188.337 225.301 189.256 224.173C191.053 221.874 193.1 219.701 195.231 217.654C199.493 213.6 204.13 209.797 208.977 207.123C214.241 204.365 219.213 201.941 224.645 200.604C229.993 199.225 235.466 198.891 240.689 199.852C251.259 201.649 259.992 208.586 266.468 216.525C273.027 224.549 277.958 233.533 281.175 242.727C287.651 261.239 289.071 279.961 293.124 296.592C297.261 313.308 303.193 327.767 307.622 341.097C312.218 354.344 315.686 366.338 317.692 376.952C318.694 382.259 319.405 387.232 320.324 391.703C321.118 396.217 321.828 400.312 322.58 403.948C324.042 411.219 325.964 416.651 327.928 419.953C328.513 420.914 329.056 421.708 329.557 422.335C330.56 423.588 330.602 423.588 329.641 422.335C329.181 421.708 328.638 420.956 328.095 419.994C326.215 416.777 324.46 411.469 323.123 404.324C322.455 400.772 321.828 396.718 321.118 392.288L319.948 385.31C319.655 382.886 319.279 380.337 318.82 377.704C317.065 367.132 313.889 355.138 309.586 341.85C305.408 328.561 299.809 314.018 295.798 297.595C291.913 281.131 290.826 262.451 284.684 243.103C281.634 233.45 276.746 223.922 270.103 215.272C263.543 206.705 254.31 198.64 242.402 196.049C236.553 194.753 230.285 194.921 224.352 196.258C218.419 197.553 212.612 200.144 207.347 202.902C201.623 205.869 196.777 209.756 192.097 214.06C189.799 216.233 187.543 218.531 185.454 221.08C184.41 222.376 183.449 223.713 182.529 225.217C182.07 226.053 181.568 226.889 181.192 227.934C180.607 229.48 181.694 230.859 183.031 230.859L183.24 230.817Z" fill="#4675B8"/>
<path d="M291.87 281.172C290.533 281.256 289.906 287.274 292.914 293.793C294.878 298.055 297.301 301.732 299.516 304.992C303.736 311.093 307.454 316.149 309.961 320.621C311.507 323.337 312.635 325.761 313.471 327.85C315.1 331.987 315.518 331.904 314.348 327.641C313.763 325.51 312.886 322.961 311.591 320.078C309.501 315.314 306.159 309.798 302.44 303.488C300.56 300.228 298.555 296.634 297.009 292.748C294.544 286.563 293.249 281.131 291.912 281.214L291.87 281.172Z" fill="#4675B8"/>
<path d="M222.974 197.678C222.598 196.383 219.172 196.675 215.286 196.09C212.905 195.714 210.816 194.628 209.312 192.622C206.387 188.903 205.175 183.596 204.465 178.665C203.796 173.608 203.629 168.593 203.587 163.704C203.587 161.239 203.42 158.773 203.671 156.6C203.88 154.344 204.298 152.087 204.799 149.83C206.805 140.929 209.353 132.613 211.192 124.883C213.072 117.11 214.367 109.88 214.785 103.278C215.203 96.6752 214.701 90.7412 213.281 85.8102C211.86 80.8791 209.562 77.0763 207.306 74.4437C205.927 72.8975 204.632 71.6856 203.504 70.7662C201.248 68.8858 201.122 68.9693 203.253 70.8498C204.298 71.811 205.509 73.0228 206.805 74.569C208.894 77.1599 210.983 80.8791 212.194 85.643C213.448 90.4069 213.782 96.132 213.155 102.526C212.57 108.919 211.066 115.94 208.977 123.545C206.93 131.151 204.131 139.3 201.749 148.41C201.164 150.708 200.621 153.048 200.287 155.514C200.12 156.767 199.994 158.063 199.953 159.358V163.036C199.827 168.008 199.785 173.232 200.329 178.665C200.997 184.014 201.833 189.864 205.551 195.129C207.39 197.72 210.44 199.935 213.824 200.604C215.495 200.98 217.125 201.021 218.754 200.896C221.47 200.687 223.308 198.932 222.932 197.637L222.974 197.678Z" fill="#4675B8"/>
<path d="M205.759 242.769C204.422 242.936 203.878 247.741 206.218 252.881C207.722 256.141 209.602 298.891 211.399 301.482C213.112 304.031 214.783 306.496 216.204 308.92C217.583 311.386 218.878 313.893 220.048 316.317C224.769 326.012 227.443 334.996 229.198 342.476C230.201 346.989 230.994 350.918 231.579 354.219C232.791 360.738 233.209 360.738 232.499 354.219C232.122 350.959 231.621 347.031 230.911 342.476C229.657 334.913 227.527 325.594 223.181 315.355C222.095 312.806 220.925 310.215 219.588 307.499C218.209 304.783 216.58 302.192 214.95 299.518C213.279 296.843 211.691 254.386 210.48 251.502C208.433 246.738 207.012 242.601 205.675 242.769H205.759Z" fill="#4675B8"/>
<path d="M202.374 252.38C201.037 252.212 200.076 271.393 200.787 277.536C201.246 281.381 202.04 324.799 203.126 328.268C205.215 334.996 208.057 340.888 210.856 346.279C216.58 356.977 221.886 365.836 225.187 373.65C227.234 378.372 228.529 382.551 229.407 386.145C231.078 393.249 231.078 397.679 231.12 395.84C231.12 394.921 231.12 393.792 231.036 392.455C230.827 388.026 229.824 381.465 226.9 373.441C224.1 365.376 219.212 356.099 213.989 345.276C211.357 339.676 208.641 333.366 206.887 326.596C204.171 315.856 203.711 252.588 202.374 252.463V252.38Z" fill="#4675B8"/>
<path d="M195.148 230.817C193.811 230.817 192.6 248.619 193.101 270.6C193.561 290.993 194.605 350.5 196.987 369.555C198.992 385.101 201.499 400.27 206.053 414.478C210.524 428.686 216.373 441.808 222.139 454.386C227.905 466.965 233.545 479 238.141 490.951C242.737 502.861 246.205 514.687 248.043 526.305C250.007 537.922 250.09 549.205 249.38 559.986C248.795 570.768 247.834 581.048 247.249 590.784C246.664 600.563 246.581 609.84 247.249 618.532C247.834 627.224 249.422 635.248 250.926 642.602C253.684 657.395 253.809 670.225 253.6 680.505C253.391 686.606 253.141 691.871 252.932 696.259C252.514 704.951 252.597 705.118 253.14 696.635C253.391 692.373 253.725 687.233 254.018 681.257C254.394 671.144 254.519 658.524 252.138 643.772C250.801 636.418 249.255 628.645 248.67 620.078C248.001 611.553 248.127 602.443 248.754 592.832C249.38 583.179 250.467 573.024 251.26 562.243C252.096 551.503 252.43 540.011 250.759 528.185C249.171 516.359 245.954 504.24 241.525 492.08C237.138 479.919 231.581 467.675 225.941 455.013C220.301 442.351 214.493 429.229 210.064 415.188C205.552 401.189 203.087 386.104 201.165 370.516C198.867 351.294 199.034 277.286 198.741 256.475C198.407 234.536 196.443 230.859 195.106 230.859L195.148 230.817Z" fill="#4675B8"/>
<path d="M216.372 440.261C215.035 440.428 214.659 445.777 216.037 452.129C216.915 456.099 217.876 459.902 218.67 463.621C220.257 470.809 221.594 477.453 221.427 483.847C221.344 496.718 219.631 508.001 219.923 517.32C220.007 526.638 221.761 533.826 223.6 538.339C224.143 539.676 224.644 540.805 225.104 541.766C226.023 543.605 226.148 543.605 225.355 541.766C224.979 540.847 224.519 539.718 224.101 538.381C222.555 533.868 221.218 526.889 221.553 517.821C221.72 508.711 223.892 497.762 224.644 484.474C225.146 477.37 223.976 469.931 222.514 462.2C220.216 450.04 217.625 440.219 216.288 440.345L216.372 440.261Z" fill="#4675B8"/>
<path d="M248.167 584.725C246.83 584.934 247.081 592.373 249.504 601.106C251.092 606.748 252.722 611.971 254.184 616.861C256.983 626.054 259.198 633.994 260.493 640.638C261.287 644.65 261.83 648.119 262.122 651.086C262.749 656.894 263.209 656.936 263 651.169C262.916 648.244 262.666 644.776 262.164 640.722C261.329 633.994 259.657 625.803 257.359 616.359C256.189 611.386 254.811 606.079 253.515 600.438C251.51 591.62 249.421 584.516 248.084 584.725H248.167Z" fill="#4675B8"/>
<path d="M250.802 643.062C249.507 643.355 249.966 649.665 249.716 657.229C249.548 661.867 248.88 666.422 248.002 670.81C247.167 675.156 246.206 679.418 245.328 683.555C244.911 685.645 244.493 687.692 244.159 689.74L243.908 691.286C243.908 691.286 243.824 691.871 243.783 692.164V692.916L243.532 695.967C242.822 712.014 244.702 725.72 245.872 736.836C246.707 743.522 247.25 749.331 247.585 754.178C248.253 763.79 248.713 763.915 248.504 754.387C248.378 749.581 248.128 743.856 247.585 737.212C246.916 726.138 245.579 712.473 246.749 696.761C246.958 694.838 247 692.749 247.418 690.91C247.794 688.904 248.253 686.899 248.755 684.851L251.888 671.98C252.933 667.383 253.852 662.452 254.144 657.27C254.646 649.038 252.055 642.686 250.76 643.02L250.802 643.062Z" fill="#4675B8"/>
<path d="M207.099 204.323C207.349 205.661 211.611 205.744 216.708 205.577C219.884 205.452 222.976 205.661 225.9 206.204C231.624 207.249 236.763 209.547 241.109 212.472C249.799 218.406 255.398 226.095 259.492 232.405C263.587 238.799 266.219 244.19 268.016 247.784C268.016 247.784 268.601 249.037 269.353 250.583C270.063 252.13 270.188 252.13 269.603 250.583L268.517 247.742C267.013 244.064 264.799 238.59 261.122 231.862C257.403 225.259 252.264 217.027 243.323 210.09C238.852 206.705 233.337 203.78 226.987 202.318C223.728 201.524 220.302 201.147 216.792 201.106C211.11 201.064 206.765 203.028 207.015 204.365L207.099 204.323Z" fill="#4675B8"/>
<path d="M207.387 231.485C206.05 231.485 204.88 230.733 204.546 229.855C204.337 229.354 204.086 228.852 203.793 228.351C203.125 227.181 202.289 225.969 201.37 224.84C199.574 222.542 197.526 220.369 195.395 218.321C191.134 214.268 186.496 210.465 181.649 207.791C176.385 205.033 171.413 202.609 165.981 201.272C160.633 199.893 155.16 199.558 149.937 200.519C139.367 202.316 130.635 209.253 124.159 217.193C117.599 225.217 112.669 234.201 109.452 243.395C102.975 261.907 101.555 280.628 97.5021 297.26C93.3658 313.976 87.4329 328.435 83.004 341.765C78.4081 355.012 74.9403 367.006 72.9348 377.62C71.9321 382.927 71.2218 387.9 70.3026 392.371C69.5088 396.884 68.7985 400.98 68.0464 404.615C66.5841 411.887 64.6622 417.319 62.6985 420.62C62.1135 421.582 61.5703 422.375 61.0689 423.002C60.0662 424.256 60.0245 424.256 60.9854 423.002C61.445 422.375 61.9882 421.623 62.5313 420.662C64.4115 417.444 66.1663 412.137 67.5033 404.991C68.1718 401.439 68.7985 397.386 69.5088 392.956L70.6786 385.978C70.9711 383.554 71.3471 381.005 71.8067 378.33C73.5615 367.758 76.7369 355.764 81.0404 342.476C85.2185 329.187 90.8171 314.644 94.8281 298.221C98.7138 281.757 99.8001 263.077 105.942 243.729C108.992 234.076 113.88 224.548 120.524 215.898C127.125 207.331 136.317 199.266 148.224 196.675C154.074 195.379 160.341 195.547 166.274 196.884C172.207 198.179 178.014 200.77 183.279 203.528C189.003 206.495 193.85 210.382 198.529 214.686C200.827 216.859 203.083 219.157 205.172 221.706C206.217 223.002 207.219 224.339 208.097 225.843C208.556 226.679 209.058 227.515 209.434 228.56C210.019 230.106 208.933 231.485 207.596 231.485H207.387Z" fill="#A32430"/>
<path d="M98.7153 281.84C100.052 281.924 100.679 287.941 97.6707 294.461C95.707 298.723 93.2419 302.4 91.0693 305.66C86.8494 311.761 83.1309 316.817 80.624 321.289C79.0781 324.005 77.95 326.429 77.1144 328.518C75.4849 332.655 75.0671 332.572 76.237 328.309C76.8219 326.178 77.6993 323.629 78.9945 320.746C81.0836 315.982 84.4261 310.466 88.1446 304.155C90.0248 300.896 92.0303 297.302 93.5762 293.416C96.0413 287.231 97.3364 281.799 98.6734 281.882L98.7153 281.84Z" fill="#A32430"/>
<path d="M167.651 198.346C168.027 197.051 171.453 197.343 175.338 196.758C177.72 196.382 179.809 195.296 181.313 193.29C184.238 189.571 185.449 184.264 186.16 179.333C186.828 174.276 186.995 169.261 187.037 164.372C187.037 161.907 187.204 159.441 186.953 157.268C186.745 155.012 186.327 152.755 185.825 150.498C183.82 141.597 181.271 133.281 179.433 125.551C177.553 117.778 176.257 110.548 175.84 103.946C175.422 97.3432 175.923 91.4092 177.344 86.4781C178.764 81.5471 181.062 77.7443 183.318 75.1116C184.697 73.5654 185.992 72.3536 187.121 71.4342C189.377 69.5537 189.502 69.6373 187.371 71.5178C186.327 72.4789 185.115 73.6908 183.82 75.237C181.731 77.8279 179.642 81.5471 178.43 86.311C177.177 91.0749 176.842 96.7999 177.469 103.194C178.054 109.587 179.558 116.608 181.647 124.213C183.694 131.861 186.494 139.968 188.875 149.078C189.46 151.376 190.003 153.716 190.338 156.182C190.505 157.435 190.63 158.731 190.672 160.026V163.704C190.797 168.676 190.839 173.9 190.296 179.333C189.627 184.681 188.792 190.532 185.073 195.797C183.235 198.388 180.185 200.603 176.801 201.272C175.129 201.648 173.5 201.689 171.87 201.564C169.155 201.355 167.316 199.6 167.692 198.305L167.651 198.346Z" fill="#A32430"/>
<path d="M184.865 243.437C186.202 243.604 186.745 248.409 184.405 253.549C182.901 256.809 181.021 299.559 179.224 302.15C177.511 304.699 175.84 307.164 174.42 309.588C173.041 312.054 171.746 314.561 170.576 316.985C165.854 326.68 163.18 335.664 161.426 343.144C160.423 347.657 159.629 351.586 159.044 354.887C157.833 361.406 157.415 361.406 158.125 354.887C158.501 351.627 159.002 347.699 159.713 343.144C160.966 335.581 163.097 326.262 167.442 316.023C168.528 313.474 169.698 310.883 171.035 308.167C172.414 305.451 174.044 302.86 175.673 300.186C177.344 297.511 178.932 255.054 180.144 252.17C182.191 247.406 183.611 243.269 184.948 243.437H184.865Z" fill="#A32430"/>
<path d="M188.751 247.156C190.088 246.988 190.547 272.062 189.837 278.205C189.419 282.049 188.918 286.729 188.751 292.246C188.5 301.063 188.04 333.073 179.768 346.905C174.044 357.603 168.738 366.462 165.437 374.277C163.39 378.999 162.094 383.178 161.217 386.772C159.546 393.876 159.546 398.305 159.504 396.467C159.504 395.547 159.504 394.419 159.587 393.082C159.796 388.652 160.799 382.091 163.724 374.068C166.523 366.003 171.411 356.725 176.634 345.902C179.266 340.303 181.982 333.992 183.737 327.223C186.453 316.483 187.414 247.323 188.751 247.197V247.156Z" fill="#A32430"/>
<path d="M195.477 231.485C196.814 231.485 196.898 248.827 196.397 270.766C195.937 291.159 195.979 351.168 193.639 370.182C191.634 385.727 189.127 400.896 184.573 415.105C180.102 429.313 174.253 442.434 168.487 455.013C162.721 467.591 157.08 479.626 152.485 491.578C147.889 503.488 144.421 515.314 142.582 526.931C140.619 538.548 140.535 549.831 141.245 560.613C141.83 571.394 142.791 581.674 143.376 591.411C143.961 601.189 144.045 610.466 143.376 619.159C142.791 627.851 141.204 635.874 139.7 643.229C136.942 658.022 136.817 670.851 137.026 681.131C137.234 687.232 137.485 692.498 137.694 696.885C138.112 705.578 138.028 705.745 137.485 697.262C137.193 692.999 136.9 687.859 136.608 681.883C136.232 671.77 136.106 659.15 138.488 644.399C139.825 637.044 141.371 629.271 141.956 620.705C142.624 612.18 142.499 603.07 141.83 593.459C141.204 583.805 140.117 573.651 139.323 562.869C138.488 552.13 138.154 540.638 139.825 528.811C141.413 516.985 144.63 504.867 149.059 492.706C153.446 480.546 159.002 468.301 164.643 455.64C170.283 442.978 176.091 429.856 180.52 415.815C185.032 401.816 187.497 386.73 189.419 371.143C191.717 351.92 192.636 292.037 192.97 271.226C193.305 249.287 194.182 231.443 195.519 231.443L195.477 231.485Z" fill="#A32430"/>
<path d="M174.255 440.929C175.592 441.096 175.968 446.445 174.589 452.797C173.712 456.767 172.751 460.57 171.957 464.289C170.369 471.477 169.032 478.121 169.199 484.515C169.283 497.386 170.996 508.669 170.703 517.987C170.62 527.306 168.865 534.494 167.027 539.007C166.483 540.344 165.982 541.473 165.523 542.434C164.603 544.273 164.478 544.273 165.272 542.434C165.648 541.515 166.107 540.386 166.525 539.049C168.071 534.536 169.408 527.557 169.074 518.489C168.907 509.379 166.734 498.43 165.982 485.142C165.481 478.038 166.651 470.599 168.113 462.868C170.453 450.708 173.001 440.887 174.338 441.013L174.255 440.929Z" fill="#A32430"/>
<path d="M142.46 585.393C143.797 585.602 143.546 593.041 141.123 601.774C139.535 607.416 137.905 612.639 136.443 617.529C133.644 626.722 131.429 634.662 130.134 641.306C129.34 645.318 128.797 648.787 128.505 651.754C127.878 657.562 127.418 657.604 127.627 651.837C127.711 648.912 127.961 645.443 128.463 641.39C129.298 634.662 130.97 626.471 133.268 617.027C134.438 612.054 135.816 606.747 137.112 601.106C139.117 592.288 141.206 585.184 142.543 585.393H142.46Z" fill="#A32430"/>
<path d="M139.826 643.688C141.122 643.981 140.662 650.291 140.913 657.855C141.08 662.493 141.748 667.048 142.584 671.436C143.42 675.782 144.381 680.044 145.258 684.181C145.676 686.271 146.094 688.319 146.428 690.366L146.679 691.912C146.679 691.912 146.804 692.497 146.804 692.79V693.542L147.055 696.593C147.765 712.64 145.885 726.346 144.715 737.462C143.879 744.148 143.336 749.957 143.002 754.804C142.333 764.416 141.874 764.541 142.083 755.055C142.208 750.249 142.459 744.524 143.002 737.88C143.67 726.806 145.007 713.141 143.837 697.429C143.629 695.506 143.587 693.417 143.169 691.578C142.793 689.572 142.333 687.566 141.832 685.519L138.698 672.648C137.654 668.051 136.735 663.12 136.4 657.938C135.899 649.748 138.489 643.354 139.826 643.688Z" fill="#A32430"/>
<path d="M183.528 204.991C183.277 206.329 179.015 206.412 173.918 206.245C170.742 206.12 167.651 206.329 164.726 206.872C159.002 207.917 153.863 210.215 149.518 213.14C140.827 219.074 135.228 226.763 131.134 233.073C127.039 239.467 124.407 244.858 122.611 248.452C122.611 248.452 122.026 249.705 121.274 251.251C120.563 252.798 120.438 252.798 121.023 251.251L122.109 248.41C123.613 244.732 125.828 239.258 129.504 232.53C133.223 225.927 138.362 217.695 147.303 210.758C151.774 207.373 157.289 204.448 163.64 202.985C166.899 202.191 170.325 201.815 173.834 201.774C179.517 201.732 183.862 203.696 183.611 205.033L183.528 204.991Z" fill="#A32430"/>
<path d="M197.61 229.73C192.012 217.862 171.163 227.808 176.971 242.35C181.232 252.964 195.647 255.179 203.042 263.077C212.526 256.684 201.245 236.458 195.104 231.151L197.569 229.688L197.61 229.73Z" fill="#4675B8"/>
<path d="M193.143 229.187C191.68 220.327 200.789 215.062 207.265 217.987C215.37 221.665 214.953 231.485 215.036 239.09C215.12 246.445 216.54 257.352 209.312 261.197C199.41 266.462 209.396 253.8 199.034 247.03C201.374 245.986 202.126 244.356 205.802 245.024C195.775 245.066 194.939 235.956 193.185 229.103L193.143 229.187Z" fill="#A32430"/>
<rect width="390" height="868" fill="#1C2325" fill-opacity="0.85"/>
</g>
<defs>
<clipPath id="clip0_1749_1138">
<rect width="390" height="868" rx="20" fill="white"/>
</clipPath>
</defs>
</svg>
