<svg width="390" height="868" viewBox="0 0 390 868" fill="none" xmlns="http://www.w3.org/2000/svg">
<g clip-path="url(#clip0_1749_1193)">
<rect width="390" height="868" rx="20" fill="white"/>
<path d="M339.685 424.716C336.801 414.727 335.714 409.294 335.255 403.318C335.589 403.359 325.975 380.666 325.725 375.483C324.638 343.47 318.326 315.97 315.944 302.345C313.059 286.213 311.931 271.376 304.031 256.623C300.645 250.312 293.957 240.031 292.076 233.344C290.321 226.992 290.613 215.54 288.691 208.31C285.932 197.987 277.614 186.285 266.203 183.109C264.405 182.649 262.19 181.98 259.849 181.562C259.766 181.688 259.724 181.813 259.64 181.897C257.927 181.646 256.171 181.479 254.29 181.521C253.162 181.521 251.949 181.604 250.821 181.771C239.326 173.705 221.06 170.111 218.05 170.32C213.244 168.147 215.417 151.011 215.668 145.871C216.504 145.537 217.8 143.907 220.851 135.966C221.227 134.796 221.729 133.751 222.189 132.497C222.189 132.413 222.272 132.33 222.314 132.163C222.523 131.41 222.732 130.825 223.025 130.031C223.275 129.279 223.526 126.27 223.86 124.097C223.86 124.055 223.86 123.971 223.86 123.679C224.195 124.807 225.031 125.601 225.741 125.601C225.95 125.601 226.201 125.35 226.327 125.183C228.04 123.135 231.844 116.616 232.68 113.774C234.31 108.173 232.555 101.779 229.462 102.239C228.709 102.322 227.957 102.782 227.121 103.785C227.288 96.4711 225.867 100.4 227.372 95.7189C227.372 95.7189 227.372 95.6353 227.413 95.5935C228.709 92.5426 229.503 89.5335 229.88 86.6915C230.674 82.2196 230.465 78.7508 229.671 75.6999C229.671 75.5745 229.587 75.4491 229.545 75.3655C225.114 57.6034 210.61 52.5882 201.958 51.7941C200.871 51.5851 199.701 51.418 198.656 51.2926C198.071 51.1672 197.276 51.0836 196.357 51C196.357 51 196.148 51 196.022 51C195.646 51 195.354 51 195.019 51C194.727 51 194.476 51 194.1 51C193.974 51 193.891 51 193.765 51C192.846 51.0836 192.051 51.1672 191.466 51.2926C190.338 51.418 189.293 51.5851 188.164 51.7941C179.512 52.5464 164.924 57.6034 160.577 75.3655C160.577 75.4491 160.493 75.5745 160.493 75.6999C159.699 78.709 159.407 82.2196 160.201 86.6915C160.66 89.5335 161.455 92.5008 162.75 95.5935C162.75 95.6353 162.75 95.6771 162.792 95.7189C164.213 100.4 162.876 96.4293 163.001 103.785C162.165 102.74 161.371 102.322 160.66 102.239C157.526 101.779 155.77 108.173 157.442 113.774C158.236 116.616 162.04 123.135 163.754 125.183C163.879 125.35 164.088 125.601 164.339 125.601C164.966 125.601 165.885 124.849 166.22 123.679C166.22 123.929 166.22 124.013 166.22 124.097C166.471 126.27 166.805 129.321 167.056 130.031C167.265 130.825 167.557 131.41 167.766 132.163C167.766 132.33 167.85 132.413 167.85 132.497C168.351 133.751 168.728 134.837 169.229 135.966C172.281 143.907 173.493 145.537 174.329 145.871C174.663 151.053 176.711 168.188 171.904 170.32C168.978 170.111 150.629 173.705 139.218 181.771C138.047 181.604 136.835 181.521 135.748 181.521C133.826 181.521 132.07 181.646 130.356 181.897C130.273 181.771 130.231 181.646 130.147 181.562C127.765 181.938 125.591 182.649 123.71 183.109C112.383 186.285 104.065 198.029 101.306 208.31C99.3832 215.54 99.6758 226.992 97.8785 233.344C95.9557 240.031 89.3097 250.312 85.9658 256.623C78.024 271.376 76.8536 286.213 74.0531 302.345C71.6287 316.011 65.3589 343.511 64.1885 375.483C64.0213 380.666 54.3658 403.401 54.6583 403.318C54.2404 409.336 53.07 414.769 50.2695 424.716C47.7615 433.66 49.1409 447.744 52.9028 455.225C55.2017 459.78 55.7869 464.252 61.597 463.793C61.7224 463.793 61.7224 463.876 61.6388 464.002C62.3076 466.634 62.3076 466.676 62.3076 466.676C68.87 468.682 66.2785 460.491 66.1113 454.974C65.8605 448.663 67.3234 437.881 70.9599 432.364C75.3906 436.961 67.7832 454.097 77.5642 455.81C77.9404 455.852 77.5642 455.81 77.9404 455.852C79.5705 454.389 77.4806 444.902 80.0721 433.994C82.0367 426.095 77.6478 419.659 76.8954 411.802C76.4774 406.703 77.1462 401.562 78.3584 396.505C80.4065 388.356 83.9594 380.164 87.2197 372.767C87.4287 372.307 87.5541 372.014 87.6795 371.722C87.8885 371.262 88.1811 370.593 88.3483 370.134C88.7245 369.047 89.2261 368.086 89.5605 367.041C95.4541 352.539 92.8626 334.944 99.216 322.364C101.348 317.934 121.411 273.048 125.591 267.489C129.395 262.641 132.572 258.044 135.205 253.823C135.205 261.011 134.912 283.078 133.617 282.451C135.163 289.096 133.7 300.548 134.954 305.521C136.626 312.375 139.385 318.728 140.639 325.624C142.645 337.451 142.854 357.387 143.189 357.763C143.063 358.766 142.938 359.56 142.687 360.605C140.263 374.438 124.672 404.822 121.996 506.464C121.996 507.968 121.996 506.463 121.829 507.968C119.823 524.351 118.444 535.468 122.247 550.639C125.926 565.309 125.424 577.888 125.591 593.77C125.591 594.564 125.591 595.149 125.591 595.776C125.591 596.361 125.591 596.779 125.591 597.197C125.591 597.74 125.591 598.033 125.549 598.409C125.549 599.203 125.466 599.872 125.424 600.54C124.17 616.004 118.778 629.963 117.649 645.635C117.524 647.976 117.315 650.232 117.273 652.197C117.064 653.994 116.897 655.749 116.772 657.421C115.518 674.389 117.357 680.407 119.614 695.996C121.871 711.042 126.594 739.378 129.311 754.841C129.771 757.391 129.896 760.567 129.855 764.036C127.556 773.732 124.463 782.508 119.948 793.751C116.939 801.106 108.746 807.417 108.495 810.259C108.077 816.444 122.832 816.444 127.681 816.779C133.784 817.155 141.14 817.155 146.574 814.271C153.764 810.552 156.773 803.071 154.767 795.172C156.606 793.082 158.738 789.028 155.77 776.156C154.098 768.925 157.735 773.021 155.937 765.707C147.828 732.774 164.339 698.504 165.426 663.481C165.969 659.093 166.262 654.83 166.345 650.274C166.471 642.125 165.217 622.398 164.464 614.457C164.464 613.956 164.381 613.538 164.381 612.911C165.509 606.015 167.557 599.286 168.686 593.728C172.406 576.3 172.573 559.04 176.21 543.074C183.274 511.437 194.977 463.542 193.18 445.947C193.305 446.03 193.514 446.072 193.682 446.114V446.323C193.682 446.323 193.891 446.323 194.016 446.323C194.309 446.365 194.559 446.407 194.768 446.407C194.81 446.407 194.894 446.407 194.894 446.407C194.936 446.407 195.061 446.407 195.103 446.407C195.312 446.407 195.563 446.406 195.855 446.323C195.981 446.323 196.064 446.323 196.19 446.323V446.114C196.19 446.114 196.482 445.989 196.691 445.947C194.81 463.542 206.598 511.437 213.662 543.074C217.256 559.04 217.507 576.3 221.185 593.728C222.314 599.328 224.362 606.057 225.532 612.911C225.532 613.538 225.449 613.956 225.407 614.457C224.655 622.398 223.275 642.125 223.443 650.274C223.61 654.788 223.902 659.093 224.446 663.481C225.532 698.504 242.043 732.816 233.976 765.707C232.095 773.021 235.815 768.925 234.143 776.156C231.134 788.986 233.307 793.082 235.146 795.172C233.182 803.071 236.108 810.51 243.255 814.271C248.689 817.155 256.171 817.197 262.148 816.779C266.955 816.444 281.836 816.403 281.376 810.259C281.125 807.459 272.932 801.106 269.965 793.751C265.367 782.466 262.232 773.732 260.017 764.036C259.849 760.525 260.1 757.391 260.518 754.841C263.277 739.378 268.042 711 270.174 695.996C272.431 680.407 274.395 674.389 273.1 657.421C272.974 655.791 272.807 654.036 272.556 652.197C272.514 650.232 272.389 647.976 272.264 645.635C271.177 629.963 265.743 616.004 264.489 600.54C264.447 599.872 264.405 599.203 264.364 598.409C264.364 598.074 264.364 597.74 264.322 597.197C264.322 596.779 264.322 596.361 264.322 595.776C264.322 595.149 264.322 594.564 264.322 593.77C264.531 577.888 263.987 565.309 267.666 550.639C271.511 535.468 270.09 524.351 268.084 507.968C267.791 506.463 267.833 507.968 267.791 506.464C265.2 404.822 249.525 374.438 247.101 360.605C246.975 359.56 246.808 358.766 246.683 357.763C246.975 357.345 247.101 337.41 249.232 325.624C250.361 318.77 253.245 312.375 254.875 305.521C256.171 300.548 254.666 289.096 256.213 282.451C254.917 283.036 254.625 261.011 254.625 253.823C257.216 258.044 260.393 262.6 264.238 267.489C268.418 273.048 288.398 317.934 290.613 322.364C296.967 334.985 294.375 352.539 300.185 367.041C300.603 368.128 301.021 369.047 301.481 370.134C301.69 370.593 301.983 371.262 302.192 371.722C302.317 372.014 302.443 372.307 302.568 372.767C305.786 380.164 309.465 388.356 311.513 396.505C312.725 401.562 313.394 406.703 312.85 411.802C312.098 419.659 307.793 426.137 309.716 433.994C312.432 444.86 310.301 454.389 311.931 455.852C312.349 455.852 311.931 455.852 312.307 455.81C322.088 454.055 314.397 436.961 318.911 432.364C322.464 437.881 323.927 448.663 323.76 454.974C323.635 460.491 321.043 468.682 327.564 466.676C327.564 466.676 327.564 466.676 328.232 464.002C328.191 463.918 328.149 463.793 328.274 463.793C334.043 464.252 334.628 459.78 336.927 455.225C340.605 447.744 342.068 433.66 339.56 424.716H339.685Z" fill="#E8D4B5"/>
<path d="M242.377 256.665C243.714 239.195 205.886 196.023 201.288 229.332V232.049C200.16 214.663 194.977 208.979 198.363 187.455L203.838 133.5C202.96 133.458 195.395 146.08 185.948 133.5C189.459 141.065 192.26 181.98 192.427 187.163C192.678 193.724 194.893 222.353 185.948 239.279C193.974 228.162 194.81 227.034 201.33 235.81C201.079 281.365 205.886 303.933 242.21 303.933C248.981 303.933 239.409 295.491 242.377 256.707V256.665Z" fill="#61A1D6"/>
<path d="M147.495 256.665C146.157 239.195 183.985 196.023 188.583 229.332V232.049C189.712 214.663 194.895 208.979 191.509 187.455L186.033 133.5C186.911 133.458 194.477 146.08 203.923 133.5C200.412 141.065 197.612 181.98 197.444 187.163C197.194 193.724 194.978 222.353 203.923 239.279C195.898 228.162 195.062 227.034 188.541 235.81C188.792 281.365 183.985 303.933 147.662 303.933C140.89 303.933 150.462 295.491 147.495 256.707V256.665Z" fill="#61A1D6"/>
<rect width="390" height="868" fill="#1C2325" fill-opacity="0.85"/>
</g>
<defs>
<clipPath id="clip0_1749_1193">
<rect width="390" height="868" rx="20" fill="white"/>
</clipPath>
</defs>
</svg>
