<svg width="390" height="868" viewBox="0 0 390 868" fill="none" xmlns="http://www.w3.org/2000/svg">
<g clip-path="url(#clip0_1749_1226)">
<rect width="390" height="868" rx="20" fill="white"/>
<path d="M339.508 424.716C336.627 414.727 335.666 409.294 335.081 403.318C335.499 403.359 325.727 380.666 325.56 375.483C324.558 343.47 318.252 315.97 315.788 302.345C312.906 286.213 311.862 271.376 303.97 256.623C300.42 250.312 293.822 240.031 291.943 233.344C290.189 226.992 290.481 215.54 288.56 208.31C285.804 197.987 277.493 186.285 266.176 183.109C264.38 182.649 262.084 181.98 259.829 181.562C259.745 181.688 259.703 181.813 259.62 181.897C257.74 181.646 255.987 181.479 254.191 181.521C252.98 181.521 251.936 181.604 250.725 181.771C239.324 173.705 220.991 170.111 217.984 170.32C213.182 168.147 215.437 151.011 215.687 145.871C216.439 145.537 217.734 143.907 220.782 135.966C221.158 134.796 221.743 133.751 222.119 132.497C222.119 132.413 222.202 132.33 222.244 132.163C222.453 131.41 222.661 130.825 222.87 130.031C223.288 129.279 223.538 126.27 223.789 124.097C223.789 124.055 223.789 123.971 223.789 123.679C224.123 124.807 225.042 125.601 225.668 125.601C225.877 125.601 226.044 125.35 226.336 125.183C228.049 123.135 231.724 116.616 232.684 113.774C234.313 108.173 232.392 101.779 229.26 102.239C228.591 102.322 227.923 102.782 227.005 103.785C227.172 96.4711 225.752 100.4 227.255 95.7189C227.255 95.7189 227.255 95.6353 227.297 95.5935C228.591 92.5426 229.468 89.5335 229.844 86.6915C230.554 82.2196 230.345 78.7508 229.635 75.6999C229.635 75.5745 229.552 75.4491 229.51 75.3655C225.084 57.6034 210.593 52.5882 201.865 51.7941C200.695 51.5851 199.693 51.418 198.565 51.2926C198.064 51.1672 197.187 51.0836 196.352 51C196.352 51 196.143 51 195.851 51C195.559 51 195.308 51 195.016 51C194.723 51 194.306 51 194.014 51C193.888 51 193.805 51 193.68 51C192.677 51.0836 191.967 51.1672 191.466 51.2926C190.339 51.418 189.169 51.5851 188 51.7941C179.439 52.5464 164.948 57.6034 160.521 75.3655C160.521 75.4491 160.438 75.5745 160.438 75.6999C159.561 78.709 159.352 82.2196 160.229 86.6915C160.605 89.5335 161.482 92.5008 162.61 95.5935C162.61 95.6353 162.609 95.6771 162.651 95.7189C164.155 100.4 162.735 96.4293 163.069 103.785C162.15 102.74 161.44 102.322 160.647 102.239C157.515 101.779 155.761 108.173 157.431 113.774C158.308 116.616 162.025 123.135 163.737 125.183C163.862 125.35 164.071 125.601 164.238 125.601C165.032 125.601 165.783 124.849 166.284 123.679C166.284 123.929 166.284 124.013 166.284 124.097C166.535 126.27 166.786 129.321 167.036 130.031C167.245 130.825 167.621 131.41 167.83 132.163C167.83 132.33 167.913 132.413 167.913 132.497C168.331 133.751 168.706 134.837 169.291 135.966C172.131 143.907 173.467 145.537 174.386 145.871C174.637 151.053 176.683 168.188 171.88 170.32C168.874 170.111 150.708 173.705 139.307 181.771C138.054 181.604 136.843 181.521 135.632 181.521C133.795 181.521 132.041 181.646 130.328 181.897C130.287 181.771 130.161 181.646 130.12 181.562C127.656 181.938 125.568 182.649 123.772 183.109C112.455 186.285 103.977 198.029 101.388 208.31C99.3002 215.54 99.7595 226.992 97.9638 233.344C95.9175 240.031 89.3193 250.312 85.9367 256.623C78.0021 271.376 76.8329 286.213 73.9514 302.345C71.6128 316.011 65.3487 343.511 64.1794 375.483C64.0123 380.666 54.3656 403.401 54.6579 403.318C54.2403 409.336 53.071 414.769 50.1895 424.716C47.7674 433.66 49.229 447.744 52.9039 455.225C55.2843 459.78 55.7854 464.252 61.6737 463.793C61.8407 463.793 61.799 463.876 61.7155 464.002C62.3002 466.634 62.3001 466.676 62.3001 466.676C68.8565 468.682 66.3509 460.491 66.0169 454.974C65.8498 448.663 67.3114 437.881 71.0699 432.364C75.413 436.961 67.8961 454.097 77.6681 455.81C77.9605 455.852 77.668 455.81 77.9604 455.852C79.589 454.389 77.5846 444.902 80.0902 433.994C82.1365 426.095 77.7516 419.659 76.9164 411.802C76.4987 406.703 77.0417 401.562 78.378 396.505C80.5078 388.356 84.0993 380.164 87.3149 372.767C87.4402 372.307 87.5654 372.014 87.6907 371.722C87.8995 371.262 88.1083 370.593 88.4842 370.134C88.86 369.047 89.2776 368.086 89.6117 367.041C95.4999 352.539 92.8273 334.944 99.1749 322.364C101.472 317.934 121.35 273.048 125.609 267.489C129.326 262.641 132.5 258.044 135.214 253.823C135.214 261.011 134.922 283.078 133.628 282.451C135.173 289.096 133.669 300.548 134.964 305.521C136.634 312.375 139.474 318.728 140.727 325.624C142.69 337.451 142.815 357.387 143.191 357.763C143.065 358.766 142.94 359.56 142.773 360.605C140.268 374.438 124.607 404.822 122.143 506.464C122.143 507.968 122.143 506.463 121.976 507.968C119.805 524.351 118.594 535.468 122.31 550.639C125.985 565.309 125.442 577.888 125.651 593.77C125.651 594.564 125.651 595.149 125.651 595.776C125.651 596.361 125.651 596.779 125.651 597.197C125.651 597.74 125.651 598.033 125.609 598.409C125.609 599.203 125.568 599.872 125.484 600.54C124.231 616.004 118.928 629.963 117.717 645.635C117.55 647.976 117.466 650.232 117.424 652.197C117.216 653.994 117.048 655.749 116.756 657.421C115.67 674.389 117.508 680.407 119.679 695.996C122.018 711.042 126.737 739.378 129.326 754.841C129.911 757.391 130.078 760.567 129.994 764.036C127.614 773.732 124.524 782.508 119.93 793.751C117.132 801.106 108.78 807.417 108.571 810.259C108.195 816.444 122.937 816.444 127.739 816.779C133.836 817.155 141.27 817.155 146.615 814.271C153.881 810.552 156.888 803.071 154.717 795.172C156.763 793.082 158.768 789.028 155.802 776.156C154.09 768.925 157.765 773.021 155.97 765.707C147.868 732.774 164.28 698.504 165.449 663.481C165.867 659.093 166.368 654.83 166.451 650.274C166.577 642.125 165.24 622.398 164.572 614.457C164.572 613.956 164.489 613.538 164.322 612.911C165.533 606.015 167.704 599.286 168.707 593.728C172.507 576.3 172.716 559.04 176.223 543.074C183.197 511.437 195.099 463.542 193.262 445.947C193.387 446.03 193.554 446.072 193.68 446.114V446.323C193.68 446.323 193.888 446.323 194.014 446.323C194.222 446.365 194.64 446.407 194.849 446.407C194.891 446.407 194.974 446.407 194.974 446.407C195.016 446.407 195.058 446.407 195.099 446.407C195.308 446.407 195.559 446.406 195.768 446.323C195.893 446.323 196.143 446.323 196.269 446.323V446.114C196.269 446.114 196.561 445.989 196.686 445.947C194.891 463.542 206.584 511.437 213.725 543.074C217.233 559.04 217.483 576.3 221.075 593.728C222.286 599.328 224.248 606.057 225.501 612.911C225.501 613.538 225.418 613.956 225.376 614.457C224.75 622.398 223.33 642.125 223.497 650.274C223.58 654.788 223.873 659.093 224.29 663.481C225.459 698.504 242.08 732.816 233.812 765.707C232.016 773.021 235.816 768.925 234.146 776.156C231.139 788.986 233.227 793.082 235.064 795.172C233.102 803.071 236.108 810.51 243.166 814.271C248.678 817.155 255.986 817.197 262.084 816.779C266.886 816.444 281.836 816.403 281.252 810.259C281.085 807.459 272.858 801.106 269.935 793.751C265.341 782.466 262.209 773.732 259.996 764.036C259.954 760.525 260.037 757.391 260.497 754.841C263.253 739.378 268.014 711 270.143 695.996C272.482 680.407 274.361 674.389 273.067 657.421C272.941 655.791 272.774 654.036 272.607 652.197C272.566 650.232 272.44 647.976 272.315 645.635C271.146 629.963 265.8 616.004 264.548 600.54C264.506 599.872 264.464 599.203 264.422 598.409C264.422 598.074 264.422 597.74 264.38 597.197C264.38 596.779 264.38 596.361 264.38 595.776C264.38 595.149 264.38 594.564 264.38 593.77C264.589 577.888 263.921 565.309 267.721 550.639C271.48 535.468 270.018 524.351 268.055 507.968C267.847 506.463 267.888 507.968 267.847 506.464C265.174 404.822 249.514 374.438 247.175 360.605C247.05 359.56 246.883 358.766 246.59 357.763C247.091 357.345 247.217 337.41 249.221 325.624C250.432 318.77 253.314 312.375 254.984 305.521C256.112 300.548 254.776 289.096 256.321 282.451C255.026 283.036 254.567 261.011 254.567 253.823C257.239 258.044 260.413 262.6 264.339 267.489C268.389 273.048 288.476 317.934 290.606 322.364C296.954 334.985 294.448 352.539 300.169 367.041C300.671 368.128 301.088 369.047 301.464 370.134C301.673 370.593 301.882 371.262 302.258 371.722C302.383 372.014 302.508 372.307 302.633 372.767C305.849 380.164 309.399 388.356 311.403 396.505C312.698 401.562 313.449 406.703 312.823 411.802C312.155 419.659 307.77 426.137 309.691 433.994C312.405 444.86 310.359 454.389 311.988 455.852C312.322 455.852 311.988 455.852 312.28 455.81C322.052 454.055 314.368 436.961 318.878 432.364C322.428 437.881 323.89 448.663 323.722 454.974C323.597 460.491 320.924 468.682 327.606 466.676C327.606 466.676 327.606 466.676 328.191 464.002C328.149 463.918 328.107 463.793 328.233 463.793C334.079 464.252 334.58 459.78 336.794 455.225C340.636 447.744 342.097 433.66 339.508 424.716Z" fill="#E8D4B5"/>
<path d="M231.347 348.986C234.814 341.923 223.789 338.454 220.281 344.179V345.182C220.281 348.359 219.654 353.29 219.529 358.222C213.85 364.24 214.267 373.769 212.973 382.211C210.968 386.641 208.546 390.319 205.372 393.746C205.247 393.83 205.122 393.913 205.038 393.955C202.073 392.827 198.816 392.534 195.684 392.952C192.552 392.534 189.294 392.785 186.329 393.955C186.204 393.872 186.079 393.83 185.995 393.746C182.821 390.319 180.399 386.6 178.395 382.211C177.142 373.727 177.518 364.24 171.838 358.222C171.755 353.29 171.087 348.359 171.087 345.182V344.179C167.579 338.495 156.512 341.964 160.02 348.986C149.622 347.648 146.239 360.98 155.552 364.24C155.343 367.751 156.22 370.885 158.141 373.853C165.867 375.566 169.374 372.432 170.878 367.584C171.964 372.808 172.214 378.241 174.135 383.256C174.803 384.97 176.14 386.725 177.768 388.48C179.105 391.071 180.9 393.495 182.947 395.878C181.777 396.714 180.65 397.675 179.731 398.929L181.903 395.961C173.258 402.69 180.065 414.559 189.587 417.861C190.923 420.536 191.884 423.461 192.635 426.429C193.136 431.151 192.927 436.166 193.178 440.555C194.055 440.638 194.848 440.638 195.684 440.638C196.477 440.638 197.312 440.638 198.189 440.555C198.44 436.166 198.189 431.151 198.732 426.429C199.484 423.461 200.486 420.536 201.781 417.861C211.302 414.517 218.151 402.648 209.465 395.961L211.636 398.929C210.718 397.675 209.59 396.714 208.421 395.878C210.425 393.495 212.221 391.071 213.599 388.48C215.228 386.725 216.606 384.928 217.232 383.256C219.153 378.241 219.404 372.808 220.49 367.584C221.993 372.473 225.459 375.608 233.227 373.853C235.148 370.927 236.025 367.751 235.816 364.24C245.129 361.022 241.746 347.69 231.347 348.986ZM175.513 382.922C174.511 380.916 173.968 378.45 173.467 375.775C173.467 375.817 173.467 375.9 173.509 375.942C174.052 378.157 174.762 380.038 175.555 381.752C175.639 382.378 175.764 383.005 175.931 383.632C175.806 383.381 175.639 383.173 175.513 382.922ZM215.854 382.922C215.729 383.173 215.562 383.381 215.437 383.632C215.604 383.005 215.729 382.378 215.812 381.752C216.564 380.038 217.274 378.199 217.859 375.942C217.859 375.9 217.859 375.817 217.9 375.775C217.441 378.45 216.856 380.916 215.854 382.922Z" fill="#DB8D10"/>
<rect width="390" height="868" fill="#1C2325" fill-opacity="0.85"/>
</g>
<defs>
<clipPath id="clip0_1749_1226">
<rect width="390" height="868" rx="20" fill="white"/>
</clipPath>
</defs>
</svg>
