<svg width="390" height="868" viewBox="0 0 390 868" fill="none" xmlns="http://www.w3.org/2000/svg">
<g clip-path="url(#clip0_1749_1258)">
<rect width="390" height="868" rx="20" fill="white"/>
<path d="M339.508 424.814C336.627 414.782 335.666 409.264 335.081 403.245C335.499 403.287 325.727 380.59 325.56 375.448C324.558 343.43 318.252 315.842 315.788 302.299C312.906 286.123 311.862 271.242 303.97 256.57C300.42 250.259 293.822 239.892 291.943 233.204C290.189 226.809 290.481 215.481 288.56 208.166C285.804 197.926 277.493 186.138 266.176 182.961C264.38 182.502 262.084 181.916 259.829 181.415C259.745 181.624 259.703 181.749 259.62 181.875C257.74 181.624 255.987 181.373 254.191 181.373C252.98 181.373 251.936 181.498 250.725 181.707C239.324 173.556 220.991 169.962 217.984 170.171C213.182 168.122 215.437 150.859 215.687 145.801C216.439 145.467 217.734 143.837 220.782 135.895C221.158 134.725 221.743 133.596 222.119 132.342C222.119 132.3 222.202 132.175 222.244 132.008C222.453 131.339 222.661 130.67 222.87 129.959C223.288 129.123 223.538 126.197 223.789 123.94C223.789 123.857 223.789 123.773 223.789 123.648C224.123 124.776 225.042 125.487 225.668 125.445C225.877 125.445 226.044 125.361 226.336 125.111C228.049 123.063 231.724 116.458 232.684 113.699C234.313 108.056 232.392 101.619 229.26 102.079C228.591 102.204 227.923 102.706 227.005 103.667C227.172 96.4362 225.752 100.282 227.255 95.642C227.255 95.6002 227.255 95.5584 227.297 95.5166C228.591 92.4652 229.468 89.4556 229.844 86.7386C230.554 82.2243 230.345 78.7967 229.635 75.7454C229.635 75.62 229.552 75.5364 229.51 75.3274C225.084 57.6043 210.593 52.5466 201.865 51.8778C200.695 51.5852 199.693 51.418 198.565 51.2926C198.064 51.1672 197.187 51.0836 196.352 51C196.352 51 196.143 51 195.851 51C195.559 51 195.308 51 195.016 51C194.723 51 194.306 51 194.014 51C193.888 51 193.805 51 193.68 51C192.677 51.0836 191.967 51.1672 191.466 51.2926C190.339 51.418 189.169 51.5852 188 51.8778C179.439 52.5466 164.948 57.6043 160.521 75.3274C160.521 75.5364 160.438 75.6618 160.438 75.7454C159.561 78.7967 159.352 82.2243 160.229 86.7386C160.605 89.4556 161.482 92.4652 162.61 95.5166C162.61 95.5584 162.609 95.6002 162.651 95.642C164.155 100.282 162.735 96.4362 163.069 103.667C162.15 102.706 161.44 102.204 160.647 102.079C157.515 101.619 155.761 108.056 157.431 113.699C158.308 116.458 162.025 123.063 163.737 125.111C163.862 125.361 164.071 125.445 164.238 125.445C165.032 125.445 165.783 124.776 166.284 123.648C166.284 123.815 166.284 123.898 166.284 123.94C166.535 126.197 166.786 129.165 167.036 129.959C167.245 130.67 167.621 131.339 167.83 132.008C167.83 132.133 167.913 132.258 167.913 132.342C168.331 133.638 168.706 134.766 169.291 135.895C172.131 143.837 173.467 145.467 174.386 145.801C174.637 150.859 176.683 168.122 171.88 170.171C168.874 169.962 150.708 173.556 139.307 181.707C138.054 181.457 136.843 181.373 135.632 181.373C133.795 181.373 132.041 181.624 130.328 181.875C130.287 181.749 130.161 181.624 130.12 181.415C127.656 181.916 125.568 182.502 123.772 182.961C112.455 186.138 103.977 197.967 101.388 208.166C99.3002 215.481 99.7595 226.851 97.9638 233.204C95.9175 239.892 89.3193 250.259 85.9367 256.57C78.0021 271.242 76.8329 286.165 73.9514 302.299C71.6128 315.884 65.3487 343.472 64.1794 375.448C64.0123 380.548 54.3656 403.287 54.6579 403.245C54.2403 409.223 53.071 414.782 50.1895 424.814C47.7674 433.717 49.229 447.762 52.9039 455.16C55.2843 459.716 55.7854 464.273 61.6737 463.855C61.8407 463.855 61.799 463.938 61.7155 464.022C62.3002 466.572 62.3001 466.613 62.3001 466.613C68.8565 468.745 66.3509 460.552 66.0169 454.951C65.8498 448.64 67.3114 437.855 71.0699 432.421C75.413 437.061 67.8961 454.157 77.6681 455.913C77.9605 455.954 77.668 455.913 77.9604 455.954C79.589 454.491 77.5846 444.961 80.0902 434.093C82.1365 426.193 77.7516 419.756 76.9164 411.898C76.4987 406.798 77.0417 401.573 78.378 396.515C80.5078 388.365 84.0993 380.255 87.3149 372.773C87.4402 372.397 87.5654 372.104 87.6907 371.812C87.8995 371.268 88.1083 370.683 88.4842 370.224C88.86 369.095 89.2776 368.134 89.6117 367.13C95.4999 352.5 92.8273 334.945 99.1749 322.363C101.472 318.016 121.35 273.039 125.609 267.564C129.326 262.715 132.5 258.117 135.214 253.812C135.214 261.085 134.922 283.155 133.628 282.444C135.173 289.132 133.669 300.627 134.964 305.601C136.634 312.373 139.474 318.726 140.727 325.582C142.69 337.494 142.815 357.349 143.191 357.851C143.065 358.77 142.94 359.648 142.773 360.693C140.268 374.403 124.607 404.834 122.143 506.574C122.143 508.079 122.143 506.574 121.976 508.079C119.805 524.422 118.594 535.583 122.31 550.631C125.985 565.386 125.442 577.967 125.651 593.851C125.651 594.562 125.651 595.231 125.651 595.858C125.651 596.359 125.651 596.861 125.651 597.279C125.651 597.739 125.651 598.031 125.609 598.491C125.609 599.202 125.568 599.954 125.484 600.623C124.231 616.089 118.928 629.966 117.717 645.641C117.55 648.065 117.466 650.239 117.424 652.287C117.216 654.085 117.048 655.84 116.756 657.47C115.67 674.441 117.508 680.377 119.679 695.926C122.018 711.057 126.737 739.397 129.326 754.78C129.911 757.455 130.078 760.59 129.994 763.976C127.614 773.673 124.524 782.576 119.93 793.862C117.132 801.094 108.78 807.447 108.571 810.248C108.195 816.392 122.937 816.434 127.739 816.769C133.836 817.187 141.27 817.145 146.615 814.428C153.881 810.54 156.888 803.226 154.717 795.325C156.763 793.068 158.768 789.139 155.802 776.307C154.09 768.95 157.765 773.172 155.97 765.731C147.868 732.793 164.28 698.601 165.449 663.573C165.867 659.184 166.368 654.837 166.451 650.281C166.577 642.13 165.24 622.442 164.572 614.542C164.572 613.957 164.489 613.539 164.322 612.996C165.533 606.015 167.704 599.285 168.707 593.768C172.507 576.337 172.716 559.116 176.223 543.107C183.197 511.464 195.099 463.478 193.262 445.881C193.387 445.964 193.554 446.006 193.68 446.048V446.382C193.68 446.382 193.888 446.382 194.014 446.382C194.222 446.424 194.64 446.466 194.849 446.466C194.891 446.466 194.974 446.466 194.974 446.466C195.016 446.466 195.058 446.466 195.099 446.466C195.308 446.466 195.559 446.466 195.768 446.382C195.893 446.382 196.143 446.382 196.269 446.382V446.048C196.269 446.048 196.561 445.923 196.686 445.881C194.891 463.478 206.584 511.464 213.725 543.107C217.233 559.074 217.483 576.337 221.075 593.768C222.286 599.285 224.248 606.015 225.501 612.996C225.501 613.497 225.418 613.957 225.376 614.542C224.75 622.484 223.33 642.13 223.497 650.281C223.58 654.837 223.873 659.184 224.29 663.573C225.459 698.601 242.08 732.835 233.812 765.731C232.016 773.172 235.816 768.95 234.146 776.307C231.139 789.139 233.227 793.068 235.064 795.325C233.102 803.226 236.108 810.54 243.166 814.428C248.678 817.187 255.986 817.187 262.084 816.769C266.886 816.476 281.836 816.434 281.252 810.248C281.085 807.447 272.858 801.136 269.935 793.862C265.341 782.576 262.209 773.673 259.996 763.976C259.954 760.59 260.037 757.455 260.497 754.78C263.253 739.397 268.014 711.057 270.143 695.926C272.482 680.335 274.361 674.399 273.067 657.47C272.941 655.798 272.774 654.085 272.607 652.287C272.566 650.239 272.44 648.024 272.315 645.641C271.146 629.924 265.8 616.089 264.548 600.623C264.506 599.954 264.464 599.202 264.422 598.491C264.422 598.073 264.422 597.739 264.38 597.279C264.38 596.861 264.38 596.359 264.38 595.858C264.38 595.273 264.38 594.562 264.38 593.851C264.589 577.967 263.921 565.386 267.721 550.631C271.48 535.541 270.018 524.422 268.055 508.079C267.847 506.574 267.888 508.079 267.847 506.574C265.174 404.875 249.514 374.445 247.175 360.693C247.05 359.648 246.883 358.77 246.59 357.851C247.091 357.349 247.217 337.494 249.221 325.582C250.432 318.726 253.314 312.331 254.984 305.601C256.112 300.627 254.776 289.09 256.321 282.444C255.026 283.155 254.567 261.085 254.567 253.812C257.239 258.117 260.413 262.715 264.339 267.564C268.389 272.998 288.476 318.016 290.606 322.363C296.954 334.986 294.448 352.542 300.169 367.13C300.671 368.134 301.088 369.137 301.464 370.224C301.673 370.683 301.882 371.268 302.258 371.812C302.383 372.104 302.508 372.397 302.633 372.773C305.849 380.255 309.399 388.365 311.403 396.515C312.698 401.573 313.449 406.798 312.823 411.898C312.155 419.756 307.77 426.193 309.691 434.093C312.405 444.961 310.359 454.491 311.988 455.954C312.322 455.954 311.988 455.954 312.28 455.913C322.052 454.157 314.368 437.061 318.878 432.421C322.428 437.855 323.89 448.64 323.722 454.951C323.597 460.552 320.924 468.745 327.606 466.613C327.606 466.613 327.606 466.613 328.191 464.022C328.149 463.938 328.107 463.813 328.233 463.855C334.079 464.314 334.58 459.758 336.794 455.16C340.636 447.762 342.097 433.675 339.508 424.814Z" fill="#E8D4B5"/>
<path d="M235.358 332.437C235.358 332.771 235.358 333.231 235.358 333.524V333.816C235.275 333.607 235.233 333.357 235.149 333.148C235.233 332.897 235.316 332.688 235.4 332.437H235.358Z" fill="#39673D"/>
<path d="M174.136 365.124L174.428 364.957C174.428 364.957 174.345 364.999 174.303 365.041C174.261 365.041 174.178 365.082 174.136 365.124Z" fill="#39673D"/>
<path d="M230.219 346.021C234.688 339.626 236.233 331.349 236.024 324.076C235.857 320.105 234.312 313.292 233.393 309.405C233.685 308.569 240.409 301.839 238.279 290.01C237.527 285.788 236.4 279.727 231.597 276.09C226.878 272.537 221.199 272.036 216.146 272.454C212.847 272.746 209.589 273.499 206.29 274.418C211.552 270.949 223.704 268.567 220.238 260.792C220.238 260.792 215.77 251.763 201.864 258.785C201.362 259.036 201.404 245.66 201.321 246.162C200.151 228.606 199.024 217.237 198.356 201.186L203.826 146.804C202.949 146.763 195.391 159.511 185.953 146.804C189.461 154.454 192.259 195.71 192.426 200.935C192.676 207.539 192.384 208.877 192.551 215.063C192.3 229.651 191.757 244.532 190.839 260.666L190.964 266.017L190.546 268.65C188.124 271.074 186.704 265.473 181.86 264.805C181.86 264.805 176.515 265.306 177.266 268.065C177.475 268.859 176.682 268.65 174.051 268.358C172.13 267.271 170 266.268 167.202 265.682C165.156 265.306 162.567 265.223 159.894 266.727C157.18 268.19 155.384 271.116 154.34 273.791C153.296 276.634 152.711 279.016 152.502 282.486C152.252 285.788 153.338 290.428 156.136 293.395C158.015 295.527 160.186 296.739 162.274 297.534C161.022 297.784 159.769 298.077 158.599 298.495C153.672 300.167 149.746 304.096 148.493 309.405C147.115 314.588 148.577 320.314 150.79 325.33C152.377 328.8 154.465 332.144 157.305 334.944C160.103 337.745 163.444 339.668 166.576 340.754C167.954 341.256 169.248 341.59 170.543 341.883C169.374 342.635 168.204 343.43 167.035 344.516C166.116 345.394 165.114 346.397 164.195 348.153C163.193 349.825 163.026 353.252 164.112 355.092C166.116 358.561 168.121 359.063 169.833 360.024C173.8 362.741 179.939 365.082 185.41 366.628C188.166 367.381 191.047 368.05 194.221 368.551C195.015 368.677 195.85 368.76 196.769 368.802C197.813 368.802 198.773 368.802 199.608 368.76L204.453 368.342C207.46 368.091 210.341 368.008 213.014 368.468C214.35 368.677 215.603 369.011 216.772 369.554C217.983 370.056 219.153 370.683 219.904 371.31C220.656 371.979 221.073 372.564 221.115 372.898C221.157 373.233 221.157 373.442 220.948 374.069C220.572 375.239 218.86 377.12 217.023 377.831C216.062 378.207 215.394 378.332 214.475 378.29C213.181 378.207 211.469 377.956 209.756 377.58C206.29 376.827 202.574 375.699 198.857 374.445C195.14 373.191 191.423 371.77 187.957 370.349C183.322 368.384 177.893 367.255 172.213 368.384C169.332 369.011 166.492 370.056 163.694 372.606C160.938 375.114 159.309 378.708 159.226 382.303C159.184 384.101 159.518 385.94 160.061 387.528C160.604 389.033 161.272 390.287 162.024 391.416C163.527 393.673 165.198 395.345 166.91 396.766L168.204 397.769L168.831 398.229L169.75 398.856C171.044 399.692 172.506 400.277 173.884 400.653C176.724 401.322 179.146 401.155 181.109 400.862C184.992 400.235 187.79 399.525 189.085 399.775C189.711 399.859 190.129 399.984 190.755 400.528C191.34 401.029 192.008 402.033 192.551 403.036C193.637 405.042 194.221 407.508 194.597 409.975C195.307 414.949 193.47 420.968 193.344 427.99C193.177 434.887 195.432 441.45 195.432 444.543C195.349 450.771 197.479 443.122 197.437 436.517C197.437 436.517 193.386 423.977 199.901 408.428C201.07 405.669 201.78 403.203 200.569 399.692C199.943 397.978 199.233 396.222 197.855 394.341C196.477 392.502 194.221 390.789 191.757 389.994C186.788 388.531 182.904 389.576 180.106 389.493C178.686 389.535 177.642 389.367 177.058 389.117C176.765 388.991 176.598 388.824 176.431 388.657L175.137 387.403C174.176 386.4 173.383 385.355 172.923 384.477C172.715 384.017 172.548 383.641 172.506 383.348C172.506 383.181 172.506 383.139 172.548 383.014C172.631 382.847 172.756 382.721 172.923 382.679C173.007 382.679 173.884 382.22 174.844 382.094C176.891 381.802 179.605 382.261 182.32 383.557C186.245 385.313 190.171 386.859 194.305 388.239C198.439 389.618 202.573 390.83 207.042 391.708C209.297 392.126 211.594 392.461 214.225 392.502C217.273 392.586 220.572 391.75 223.12 390.412C228.256 387.695 232.265 383.432 233.852 377.204C234.604 374.152 234.353 370.39 232.85 367.381C231.388 364.288 229.092 362.281 226.92 360.86C221.032 357.307 214.976 356.68 209.673 357.14C210.967 357.056 212.262 356.889 213.557 356.638C219.32 355.551 225.834 352.166 230.261 345.729L230.219 346.021ZM217.399 283.782C220.28 283.113 221.491 281.357 225.124 283.322C232.182 287.335 231.514 294.106 228.799 299.373C227.087 296.865 225.083 294.482 222.827 292.727C219.654 290.219 216.313 288.589 213.181 287.418C212.095 287 210.842 286.666 209.589 286.29C212.262 285.286 214.851 284.367 217.399 283.782ZM161.731 282.319C161.564 280.856 161.732 278.473 162.066 276.926C162.149 276.592 162.233 276.383 162.316 276.09C163.861 274.586 166.701 274.084 171.378 275.798C176.264 277.553 184.742 281.65 190.588 279.852C191.089 279.852 191.549 279.811 192.008 279.769C190.045 280.688 188.083 281.608 186.162 282.611C182.111 284.409 177.266 285.704 172.965 286.248C168.706 286.833 164.404 286.248 163.026 285.036C162.358 284.534 161.899 283.907 161.69 282.319H161.731ZM165.532 317.388C165.406 316.803 165.741 316.427 166.116 316.552H166.2C166.2 316.552 166.158 316.594 166.325 316.594H167.119L170.919 316.385C173.717 316.26 176.598 316.385 180.816 315.424C181.651 315.215 182.32 315.006 182.946 314.755C186.955 317.012 191.591 318.851 193.428 318.893C206.374 319.228 205.204 329.385 193.303 332.394C187.164 333.941 171.462 333.147 165.615 317.305L165.532 317.388ZM202.991 358.477L198.523 359.522C197.854 359.648 197.312 359.773 196.811 359.815C196.226 359.857 195.558 359.899 194.89 359.899C192.175 359.899 189.419 359.731 186.83 359.481C182.194 358.979 181.401 359.439 177.976 358.143C177.016 357.14 172.965 354.757 172.715 353.42C174.134 347.986 176.598 349.95 176.598 349.95C177.475 349.783 181.275 350.494 184.7 351.957C188.542 353.294 192.133 355.301 197.896 356.429L198.982 356.555C198.982 356.555 198.857 356.555 199.316 356.638L201.237 356.973C202.532 357.182 203.826 357.307 205.163 357.391C206.416 357.474 207.752 357.474 209.046 357.391C206.875 357.6 204.829 357.976 203.033 358.394L202.991 358.477ZM205.204 342.677C204.244 342.719 203.325 342.761 202.365 342.719L200.945 342.635L199.608 342.552C199.149 342.552 199.233 342.552 199.024 342.552C199.024 342.552 198.94 342.552 198.899 342.552C201.154 342.092 203.367 341.465 205.622 340.42C206.791 339.877 208.295 338.999 209.756 337.87C211.134 336.783 212.346 335.488 213.348 334.066C215.311 331.224 216.355 327.755 216.188 324.453C216.146 321.025 214.225 318.308 212.429 315.884C208.712 311.035 204.16 309.279 200.11 308.903C197.604 308.694 195.474 308.82 193.47 308.987C195.224 307.775 196.727 306.688 197.729 306.186C199.149 305.476 200.151 305.267 201.947 305.267C203.826 305.308 205.58 305.685 207.752 306.479C212.179 308.025 214.601 309.739 216.271 312.623C218.067 315.466 219.403 320.774 219.779 325.08C220.155 329.469 219.57 333.147 218.067 335.822C216.605 338.497 213.974 340.545 210.592 341.674C208.921 342.217 207.084 342.552 205.204 342.677Z" fill="#6CB476"/>
<rect width="390" height="868" fill="#1C2325" fill-opacity="0.85"/>
</g>
<defs>
<clipPath id="clip0_1749_1258">
<rect width="390" height="868" rx="20" fill="white"/>
</clipPath>
</defs>
</svg>
