<svg width="390" height="868" viewBox="0 0 390 868" fill="none" xmlns="http://www.w3.org/2000/svg">
<g clip-path="url(#clip0_1749_1291)">
<rect width="390" height="868" rx="20" fill="white"/>
<path d="M339.542 424.77C336.659 414.826 335.698 409.227 335.113 403.378C335.531 403.42 325.922 380.566 325.587 375.552C324.585 343.548 318.276 316.056 315.811 302.394C312.928 286.267 311.883 271.268 303.987 256.686C300.602 250.377 293.834 240.099 291.954 233.247C290.199 226.897 290.491 215.616 288.569 208.388C285.812 198.068 277.497 186.369 266.175 183.194C264.378 182.567 262.08 182.066 259.824 181.69C259.74 181.815 259.698 181.941 259.615 182.024C257.902 181.773 255.98 181.606 254.183 181.648C253.139 181.648 251.927 181.732 250.716 181.899C239.309 173.835 220.967 170.033 217.959 170.451C213.154 168.237 215.41 150.981 215.661 146.009C216.413 145.675 217.708 144.046 220.758 136.107C221.134 134.937 221.719 133.726 222.095 132.639C222.095 132.556 222.179 132.472 222.221 132.138C222.43 131.553 222.639 131.01 223.015 130.174C223.265 129.422 223.516 126.414 223.767 124.033C223.767 123.991 223.767 123.907 223.808 123.824C224.143 124.952 225.062 125.578 225.689 125.537C225.898 125.537 226.232 125.453 226.357 125.286C228.07 123.239 231.747 116.721 232.708 113.88C234.337 108.114 232.583 101.722 229.491 102.348C228.655 102.474 227.987 102.892 227.067 103.894C227.235 96.5826 225.814 100.343 227.318 95.6635C227.318 95.6635 227.318 95.5799 227.36 95.5381C228.655 92.4881 229.532 89.6471 229.908 86.8477C230.619 82.3772 230.41 78.9095 229.7 75.8595C229.7 75.7341 229.616 75.6088 229.574 75.5252C225.145 57.6013 210.647 52.5459 201.915 51.9609C200.912 51.752 199.743 51.5849 198.614 51.2924C198.113 51.1671 197.319 51.0836 196.316 51C196.316 51 196.108 51 195.982 51C195.69 51 195.314 51 195.063 51C194.687 51 194.436 51 194.144 51C193.935 51 193.81 51 193.726 51C192.807 51.0836 192.013 51.1671 191.428 51.2924C190.384 51.5849 189.255 51.752 188.127 51.9609C179.479 52.5459 164.981 57.6013 160.552 75.5252C160.552 75.6088 160.468 75.7341 160.468 75.8595C159.674 78.8677 159.465 82.3354 160.259 86.8477C160.635 89.6888 161.429 92.4881 162.724 95.5381C162.724 95.5799 162.724 95.6217 162.766 95.6635C164.27 100.343 162.85 96.5826 162.975 103.894C162.139 102.85 161.346 102.432 160.635 102.348C157.502 101.722 155.747 108.114 157.418 113.88C158.212 116.721 162.014 123.239 163.727 125.286C163.852 125.453 164.145 125.537 164.312 125.537C165.022 125.537 165.858 124.952 166.192 123.824C166.192 123.907 166.192 123.991 166.192 124.033C166.526 126.414 166.777 129.422 167.111 130.174C167.32 130.968 167.529 131.553 167.738 132.138C167.863 132.472 167.905 132.556 167.905 132.639C168.323 133.726 168.783 134.979 169.2 136.107C172.25 144.046 173.546 145.675 174.381 146.009C174.632 150.981 176.763 168.237 171.958 170.451C168.95 170.075 150.691 173.835 139.202 181.899C138.032 181.732 136.82 181.648 135.734 181.648C133.895 181.648 132.057 181.773 130.344 182.024C130.26 181.899 130.219 181.773 130.135 181.69C127.754 182.066 125.581 182.609 123.784 183.194C112.462 186.369 104.064 198.11 101.39 208.388C99.3841 215.616 99.6766 226.897 97.88 233.247C96.0417 240.141 89.3149 250.377 85.9306 256.686C77.9922 271.268 76.9059 286.267 74.023 302.394C71.5997 316.015 65.3325 343.548 64.2462 375.552C63.9955 380.566 54.3441 403.42 54.7201 403.378C54.2187 409.186 53.1324 414.826 50.2495 424.77C47.7426 433.753 49.205 447.833 52.8817 455.144C55.1797 459.698 55.7646 464.336 61.5722 463.876C61.8229 463.876 61.7811 463.96 61.614 464.085C62.2825 466.718 62.2825 466.759 62.2825 466.759C68.9257 468.806 66.2517 460.576 66.0846 454.894C65.9174 448.585 67.3797 437.805 70.9311 432.457C75.4435 437.053 67.7558 454.183 77.6161 455.938C77.9086 455.98 77.6162 455.938 77.9086 455.98C79.5381 454.518 77.4491 445.033 80.123 434.129C82.0032 426.232 77.6997 419.798 76.9476 411.943C76.4463 406.846 77.073 401.749 78.41 396.484C80.3737 388.337 84.0087 380.315 87.2676 372.753C87.3929 372.46 87.5183 372.168 87.6436 371.875C87.9361 371.249 88.145 370.747 88.3121 370.288C88.7717 369.201 89.1895 368.073 89.6073 367.196C95.4149 352.656 92.8245 335.108 99.1752 322.532C101.39 318.104 121.361 273.022 125.539 267.674C129.341 262.828 132.517 258.232 135.149 253.845C135.149 261.198 134.856 283.259 133.561 282.465C135.107 289.317 133.645 300.723 134.898 305.695C136.569 312.38 139.411 318.73 140.58 325.791C142.669 337.615 142.795 357.545 143.129 357.921C143.004 358.923 142.878 359.717 142.711 360.762C140.288 374.424 124.62 405.008 122.03 506.576C122.03 508.08 122.03 506.576 121.862 508.08C119.773 524.458 118.395 535.572 122.197 550.738C125.957 565.403 125.372 577.979 125.539 593.856C125.539 594.483 125.539 595.235 125.539 595.862C125.539 596.279 125.539 596.864 125.539 597.282C125.539 597.616 125.539 598.118 125.497 598.494C125.497 599.12 125.414 599.956 125.372 600.625C124.119 616.083 118.812 630.038 117.601 645.706C117.475 648.046 117.35 650.135 117.308 652.265C117.016 654.062 116.849 655.817 116.723 657.446C115.553 674.409 117.392 680.342 119.648 695.801C121.904 711.009 126.625 739.336 129.299 754.67C129.801 757.427 129.968 760.561 129.884 763.862C127.586 773.555 124.495 782.496 119.899 793.777C116.89 801.13 108.743 807.439 108.534 810.113C108.033 816.296 122.865 816.338 127.712 816.798C133.812 817.174 141.165 817.174 146.597 814.249C153.783 810.531 156.791 803.052 154.702 795.197C156.541 793.108 158.672 789.055 155.705 776.187C154.034 768.792 157.752 773.053 155.956 765.575C147.767 732.819 164.27 698.558 165.44 663.546C165.858 659.159 166.276 654.73 166.359 650.343C166.485 642.029 165.148 622.476 164.354 614.538C164.354 614.036 164.27 613.451 164.27 612.992C165.482 606.098 167.446 599.204 168.657 593.773C172.292 576.35 172.543 559.136 176.094 543.134C183.155 511.506 194.979 463.626 193.141 446.036C193.266 446.12 193.434 446.161 193.559 446.203V446.412C193.559 446.412 193.768 446.412 193.977 446.412C194.186 446.454 194.394 446.496 194.729 446.496C194.771 446.496 194.854 446.496 194.854 446.496C194.896 446.496 194.938 446.496 194.979 446.496C195.188 446.496 195.523 446.496 195.732 446.412C195.857 446.412 195.94 446.412 196.066 446.412V446.203C196.316 446.161 196.442 446.078 196.567 446.036C194.771 463.626 206.469 511.506 213.614 543.134C217.123 559.095 217.374 576.35 220.967 593.773C222.179 599.204 224.143 606.098 225.396 612.992C225.396 613.451 225.313 614.036 225.271 614.538C224.644 622.476 223.224 642.029 223.391 650.343C223.474 654.689 223.767 659.159 224.393 663.546C225.396 698.558 241.983 732.86 233.92 765.575C231.956 773.053 235.758 768.792 234.087 776.187C231.078 789.014 233.167 793.108 235.006 795.197C233.042 803.094 236.05 810.531 243.111 814.249C248.626 817.132 256.105 817.174 262.038 816.798C266.843 816.296 281.801 816.255 281.216 810.113C281.049 807.481 272.818 801.13 269.893 793.777C265.297 782.496 262.164 773.555 259.949 763.862C259.907 760.561 259.991 757.427 260.451 754.67C263.208 739.378 267.971 711.009 270.102 695.801C272.442 680.342 274.322 674.409 273.027 657.446C272.901 655.817 272.734 654.062 272.567 652.265C272.525 650.135 272.4 648.046 272.275 645.706C271.105 630.038 265.757 616.083 264.503 600.625C264.461 599.956 264.42 599.12 264.378 598.494C264.378 598.16 264.378 597.658 264.336 597.282C264.336 596.864 264.336 596.238 264.336 595.862C264.336 595.235 264.336 594.483 264.336 593.856C264.545 577.979 263.877 565.403 267.679 550.738C271.439 535.572 269.977 524.458 268.013 508.08C267.804 506.576 267.846 508.08 267.804 506.576C265.13 404.966 249.462 374.424 247.122 360.762C246.997 359.717 246.83 358.923 246.705 357.921C246.997 357.503 247.122 337.573 249.17 325.791C250.381 318.772 253.264 312.38 254.935 305.695C256.231 300.723 254.726 289.275 256.272 282.465C254.977 283.217 254.685 261.198 254.685 253.845C257.192 258.232 260.367 262.786 264.294 267.674C268.347 273.022 288.444 318.104 290.575 322.532C296.925 335.15 294.419 352.698 300.143 367.196C300.644 368.115 301.062 369.201 301.438 370.288C301.647 370.747 301.856 371.249 302.232 371.875C302.357 372.168 302.482 372.46 302.608 372.753C305.825 380.357 309.376 388.337 311.382 396.484C312.677 401.707 313.429 406.846 312.802 411.943C312.134 419.798 307.747 426.274 309.669 434.129C312.384 444.992 310.337 454.476 311.967 455.98C312.301 455.98 311.967 455.98 312.259 455.938C322.036 454.183 314.348 437.095 318.861 432.457C322.412 437.805 323.874 448.543 323.707 454.894C323.582 460.576 320.908 468.765 327.593 466.759C327.593 466.759 327.593 466.759 328.178 464.085C328.136 464.002 328.094 463.876 328.22 463.876C334.069 464.336 334.57 459.698 336.952 455.144C340.629 447.833 342.091 433.753 339.501 424.77H339.542Z" fill="#E8D4B5"/>
<path d="M324.838 421.511C325.757 421.72 329.35 427.862 331.188 435.884C333.069 443.906 333.152 442.61 332.86 432.625C332.567 422.639 329.099 407.306 325.381 398.782C322.749 392.724 320.827 388.003 319.74 386.248C319.657 376.346 307.833 300.932 306.078 293.621C304.031 285.223 297.178 262.327 288.196 243.526C279.213 224.724 270.815 209.015 271.232 206.926C271.441 205.756 271.525 204.502 271.441 203.165C270.731 193.556 264.506 191.3 256.734 191.133C244.868 190.882 235.51 187.999 233.044 184.281C230.579 180.562 227.404 181.815 227.32 184.197C227.237 186.578 220.092 189.503 213.282 192.386C206.43 195.269 201.165 199.405 200.748 200.199C200.33 200.993 205.009 203.75 211.527 200.909C218.045 198.068 224.396 195.06 226.151 195.185C227.947 195.311 231.331 199.489 236.011 201.452C240.69 203.416 243.866 209.683 248.503 214.363C253.183 219.042 261.414 235.378 271.776 254.263C282.096 273.148 292.039 287.562 291.998 287.604C291.956 287.646 291.287 292.576 291.998 298.551C292.75 304.525 296.635 326.377 302.861 347.434C303.237 348.646 303.613 349.899 303.989 351.111C307.248 361.598 310.632 371.165 313.097 378.268C312.512 377.433 311.927 376.68 311.342 376.054C312.763 380.942 314.267 385.872 315.353 390.886C315.27 390.928 315.228 391.304 315.228 391.972C315.228 393.184 315.353 393.852 315.52 393.518C315.646 393.267 315.688 392.766 315.646 392.181C315.938 393.602 316.189 394.98 316.398 396.401C316.398 398.908 316.523 402.041 316.774 405.259C315.771 408.643 316.44 412.445 315.312 415.829C313.515 417.667 311.802 420.091 311.008 422.973C309.086 430.118 310.507 436.176 311.593 436.176C312.679 436.176 313.222 431.455 314.351 425.773C314.977 422.639 317.317 419.547 319.114 417.082C320.827 423.015 323.041 429.366 324.503 434.254C325.506 437.638 326.3 439.56 326.843 440.187C326.467 445.744 323.793 457.61 326.885 460.534C330.896 457.359 329.684 445.535 327.303 440.271C327.553 439.769 327.512 438.015 327.01 434.756C325.757 426.943 323.918 421.26 324.838 421.469V421.511ZM298.056 280.836C297.847 282.256 296.594 284.22 295.257 285.223C293.92 286.225 289.282 270.056 278.461 251.84C267.639 233.624 263.712 216.702 264.506 216.285C265.299 215.867 276.455 227.983 286.023 245.698C295.549 263.413 298.265 279.457 298.056 280.877V280.836ZM308.083 349.774C307.958 349.147 307.833 348.562 307.666 347.977C302.944 326.544 299.351 310.249 300.27 309.372C308.083 302.06 308.042 349.774 318.863 385.705C318.403 387.167 312.805 371.207 308.042 349.774H308.083Z" fill="white"/>
<path d="M239.687 777.817C239.561 776.981 239.478 776.981 239.603 777.817C239.728 778.652 239.812 778.652 239.687 777.817Z" fill="white"/>
<path d="M243.616 802.802C243.616 802.802 243.574 802.635 243.407 802.76C243.24 802.844 242.989 802.885 242.78 802.844C242.571 802.802 242.404 802.927 242.362 803.136C242.362 803.345 240.524 804.724 240.357 807.022C240.148 809.32 247.794 814.542 249.005 809.528C250.217 804.515 243.574 802.927 243.616 802.802Z" fill="white"/>
<path d="M260.62 802.801C258.531 802.091 257.194 803.762 256.734 803.47C256.233 803.177 257.027 802.717 258.489 802.133C259.951 801.548 261.33 799.375 261.372 797.453C261.372 795.531 257.277 795.489 252.514 797.077C247.751 798.665 244.409 799.667 245.203 799.667C245.997 799.667 246.581 801.38 248.002 802.509C249.423 803.595 250.843 804.18 250.927 804.974C251.01 805.767 250.885 807.397 250.843 808.734C250.843 810.071 252.765 811.408 254.645 811.366C256.525 811.324 258.155 810.823 258.197 810.489C258.238 810.154 258.447 809.569 258.615 809.193C258.782 808.817 260.244 809.569 262.166 809.36C264.088 809.152 265.299 809.987 266.219 811.241C267.138 812.494 272.152 809.611 270.313 805.517C268.475 801.422 262.625 803.511 260.536 802.801H260.62Z" fill="white"/>
<path d="M243.281 794.654C243.365 794.403 246.582 796.075 250.175 794.571C253.727 793.067 252.807 788.178 249.799 787.301C246.791 786.423 244.242 786.423 243.992 785.128C243.741 783.791 243.657 782.956 243.95 783.123C244.242 783.29 244.618 783.332 244.744 783.29C244.869 783.206 244.953 783.582 244.911 784.125C244.911 784.669 246.582 783.917 248.838 782.621C251.094 781.326 254.019 775.602 251.846 768.207C249.674 760.812 246.707 755.088 246.707 754.837C246.707 754.587 247.042 753.25 247.292 751.829C247.585 750.408 247.752 749.823 247.752 750.492C247.752 751.16 247.752 751.161 247.752 750.408C247.752 749.656 250.133 731.398 251.554 709.463C253.894 673.323 255.022 627.072 253.016 609.065C252.975 608.48 252.891 607.895 252.808 607.31C252.724 606.683 252.64 606.056 252.557 605.43C252.39 604.427 258.699 599.162 257.905 590.848C257.111 582.534 255.314 576.016 254.479 567.869C253.643 559.722 252.473 546.728 252.39 545.683C252.39 545.683 250.342 487.274 246.457 465.631C245.955 462.79 245.078 432.249 244.033 429.7C242.028 424.854 238.518 422.89 235.092 422.096C231.123 421.135 227.279 421.762 226.36 421.135C227.572 418.879 228.783 417.166 230.246 417.375C232.168 417.667 233.421 418.461 233.505 418.921C233.588 419.38 235.301 420.55 237.307 421.344C239.27 422.138 244.075 421.553 246.331 418.503C248.588 415.453 247.125 406.136 244.953 399.367C244.702 398.615 244.409 397.821 244.117 397.069C244.368 395.106 245.705 393.267 245.538 391.429C245.245 387.711 242.864 387.293 240.315 386.624C240.064 386.415 239.772 386.29 239.437 386.206C239.312 386.165 239.145 386.123 238.978 386.081C238.727 385.998 238.435 385.956 238.142 385.872C238.142 385.872 238.142 385.872 238.101 385.872C237.933 385.789 237.766 385.705 237.641 385.622C237.557 385.58 237.474 385.496 237.39 385.454C235.928 381.987 240.733 375.678 241.652 371.249C242.028 370.706 242.32 370.121 242.529 369.494C242.738 369.118 242.864 368.7 242.989 368.324C243.072 367.99 243.114 367.656 243.156 367.322C243.156 367.196 243.198 367.071 243.198 366.946C243.198 366.82 243.156 366.695 243.156 366.57C243.072 365.776 242.822 364.94 242.237 364.021C240.566 361.514 237.85 361.222 234.549 362.141C233.129 362.517 231.207 363.185 229.118 364.021C224.605 365.107 219.007 366.904 214.411 369.996C207.935 374.383 201.542 363.018 199.913 350.066C199.913 348.102 200.08 346.097 199.913 344.05C200.748 318.062 203.171 324.371 210.692 329.092C215.288 331.975 224.062 330.931 229.661 328.674C235.51 326.335 241.109 317.937 244.911 310.249C247.501 305.027 247.836 299.72 246.916 298.342C246.916 298.342 244.159 303.731 240.607 309.623C237.056 315.472 232.084 319.023 226.026 321.446C221.096 323.41 212.405 322.658 208.436 320.235C204.676 317.895 202.085 313.968 200.497 310.375C200.33 309.915 200.163 309.455 199.996 308.996C199.745 308.202 199.536 307.408 199.369 306.74C199.369 306.656 199.369 306.573 199.328 306.489C199.202 305.82 199.119 305.194 199.077 304.734C199.077 304.525 199.077 304.358 199.202 304.233C199.286 304.107 199.411 304.066 199.578 304.024C202.085 303.606 213.074 310.876 226.736 303.314C235.05 298.718 246.331 285.933 247.209 285.181C249.047 276.365 233.421 294.498 224.48 298.384C211.945 303.815 201.918 294.289 199.077 290.571C199.077 290.571 199.077 290.529 199.035 290.487C198.826 290.153 198.701 289.86 198.701 289.777C198.701 289.025 198.701 288.273 198.659 287.479C198.701 286.184 198.743 284.93 198.784 283.635C198.784 283.468 198.91 283.426 199.077 283.384C200.999 282.925 213.115 290.403 228.031 284.512C241.568 279.164 251.011 266.839 249.507 265.251C247.209 263.914 238.56 276.198 223.978 279.833C212.029 282.799 202.67 276.783 199.578 272.145V272.062C199.411 271.811 199.202 271.56 199.077 271.351C198.993 271.017 198.91 270.725 198.91 270.474C198.91 270.014 198.993 269.638 199.077 269.304C199.16 269.095 199.286 268.886 199.411 268.719C200.79 266.797 205.093 267.424 211.235 268.093C216.332 268.636 221.597 268.218 224.856 267.09C227.739 266.087 229.995 264.834 231.875 263.497C250.092 250.67 252.724 245.071 251.763 241.729C251.763 241.604 252.348 238.637 242.195 248.832C239.396 251.673 237.641 255.391 224.939 261.282C214.745 266.003 203.046 259.026 199.286 254.848C198.952 254.43 198.575 254.012 198.367 253.678C198.367 253.595 198.283 253.469 198.283 253.386C198.2 251.673 198.158 249.96 198.116 248.205V247.954C198.116 247.954 205.637 254.138 216.416 253.135C227.196 252.174 234.048 245.823 233.839 246.074C233.672 246.367 238.393 244.194 243.741 240.183C247.292 237.509 249.966 232.663 248.755 230.741C248.295 229.153 242.404 234.71 240.816 235.378C237.14 236.924 231.959 244.319 219.466 245.197C210.107 245.865 202.628 241.269 199.453 237.718C198.993 237.175 198.576 236.673 198.325 236.256C198.283 236.047 198.116 235.838 198.116 235.671C198.116 235.002 198.659 234.793 199.537 234.835C202.252 234.961 208.77 237.509 217.544 236.506C229.285 235.169 240.315 226.98 242.864 223.68C244.159 222.008 243.992 220.504 243.323 219.543C242.947 217.956 241.276 217.078 240.315 218.123C238.811 219.669 229.995 227.106 218.547 229.947C213.366 231.242 208.603 227.732 204.968 221.632C202.963 218.039 201.375 213.611 200.205 208.806C200.205 208.722 200.205 208.639 200.205 208.555C198.993 203.374 198.241 197.776 198.283 192.094C198.408 174.713 200.163 159.964 202.127 154.742C202.378 154.24 202.628 153.864 202.921 153.739C205.344 152.318 210.859 149.519 213.282 145.633C214.202 144.129 215.204 142.124 216.082 139.909C217.711 136.149 219.132 131.637 219.633 128.169C220.093 125.203 219.926 122.821 219.759 121.442C219.926 121.484 220.176 121.526 220.427 121.526C222.265 121.526 225.817 120.565 226.903 117.306C227.279 116.638 227.572 115.886 227.655 114.925C227.906 111.958 226.36 108.532 225.942 104.563C225.65 102.014 223.728 98.8808 223.394 95.5384C222.934 91.235 224.772 86.8898 224.814 82.3775C225.023 62.8242 216.04 56.3482 197.113 56.1393C196.278 56.1393 195.484 56.2228 194.648 56.2646C193.812 56.2228 193.019 56.0975 192.183 56.1393C173.256 56.3482 164.231 62.8659 164.482 82.3775C164.524 86.8898 166.362 91.235 165.903 95.5384C165.527 98.8808 163.646 102.014 163.354 104.563C162.936 108.532 161.39 111.958 161.641 114.925C161.725 115.886 162.017 116.638 162.393 117.306C163.479 120.607 167.031 121.568 168.869 121.526C169.12 121.526 169.37 121.526 169.538 121.442C169.37 122.821 169.203 125.244 169.663 128.169C169.788 129.005 169.997 129.924 170.206 130.885C170.206 130.885 170.206 130.927 170.206 130.968C170.29 131.261 170.373 131.553 170.457 131.804C170.916 133.517 171.46 135.272 172.086 136.985C172.462 137.988 172.838 138.99 173.256 139.909C173.632 140.87 174.05 141.748 174.426 142.583C174.51 142.709 174.551 142.918 174.635 143.043C175.095 144.004 175.596 144.881 176.055 145.633C178.479 149.519 183.994 152.318 186.417 153.739C186.668 153.906 186.919 154.24 187.211 154.742C189.175 159.964 190.93 174.713 191.055 192.094C191.055 197.776 190.345 203.374 189.133 208.555C189.133 208.639 189.133 208.722 189.133 208.806C187.963 213.611 186.375 218.039 184.37 221.632C180.735 227.732 175.972 231.242 170.791 229.947C159.343 227.106 150.527 219.669 149.023 218.123C148.062 217.12 146.391 217.956 146.015 219.543C145.346 220.463 145.221 222.008 146.474 223.68C149.023 226.98 160.053 235.169 171.794 236.506C180.568 237.509 187.086 234.961 189.802 234.835C190.679 234.835 191.222 235.002 191.222 235.713C191.222 235.88 191.097 236.089 191.013 236.297C190.762 236.757 190.345 237.217 189.885 237.718C186.71 241.311 179.231 245.907 169.872 245.239C157.379 244.361 152.198 236.966 148.522 235.42C146.934 234.752 141.001 229.195 140.583 230.782C139.372 232.704 142.046 237.551 145.597 240.225C150.945 244.194 155.666 246.367 155.499 246.116C155.29 245.823 162.142 252.174 172.922 253.177C183.701 254.138 191.222 247.829 191.222 247.996V248.247C191.18 250.002 191.097 251.715 191.055 253.428C191.055 253.511 191.013 253.636 190.971 253.72C190.762 254.054 190.428 254.472 190.052 254.89C186.334 259.068 174.593 266.045 164.399 261.324C151.697 255.433 149.984 251.673 147.143 248.873C136.99 238.679 137.575 241.645 137.575 241.771C136.572 245.071 139.246 250.712 157.463 263.538C159.343 264.875 161.599 266.087 164.482 267.132C167.741 268.301 173.047 268.719 178.103 268.134C184.245 267.466 188.548 266.797 189.927 268.761C190.052 268.928 190.178 269.137 190.261 269.346C190.386 269.68 190.47 270.056 190.428 270.516C190.428 270.767 190.386 271.059 190.261 271.393C190.136 271.644 189.927 271.895 189.76 272.104V272.187C186.668 276.825 177.309 282.883 165.359 279.875C150.778 276.24 142.171 263.956 139.831 265.293C138.327 266.881 147.77 279.206 161.307 284.554C176.223 290.445 188.339 282.966 190.261 283.384C190.261 283.384 190.554 283.51 190.554 283.677C190.595 284.972 190.637 286.225 190.679 287.521C190.679 288.273 190.679 289.066 190.637 289.819C190.637 289.944 190.512 290.194 190.303 290.529C190.303 290.529 190.303 290.571 190.261 290.612C187.42 294.331 177.392 303.857 164.858 298.425C155.917 294.54 140.291 276.407 142.129 285.223C143.007 285.975 154.246 298.76 162.602 303.355C176.264 310.918 187.253 303.606 189.76 304.066C189.927 304.066 190.052 304.149 190.136 304.275C190.219 304.4 190.261 304.567 190.261 304.776C190.261 305.277 190.177 305.862 190.01 306.531C190.01 306.614 190.01 306.698 189.969 306.781C189.801 307.492 189.634 308.244 189.342 309.038C189.175 309.497 189.049 309.915 188.84 310.416C187.253 314.009 184.662 317.937 180.902 320.277C176.933 322.742 168.242 323.494 163.312 321.488C157.254 319.065 152.282 315.555 148.731 309.664C145.179 303.815 142.422 298.384 142.422 298.384C141.461 299.762 141.795 305.068 144.427 310.291C148.229 317.937 153.828 326.335 159.677 328.716C165.276 330.972 174.092 332.017 178.646 329.134C186.167 324.413 188.59 318.104 189.425 344.092C189.258 346.139 189.425 348.186 189.425 350.108C187.796 363.06 181.403 374.424 174.927 370.037C170.373 366.904 164.775 365.107 160.22 364.063C159.385 363.728 158.591 363.478 157.839 363.185C156.711 362.768 155.624 362.433 154.789 362.183C153.953 361.932 153.159 361.807 152.407 361.723C150.151 361.514 148.313 362.141 147.059 364.063C145.681 366.152 145.889 367.948 146.725 369.578C146.934 370.204 147.226 370.789 147.603 371.333C148.522 375.761 153.327 382.07 151.864 385.538C151.781 385.58 151.697 385.663 151.614 385.705C151.446 385.789 151.279 385.872 151.154 385.956C151.154 385.956 151.154 385.956 151.112 385.956C150.82 386.039 150.569 386.081 150.276 386.165C150.109 386.165 149.984 386.248 149.817 386.29C149.483 386.415 149.148 386.541 148.94 386.75C146.391 387.46 144.009 387.878 143.717 391.554C143.55 393.434 144.929 395.231 145.137 397.195C144.887 397.947 144.553 398.741 144.302 399.493C142.422 405.384 141.043 413.28 142.255 417.166C142.422 417.709 142.631 418.21 142.923 418.586C144.636 420.884 147.728 421.762 150.026 421.762C150.778 421.762 151.446 421.637 151.948 421.428C153.911 420.634 155.666 419.464 155.75 419.004C155.833 418.545 157.087 417.751 159.009 417.458C160.137 417.291 161.098 418.21 162.017 419.631C162.309 420.091 162.644 420.634 162.936 421.177C161.975 421.804 158.173 421.177 154.204 422.138C150.778 422.932 147.226 424.895 145.263 429.742C144.218 432.291 143.383 462.832 142.839 465.673C138.954 487.274 136.907 545.725 136.907 545.725C136.781 546.77 135.611 559.722 134.817 567.911C133.982 576.058 132.185 582.617 131.391 590.89C130.598 599.204 136.906 604.469 136.739 605.471C136.656 606.056 136.572 606.683 136.489 607.352C136.405 607.936 136.322 608.521 136.28 609.106C134.274 627.114 135.402 673.365 137.742 709.505C139.163 731.398 141.544 749.656 141.544 750.45C141.544 751.202 141.544 751.244 141.544 750.534C141.544 749.824 141.711 750.408 142.004 751.871C142.296 753.291 142.589 754.628 142.589 754.879C142.589 755.13 139.622 760.854 137.45 768.249C135.277 775.644 138.202 781.368 140.458 782.663C142.714 783.958 144.427 784.71 144.385 784.167C144.385 783.624 144.427 783.248 144.552 783.332C144.678 783.415 145.054 783.332 145.346 783.164C145.639 782.997 145.555 783.875 145.305 785.17C145.054 786.507 142.505 786.465 139.497 787.343C136.489 788.22 135.57 793.108 139.121 794.612C142.672 796.116 145.931 794.445 146.015 794.696C146.098 794.947 150.235 794.445 151.363 790.643C152.491 786.841 149.566 783.081 149.608 781.744C149.65 780.449 149.608 780.365 149.399 781.577C149.19 782.788 148.981 783.749 148.94 783.708C148.898 783.666 148.605 782.956 148.355 782.162C148.062 781.326 150.778 773.722 150.276 764.697C149.775 755.673 146.6 750.241 145.597 752.247C144.594 754.211 147.477 738.752 150.778 717.443C152.742 704.826 154.162 692.083 154.664 678.671C155.207 664.633 155.332 650.093 154.664 636.055C154.58 634.634 154.455 633.13 154.246 631.542C153.911 629.036 154.246 621.264 153.87 614.12C153.494 606.975 150.276 601.795 150.276 601.669C150.276 601.544 150.36 600.917 150.444 600.374C150.527 599.789 152.783 595.736 152.825 590.765C152.825 587.255 151.948 583.996 150.235 582.408L149.775 582.074C149.524 581.865 153.661 576.852 155.165 569.331C156.669 561.811 154.872 555.126 154.872 554.583C154.872 553.998 156.084 548.023 157.045 541.087C158.006 534.152 157.338 528.637 157.129 528.887C156.92 529.138 161.892 479.753 162.644 475.492C166.32 453.849 169.83 437.43 168.117 436.302C155.248 427.945 156.126 499.348 153.744 509.627C150.068 525.628 149.9 540.502 149.232 542.257C148.563 544.012 145.263 575.18 145.263 571.42C145.263 570.459 138.285 583.829 140.416 562.98C140.583 561.435 143.675 535.155 143.341 528.846C143.132 524.876 142.965 520.991 143.048 517.398C144.385 499.181 151.572 467.595 153.034 449.17C154.079 436.009 150.235 436.343 166.32 427.068C167.156 428.321 167.825 429.282 167.741 429.784C167.657 430.452 169.538 431.413 172.045 431.288C172.045 431.288 172.128 431.288 172.17 431.288C172.755 431.538 173.423 431.33 173.883 430.954C174.384 430.828 174.886 430.619 175.429 430.41C176.348 429.993 177.184 429.533 178.019 429.115C178.813 426.316 180.275 423.725 182.448 421.386C185.582 417.96 189.969 416.414 194.481 416.038C198.993 416.414 203.38 417.96 206.514 421.386C208.143 423.141 209.355 425.062 210.232 427.068C210.525 427.736 210.776 428.447 210.943 429.115C211.778 429.533 212.614 429.993 213.533 430.41C214.035 430.661 214.578 430.828 215.079 430.954C215.58 431.33 216.207 431.538 216.792 431.288C216.792 431.288 216.876 431.288 216.917 431.288C219.424 431.413 221.304 430.41 221.221 429.784C221.137 429.282 221.806 428.321 222.641 427.068C238.727 436.301 234.883 436.009 235.928 449.17C237.39 467.595 244.577 499.181 245.914 517.398C245.955 520.991 245.788 524.835 245.621 528.846C245.287 535.155 248.379 561.476 248.546 562.98C250.677 583.871 243.699 570.459 243.699 571.42C243.699 575.18 240.357 544.012 239.73 542.257C239.061 540.502 238.894 525.67 235.218 509.627C232.878 499.348 233.713 427.945 220.845 436.302C219.132 437.43 222.6 453.849 226.318 475.492C227.028 479.753 232.042 529.096 231.833 528.887C231.624 528.679 230.956 534.194 231.917 541.087C232.878 548.023 234.131 553.998 234.089 554.583C234.089 555.167 232.293 561.811 233.797 569.331C235.301 576.852 239.437 581.865 239.187 582.074L238.727 582.408C237.056 583.996 236.137 587.255 236.137 590.765C236.179 595.695 238.435 599.789 238.518 600.374C238.602 600.959 238.685 601.544 238.685 601.669C238.685 601.795 235.468 606.975 235.092 614.12C234.716 621.264 235.051 629.036 234.716 631.542C234.507 633.13 234.382 634.634 234.298 636.055C233.63 650.093 233.755 664.633 234.298 678.671C234.8 692.083 236.262 704.826 238.184 717.443C241.485 738.752 244.368 754.211 243.365 752.247C242.362 750.283 239.187 755.715 238.685 764.697C238.184 773.722 240.858 781.326 240.607 782.162C240.315 782.997 240.064 783.666 240.022 783.708C239.981 783.749 239.772 782.788 239.563 781.577C239.354 780.365 239.27 780.407 239.354 781.744C239.396 783.039 236.471 786.799 237.599 790.643C238.727 794.445 242.864 794.947 242.947 794.696L243.281 794.654ZM208.227 135.982C208.227 135.982 207.934 135.899 207.767 135.857H207.684C206.932 135.523 206.305 134.77 206.18 133.977C206.054 133.057 206.013 132.138 206.013 131.219C206.013 128.462 206.514 125.746 207.224 123.03C207.517 121.944 208.478 121.526 209.397 121.651C209.689 121.651 209.982 121.777 210.232 121.944C210.232 121.818 210.316 121.777 210.316 121.693C210.441 121.777 210.567 121.86 210.65 121.944C210.65 121.61 210.692 121.275 210.734 121.025C210.734 121.025 210.734 121.025 210.734 120.983C210.985 120.774 211.319 120.649 211.695 120.649C212.029 120.649 212.405 120.69 212.739 120.858C213.408 121.15 213.993 121.777 214.076 122.57C214.536 127.041 213.324 131.177 211.444 135.188C210.567 135.731 209.48 136.066 208.185 136.024L208.227 135.982ZM204.926 95.4966C206.138 94.2014 207.726 93.2405 209.397 92.6973C210.441 93.1987 211.444 93.8254 212.363 94.7446C215.288 97.5857 217.293 102.223 215.664 106.192C214.285 109.618 210.817 110.914 207.35 110.955C206.932 110.788 206.514 110.621 206.138 110.412C205.428 110.078 205.135 109.493 205.177 108.908C203.673 107.738 202.545 106.192 202.085 104.229C201.333 101.053 202.795 97.8363 204.926 95.5384V95.4966ZM141.795 644.118C141.795 622.184 143.215 604.427 144.845 603.967C146.474 603.508 147.435 606.85 148.313 611.864C149.19 616.877 150.485 635.762 149.817 654.104C149.399 665.343 148.731 676.498 147.603 687.32C146.809 695.174 145.764 703.029 144.845 710.884C143.299 723.878 142.505 727.722 142.255 719.407C142.004 711.051 141.837 704.324 141.837 704.324V644.118H141.795ZM163.521 381.402C161.933 379.354 159.97 377.767 157.964 376.179C157.421 375.469 156.836 374.8 156.293 374.048C155.959 373.547 155.959 373.004 156.126 372.502C156.042 372.001 156 371.541 156 371.082C155.959 369.202 158.131 368.659 159.385 369.661C162.686 372.293 165.318 374.884 166.404 378.561C166.78 378.937 167.156 379.354 167.49 379.73C167.24 379.814 166.947 379.856 166.697 379.856C166.78 381.485 164.9 382.948 163.438 381.443L163.521 381.402ZM197.698 116.262C197.698 116.262 197.823 116.638 197.823 116.847V119.103C197.823 119.395 197.782 119.604 197.698 119.855C197.615 119.729 197.531 119.562 197.489 119.437C197.28 118.936 197.197 118.225 197.155 117.64C197.155 117.139 197.364 116.638 197.74 116.262H197.698ZM192.475 117.64C192.475 118.184 192.35 118.894 192.141 119.437C192.099 119.604 191.974 119.729 191.932 119.855C191.849 119.646 191.807 119.395 191.807 119.103V116.847C191.807 116.638 191.849 116.429 191.932 116.262C192.308 116.638 192.559 117.097 192.517 117.64H192.475ZM183.367 134.018C183.284 134.812 182.615 135.606 181.863 135.899H181.78C181.612 135.94 181.487 135.982 181.32 136.024C180.025 136.066 178.938 135.773 178.061 135.188C176.181 131.177 175.011 127.041 175.429 122.57C175.512 121.777 176.055 121.15 176.766 120.858C177.1 120.69 177.476 120.649 177.81 120.649C178.145 120.649 178.479 120.774 178.729 120.983C178.729 120.983 178.729 120.983 178.729 121.025C178.771 121.317 178.813 121.61 178.813 121.944C178.897 121.818 179.022 121.777 179.147 121.693C179.147 121.777 179.231 121.86 179.231 121.944C179.482 121.777 179.774 121.693 180.066 121.651C180.986 121.526 181.947 121.944 182.239 123.03C182.991 125.704 183.451 128.462 183.451 131.219C183.451 132.138 183.409 133.057 183.284 133.977L183.367 134.018ZM187.462 104.187C187.002 106.151 185.832 107.697 184.37 108.866C184.37 109.451 184.119 110.036 183.409 110.371C183.033 110.579 182.615 110.747 182.197 110.914C178.688 110.914 175.262 109.577 173.883 106.151C172.295 102.14 174.301 97.5021 177.184 94.7028C178.103 93.8254 179.105 93.157 180.15 92.6556C181.863 93.1987 183.409 94.1597 184.621 95.4549C186.751 97.7528 188.214 100.97 187.462 104.145V104.187ZM193.812 119.103C193.729 118.267 193.395 117.473 193.311 116.638C193.186 115.51 193.938 114.966 194.773 114.841C195.609 114.966 196.319 115.51 196.236 116.638C196.152 117.473 195.818 118.267 195.734 119.103C195.651 119.855 195.275 120.356 194.773 120.649C194.272 120.314 193.896 119.813 193.812 119.103ZM226.026 381.402C224.563 382.906 222.725 381.485 222.767 379.814C222.474 379.814 222.224 379.814 221.973 379.689C222.349 379.313 222.725 378.937 223.059 378.519C224.146 374.842 226.778 372.252 230.079 369.619C231.332 368.617 233.546 369.118 233.463 371.04C233.463 371.5 233.421 372.001 233.337 372.461C233.505 372.962 233.546 373.547 233.17 374.007C232.669 374.759 232.084 375.427 231.499 376.137C229.535 377.725 227.572 379.313 225.942 381.36L226.026 381.402ZM241.944 687.361C240.816 676.54 240.148 665.385 239.73 654.146C239.061 635.762 240.357 616.919 241.234 611.906C242.112 606.892 243.031 603.549 244.702 604.009C246.331 604.469 247.752 622.184 247.752 644.16V704.366C247.752 704.366 247.543 711.135 247.334 719.449C247.083 727.805 246.29 723.961 244.744 710.926C243.825 703.071 242.78 695.258 241.986 687.361H241.944Z" fill="white"/>
<path d="M150.232 778.778C150.358 777.942 150.274 777.942 150.149 778.778C150.024 779.613 150.107 779.613 150.232 778.778Z" fill="white"/>
<path d="M141.752 214.405C146.432 209.725 149.565 203.458 154.245 201.494C158.924 199.531 162.35 195.353 164.105 195.227C165.86 195.102 172.211 198.152 178.729 200.951C185.247 203.792 189.926 201.035 189.508 200.241C189.09 199.447 183.826 195.269 176.974 192.428C170.122 189.545 162.977 186.621 162.935 184.239C162.852 181.858 159.676 180.604 157.211 184.323C154.746 188.041 145.387 190.924 133.521 191.175C125.75 191.342 119.525 193.598 118.814 203.207C118.731 204.544 118.815 205.84 119.023 206.968C119.399 209.015 111.001 224.766 102.06 243.568C93.0773 262.369 86.2252 285.265 84.1779 293.663C82.4231 300.932 70.5573 376.388 70.5155 386.29C69.4292 388.045 67.549 392.766 64.875 398.824C61.1565 407.348 57.6469 422.681 57.3962 432.667C57.1455 442.652 57.1873 443.948 59.0674 435.926C60.9476 427.904 64.5408 421.762 65.4182 421.553C66.3374 421.344 64.5408 427.026 63.2455 434.839C61.9921 442.652 63.3709 442.443 65.7524 434.338C67.2148 429.45 69.4709 423.099 71.1422 417.166C72.9805 419.631 75.2785 422.723 75.9052 425.857C77.0333 431.539 77.5765 436.26 78.6628 436.26C79.7491 436.26 81.1697 430.202 79.2477 423.057C78.0361 418.67 74.6936 415.203 72.1032 413.615C72.7299 411.108 73.1895 408.727 73.3984 406.679C74.1087 399.117 73.9833 391.972 73.3984 390.719C72.8135 389.466 79.7491 372.168 86.267 351.195C86.643 349.983 87.019 348.771 87.395 347.518C93.6204 326.46 97.4643 304.567 98.2582 298.634C99.0102 292.66 98.3417 287.771 98.2582 287.688C98.2164 287.646 108.16 273.232 118.48 254.347C128.8 235.462 137.073 219.126 141.752 214.446V214.405ZM82.5485 347.894C82.4231 348.521 82.2978 349.105 82.1306 349.69C77.4094 371.124 71.8107 387.084 71.3093 385.622C82.1307 349.69 82.0471 301.977 89.9019 309.289C90.8211 310.166 87.2697 326.419 82.5067 347.894H82.5485ZM94.9574 285.139C93.6204 284.137 92.3252 282.173 92.1581 280.752C91.9492 279.332 94.665 263.246 104.191 245.573C113.717 227.858 124.915 215.742 125.708 216.159C126.502 216.577 122.575 233.498 111.753 251.715C100.932 269.931 96.2944 286.142 94.9574 285.098V285.139Z" fill="white"/>
<path d="M74.6933 391.387C74.5262 392.223 74.5679 393.225 74.7351 393.601C74.9022 393.977 75.0276 393.267 75.0276 392.056C75.0276 390.844 74.8604 390.551 74.6933 391.387Z" fill="white"/>
<path d="M61.6162 454.225C61.6162 457.066 61.9505 457.066 61.9505 454.225C61.9505 451.384 61.6162 451.384 61.6162 454.225Z" fill="white"/>
<path d="M150.652 777.858C150.778 777.023 150.694 777.023 150.569 777.858C150.444 778.694 150.527 778.694 150.652 777.858Z" fill="white"/>
<path d="M147.394 802.843C147.394 802.843 146.934 802.843 146.767 802.759C146.6 802.676 146.516 802.676 146.558 802.801C146.6 802.927 139.957 804.514 141.168 809.528C142.38 814.542 149.984 809.277 149.817 807.021C149.608 804.723 147.811 803.344 147.811 803.135C147.811 802.926 147.602 802.801 147.394 802.843Z" fill="white"/>
<path d="M142.254 802.509C143.674 801.422 144.259 799.668 145.053 799.668C145.847 799.668 142.546 798.707 137.741 797.077C132.936 795.49 128.842 795.489 128.884 797.453C128.884 799.375 130.304 801.548 131.767 802.133C133.229 802.718 134.023 803.177 133.521 803.47C133.02 803.762 131.725 802.091 129.636 802.801C127.547 803.511 121.697 801.422 119.859 805.517C118.02 809.611 123.034 812.494 123.953 811.241C124.873 809.987 126.084 809.152 128.006 809.361C129.928 809.569 131.39 808.818 131.558 809.194C131.725 809.57 131.934 810.154 131.975 810.489C132.017 810.823 133.647 811.366 135.527 811.366C137.407 811.366 139.371 810.071 139.329 808.734C139.329 807.397 139.162 805.767 139.245 804.974C139.329 804.18 140.749 803.595 142.17 802.509H142.254Z" fill="white"/>
<path d="M240.062 778.778C239.936 777.942 239.853 777.942 239.978 778.778C240.103 779.613 240.187 779.613 240.062 778.778Z" fill="white"/>
<path d="M332.317 440.646C331.607 446.161 331.774 452.094 331.439 457.484C333.57 454.016 336.119 445.869 333.32 442.109L332.317 440.604V440.646Z" fill="white"/>
<path d="M334.781 429.7H334.279C334.279 433.795 335.073 438.015 335.366 442.067C337.872 438.934 336.953 433.252 334.781 429.7Z" fill="white"/>
<rect width="390" height="868" fill="#1C2325" fill-opacity="0.85"/>
</g>
<defs>
<clipPath id="clip0_1749_1291">
<rect width="390" height="868" rx="20" fill="white"/>
</clipPath>
</defs>
</svg>
