<svg width="283" height="180" viewBox="0 0 283 180" fill="none" xmlns="http://www.w3.org/2000/svg">
<path d="M229.323 70.9038C233.342 69.1103 237.485 67.0211 241.64 64.6946C242.255 64.3639 242.905 64.0371 243.566 63.7259C257.117 69.7016 269.519 71.3628 281.483 68.8068L281.385 68.3361C269.632 70.8493 257.455 69.2464 244.154 63.4535C252.74 59.5397 264.964 57.1704 277.802 56.937L277.794 56.4585C264.695 56.6997 252.23 59.1546 243.562 63.1968C241.792 62.4109 240.236 61.6639 238.979 61.0531C237.991 60.5785 237.139 60.1661 236.478 59.8782C223.484 53.564 209.754 52.568 195.659 56.653L195.62 56.6686C184.373 53.6651 175.934 53.7819 170.044 54.8284C160.766 56.4779 155.984 60.6174 154.7 61.8974C154.868 59.2752 155.373 56.9409 156.19 54.949L156.342 54.5833C157.229 52.568 158.443 50.9107 160.042 49.5257C166.111 44.7132 168.792 40.7021 168.017 37.6092C167.216 34.4307 163.073 33.3453 162.084 33.1352V22.5687C162.084 11.1152 153.304 1.79365 141.955 1.0389C141.722 1.01945 141.481 1.01167 141.239 1H141.22C140.979 1.00778 140.741 1.01945 140.5 1.0389C129.156 1.78198 120.371 11.1035 120.371 22.5687V33.1352C119.383 33.3453 115.239 34.4307 114.438 37.6092C113.66 40.7021 116.34 44.7093 122.402 49.514C124.012 50.9107 125.226 52.568 126.113 54.5833C126.156 54.6844 126.199 54.7856 126.242 54.8906L126.265 54.949C127.074 56.9215 127.572 59.2168 127.751 61.804C125.386 59.532 113.08 49.4362 86.699 56.6258C72.6661 52.5758 58.9639 53.7118 46.0009 60.0105C45.3279 60.3023 44.4759 60.7147 43.4838 61.1932C42.2311 61.7962 40.6749 62.5471 38.9047 63.3329C30.2407 59.2907 17.7873 56.6997 4.68815 56.4624L4.68037 56.9409C17.5228 57.1743 29.731 59.6798 38.3173 63.5936C25.0158 69.3865 12.8503 70.8532 1.09726 68.34L1 68.8107C4.61035 69.581 8.2596 69.9662 11.9711 69.9662C20.5573 69.9662 29.447 68.0365 38.9047 63.862C39.5661 64.1733 40.2197 64.5001 40.8305 64.8308C44.9894 67.1573 49.1366 69.2464 53.1516 71.0438C48.9577 72.6934 39.1304 76.2882 28.2215 78.3073C20.7519 79.6845 14.0681 79.9491 8.33351 79.3616L8.28683 79.8401C10.0064 80.0191 11.8155 80.1047 13.7062 80.1047C18.1375 80.1047 23.0005 79.7546 28.2566 78.7858C41.4374 82.2639 52.6964 83.3688 61.6989 83.3688C77.004 83.3688 85.8276 80.167 86.5823 79.8752C87.3254 79.918 88.0607 79.9413 88.7726 79.9569L88.7337 80.0036C88.7104 80.2992 88.2669 87.5549 101.599 110.061C101.685 110.229 101.825 110.474 102.008 110.797C112.139 128.767 113.87 144.212 113.539 154.004L113.516 154.669C113.142 163.092 111.158 171.052 107.602 178.58L108.034 178.782C111.575 171.301 113.567 163.411 113.979 155.051C126.864 161.096 131.105 178.557 131.148 178.736L131.618 178.631C131.575 178.448 127.242 160.602 114.006 154.533L114.022 154.202C116.099 153.619 135.824 147.515 141.228 124.627C146.624 147.515 166.352 153.615 168.43 154.202L168.445 154.533C155.206 160.602 150.899 178.448 150.857 178.631L151.327 178.736C151.366 178.557 155.587 161.096 168.473 155.051C168.885 163.411 170.9 171.305 174.441 178.782L174.872 178.58C171.316 171.052 169.309 163.092 168.936 154.669L168.912 154.004C168.581 144.212 170.313 128.77 180.444 110.797C180.626 110.474 180.766 110.232 180.848 110.077C194.177 87.5549 193.745 80.307 193.722 80.0074V79.953C194.437 79.9374 195.122 79.9141 195.869 79.8713H195.873C196.659 80.1747 205.483 83.2326 220.76 83.2326C229.767 83.2326 241.014 82.12 254.183 78.6536C258.934 79.5328 263.898 80.1047 268.726 80.1047C270.57 80.1047 272.402 80.0191 274.192 79.8363L274.137 79.3577C257.249 81.0968 236.859 73.8839 229.315 70.8999L229.323 70.9038ZM236.279 60.3178C236.941 60.6018 237.789 61.0142 238.777 61.4889C239.94 62.053 241.376 62.7455 242.998 63.4691C242.457 63.7298 241.924 63.9982 241.411 64.2744C237.116 66.6826 232.836 68.8301 228.701 70.6626C228.487 70.5731 228.281 70.4914 228.09 70.4136C226.713 69.8494 225.374 69.2036 224.114 68.5033C213.528 62.6249 204.35 59.0884 196.519 56.9098C210.221 53.101 223.596 54.1553 236.279 60.3178ZM154.167 62.5043C154.132 63.1656 154.121 63.7803 154.128 64.5001C146.429 57.1782 142.613 49.444 141.796 47.6738C143.609 47.8528 151.039 48.9343 155.681 54.8945C154.809 57.0654 154.296 59.6253 154.167 62.5043ZM122.732 49.1328C116.835 44.4564 114.212 40.6165 114.936 37.7298C115.745 34.5085 120.628 33.5904 120.674 33.5826L120.881 33.5437V22.5687C120.881 11.1346 129.829 1.87924 141.232 1.50187H141.251C152.662 1.89481 161.594 11.1424 161.594 22.5687V33.5437L161.8 33.5826C161.847 33.5904 166.73 34.5085 167.539 37.7298C168.262 40.6165 165.64 44.4564 159.735 49.1405C158.069 50.58 156.821 52.2918 155.903 54.3654C150.635 47.8295 142.107 47.1836 141.449 47.1447H141.021C140.364 47.1836 131.84 47.8295 126.568 54.3654C125.658 52.2879 124.401 50.5761 122.729 49.1289L122.732 49.1328ZM126.794 54.8945C131.435 48.9343 138.866 47.8528 140.679 47.6738C139.862 49.444 136.046 57.1782 128.339 64.5079C128.393 60.7925 127.872 57.5595 126.794 54.8945ZM127.809 62.5315C127.848 63.329 127.852 64.1383 127.829 64.9825C124.444 68.126 120.737 70.8065 116.807 72.9501C107.116 65.2315 97.2927 59.8315 87.6016 56.8864C115.632 49.5257 127.261 61.9207 127.809 62.5315ZM140.761 98.491C139.586 99.6698 130.72 107.478 111.298 96.6508L111.135 96.5613C111.135 96.5613 111.096 96.538 111.077 96.5263L110.956 96.4602C109.816 95.8144 108.641 95.1024 107.451 94.3438C101.152 90.3133 95.2036 85.6019 89.2784 79.9646C89.6013 79.9685 89.9203 79.9724 90.2432 79.9724C99.8955 79.9724 108.808 77.8093 116.757 73.5298C130.595 84.6254 139.656 96.9621 140.761 98.491ZM41.0795 64.4067C40.566 64.1344 40.0408 63.862 39.4961 63.6014C41.1106 62.8777 42.5423 62.1852 43.7095 61.625C44.6937 61.1465 45.5457 60.738 46.2188 60.4462C58.8472 54.3071 72.1682 53.1088 85.8237 56.8748C85.7692 56.8903 85.7186 56.902 85.6642 56.9215C85.5864 56.9409 85.5163 56.9643 85.4385 56.9837C85.0339 57.1004 84.6293 57.2171 84.2208 57.3416C84.2052 57.3455 84.1936 57.3494 84.1741 57.3572C83.7073 57.5011 83.2404 57.6451 82.7658 57.7968C82.6763 57.824 82.579 57.8552 82.4818 57.8863C82.4156 57.9096 82.3417 57.9291 82.2756 57.9524C81.9215 58.0691 81.5597 58.1859 81.1979 58.3065C81.1396 58.3298 81.0773 58.3493 81.019 58.3687C80.5599 58.5204 80.093 58.6838 79.6301 58.8511C79.4083 58.9289 79.1827 59.0029 78.957 59.0923C78.5252 59.2441 78.0933 59.4075 77.6576 59.5709C77.1674 59.7576 76.6733 59.9443 76.1792 60.135C76.0003 60.205 75.8252 60.275 75.6462 60.3451C75.1911 60.5279 74.7359 60.7147 74.2768 60.9014C74.1523 60.9559 74.0239 61.0064 73.8916 61.0609C73.4948 61.2282 73.0902 61.3955 72.6895 61.5706C72.1798 61.7923 71.6624 62.0102 71.145 62.2436L71.1177 62.2592C70.7754 62.407 70.4369 62.5626 70.0907 62.7182C70.0829 62.7221 70.0712 62.726 70.0634 62.7338C69.7989 62.8505 69.5343 62.9672 69.2659 63.0917C69.227 63.1112 69.1959 63.1267 69.157 63.1462C68.6473 63.3757 68.1415 63.6169 67.6319 63.8543C67.0911 64.1149 66.5426 64.3756 65.9979 64.644C65.7256 64.7802 65.4493 64.9125 65.177 65.0486C64.1655 65.5583 63.1423 66.0757 62.1191 66.6126C61.5005 66.9355 60.878 67.2662 60.2556 67.6047C59.6331 67.9392 59.0106 68.2816 58.3804 68.6317C57.1199 69.332 55.7816 69.974 54.4004 70.542L53.7857 70.7909C49.6463 68.9546 45.3707 66.8071 41.0795 64.4028V64.4067ZM29.3809 78.5796C40.2936 76.4516 49.9536 72.8412 53.778 71.3123C64.9358 76.2415 75.5567 79.101 85.3802 79.8051C81.0617 81.2213 60.9753 86.6796 29.3809 78.5835V78.5796ZM86.5823 79.3966C76.615 78.8481 65.7878 76.047 54.3965 71.0633L54.5833 70.9855C55.9839 70.4136 57.3338 69.7678 58.6099 69.0597C59.3608 68.6434 60.1116 68.231 60.8547 67.8381C61.3527 67.5658 61.8468 67.3012 62.3409 67.0483C62.9594 66.7215 63.5741 66.4064 64.1811 66.0952C65.3988 65.4805 66.6087 64.8852 67.807 64.3172C68.0832 64.1811 68.3594 64.0527 68.6317 63.9282C68.9663 63.7687 69.3048 63.6169 69.6355 63.4613C70.2346 63.1851 70.8337 62.9128 71.4251 62.656C72.0203 62.3914 72.6078 62.1386 73.1991 61.8896C73.4948 61.7651 73.7905 61.6406 74.0823 61.52C74.7709 61.2321 75.4595 60.9559 76.1442 60.6874C76.4671 60.559 76.7822 60.4345 77.0974 60.3139C77.7121 60.0805 78.3268 59.8471 78.9337 59.6292C79.4628 59.4308 79.9919 59.2441 80.521 59.0651C81.0345 58.8822 81.5481 58.7111 82.0616 58.536C82.5946 58.3648 83.1198 58.1975 83.6489 58.0263C84.1508 57.8746 84.6526 57.719 85.1467 57.5751C85.174 57.5673 85.2051 57.5595 85.2323 57.5517C85.7303 57.4039 86.2244 57.2638 86.7185 57.1315C96.5497 59.991 106.517 65.3988 116.36 73.2069H116.364C116.364 73.2069 116.36 73.2108 116.36 73.2147C108.167 77.5798 98.9462 79.6884 88.9399 79.4861C88.1735 79.4706 87.3799 79.4433 86.5901 79.4005L86.5823 79.3966ZM114.053 153.693C114.341 143.827 112.528 128.428 102.448 110.563C102.265 110.248 102.132 110.003 102.039 109.836C90.8112 90.8657 89.4146 82.6763 89.2512 80.6027C95.1024 86.1388 100.973 90.7723 107.194 94.7523C108.349 95.4915 109.489 96.1801 110.602 96.8103L110.699 96.8726L110.781 96.9154C110.82 96.9348 110.859 96.9582 110.898 96.9815C110.944 97.0049 110.995 97.036 111.042 97.0632C111.042 97.0632 111.046 97.0671 111.049 97.0671C120.511 106.665 125.257 116.827 125.164 127.28C125.028 142.119 114.92 152.813 114.053 153.697H114.049L114.053 153.693ZM141.006 123.503C136.462 144.877 119.694 151.736 115.15 153.257C117.231 151.004 125.526 141.088 125.65 127.292C125.74 117.025 121.34 107.198 112.36 97.7752C130.362 107.272 139.146 100.658 140.924 99.0123C140.951 99.1602 140.983 99.308 141.006 99.4597V99.487L141.01 123.503H141.006ZM141.239 98.3043C140.539 97.3161 131.404 84.6721 117.243 73.2808C121.168 71.1177 124.872 68.4256 128.253 65.2743C136.723 57.3883 140.687 49.1833 141.243 47.9306C141.519 48.5531 142.652 50.7006 144.776 53.9725C146.896 57.2327 150.001 61.3294 154.237 65.2743C157.618 68.4256 161.318 71.1177 165.247 73.2808C151.082 84.6721 141.947 97.3161 141.243 98.3043H141.239ZM141.481 123.483V99.4792L141.488 99.452C141.512 99.308 141.543 99.1602 141.566 99.0123C143.356 100.666 152.207 107.338 170.367 97.6429C161.501 107.015 157.046 116.943 157.112 127.164C157.214 141.251 165.601 151.16 167.477 153.179C163.477 151.903 146.122 145.414 141.477 123.487L141.481 123.483ZM180.44 109.843C180.354 110.003 180.218 110.248 180.035 110.563C170.075 128.226 168.189 143.469 168.422 153.35C166.916 151.759 157.696 141.446 157.595 127.156C157.525 116.656 162.322 106.455 171.83 96.8415H171.826L171.706 96.9076C171.258 97.1605 170.815 97.4017 170.379 97.6312C170.729 97.2539 171.099 96.8726 171.468 96.4991L171.639 96.4291V96.6625H171.885L171.76 96.787L171.826 96.8337L171.885 96.7987C172.993 96.1723 174.133 95.4798 175.289 94.7406C181.615 90.6945 187.33 86.1855 193.231 80.5949C193.068 82.6763 191.667 90.8618 180.44 109.836V109.843ZM193.554 79.4822C183.544 79.6845 174.328 77.572 166.134 73.2108L165.847 73.4365C165.808 73.4715 165.765 73.4987 165.726 73.5337C173.674 77.8171 182.591 79.9763 192.239 79.9763C192.562 79.9763 192.885 79.9724 193.208 79.9685C187.225 85.6758 181.436 90.2432 175.032 94.3477C173.841 95.1063 172.663 95.8183 171.527 96.4641L171.406 96.5302C151.853 107.529 142.901 99.6737 141.722 98.4949C142.811 96.9854 151.872 84.6371 165.726 73.5337C165.679 73.5104 165.625 73.487 165.578 73.4559L165.695 73.2458L165.547 73.0591C165.59 73.0241 165.636 72.9891 165.683 72.954C163.726 71.8842 161.82 70.6859 159.987 69.3593C158.136 68.0248 156.362 66.5698 154.661 64.9864C154.638 64.1188 154.642 63.3407 154.677 62.5976C155.272 61.9557 160.038 57.0849 170.192 55.2952C175.888 54.2915 183.992 54.167 194.745 56.937C185.104 59.886 175.331 65.2704 165.683 72.9579C165.726 72.9813 165.773 73.0046 165.819 73.028L166.134 73.2069C175.927 65.4377 185.84 60.0494 195.636 57.1743C203.596 59.3063 212.991 62.8739 223.892 68.9313C225.172 69.6394 226.526 70.2891 227.919 70.8571C227.977 70.8804 228.039 70.9038 228.102 70.9349C216.71 75.9225 205.872 78.8559 195.908 79.4044C195.118 79.4472 194.325 79.4744 193.558 79.49L193.554 79.4822ZM196.986 79.8129C206.844 79.1165 217.52 76.1248 228.724 71.1761C233.089 72.9229 242.489 76.3815 253.078 78.4513C221.356 86.5784 201.187 81.1901 196.986 79.8129Z" fill="black"/>
<path d="M165.726 73.5337C165.765 73.4987 165.808 73.4715 165.847 73.4365L166.134 73.2108C174.328 77.572 183.544 79.6845 193.554 79.4822L193.558 79.49C194.325 79.4744 195.118 79.4472 195.908 79.4044C205.872 78.8559 216.71 75.9225 228.102 70.9349C228.039 70.9038 227.977 70.8804 227.919 70.8571C226.526 70.2891 225.172 69.6394 223.892 68.9313C212.991 62.8739 203.596 59.3063 195.636 57.1743C185.84 60.0494 175.927 65.4377 166.134 73.2069L165.819 73.028C165.773 73.0046 165.726 72.9813 165.683 72.9579C175.331 65.2704 185.104 59.886 194.745 56.937C183.992 54.167 175.888 54.2915 170.192 55.2952C160.038 57.0849 155.272 61.9557 154.677 62.5976C154.642 63.3407 154.638 64.1188 154.661 64.9864C156.362 66.5698 158.136 68.0248 159.987 69.3593C161.82 70.6859 163.726 71.8842 165.683 72.954C165.636 72.989 165.59 73.0241 165.547 73.0591L165.695 73.2458L165.578 73.4559C165.625 73.487 165.679 73.5104 165.726 73.5337ZM165.726 73.5337C173.674 77.8171 182.591 79.9763 192.239 79.9763C192.562 79.9763 192.885 79.9724 193.208 79.9685C187.225 85.6758 181.436 90.2432 175.032 94.3477C173.841 95.1063 172.663 95.8183 171.527 96.4641L171.406 96.5302C151.853 107.529 142.901 99.6737 141.722 98.4949C142.811 96.9854 151.872 84.6371 165.726 73.5337ZM229.323 70.9038C233.342 69.1103 237.485 67.0211 241.64 64.6946C242.255 64.3639 242.905 64.0371 243.566 63.7259C257.117 69.7016 269.519 71.3628 281.483 68.8068L281.385 68.3361C269.632 70.8493 257.455 69.2464 244.154 63.4535C252.74 59.5397 264.964 57.1704 277.802 56.937L277.794 56.4585C264.695 56.6997 252.23 59.1546 243.562 63.1968C241.792 62.4109 240.236 61.6639 238.979 61.0531C237.991 60.5785 237.139 60.1661 236.478 59.8782C223.484 53.564 209.754 52.568 195.659 56.653L195.62 56.6686C184.373 53.6651 175.934 53.7819 170.044 54.8284C160.766 56.4779 155.984 60.6174 154.7 61.8974C154.868 59.2752 155.373 56.9409 156.19 54.949L156.342 54.5833C157.229 52.568 158.443 50.9107 160.042 49.5257C166.111 44.7132 168.792 40.7021 168.017 37.6092C167.216 34.4307 163.073 33.3453 162.084 33.1352V22.5687C162.084 11.1152 153.304 1.79365 141.955 1.0389C141.722 1.01945 141.481 1.01167 141.239 1H141.22C140.979 1.00778 140.741 1.01945 140.5 1.0389C129.156 1.78198 120.371 11.1035 120.371 22.5687V33.1352C119.383 33.3453 115.239 34.4307 114.438 37.6092C113.66 40.7021 116.34 44.7093 122.402 49.514C124.012 50.9107 125.226 52.568 126.113 54.5833C126.156 54.6844 126.199 54.7856 126.242 54.8906L126.265 54.949C127.074 56.9215 127.572 59.2168 127.751 61.804C125.386 59.532 113.08 49.4362 86.699 56.6258C72.6661 52.5758 58.9639 53.7118 46.0009 60.0105C45.3279 60.3023 44.4759 60.7147 43.4838 61.1932C42.2311 61.7962 40.6749 62.5471 38.9047 63.3329C30.2407 59.2907 17.7873 56.6997 4.68815 56.4624L4.68037 56.9409C17.5228 57.1743 29.731 59.6798 38.3173 63.5936C25.0158 69.3865 12.8503 70.8532 1.09726 68.34L1 68.8107C4.61035 69.581 8.2596 69.9662 11.9711 69.9662C20.5573 69.9662 29.447 68.0365 38.9047 63.862C39.5661 64.1733 40.2197 64.5001 40.8305 64.8308C44.9894 67.1573 49.1366 69.2464 53.1516 71.0438C48.9577 72.6934 39.1304 76.2882 28.2215 78.3073C20.7519 79.6845 14.0681 79.9491 8.33351 79.3616L8.28683 79.8401C10.0064 80.0191 11.8155 80.1047 13.7062 80.1047C18.1375 80.1047 23.0005 79.7546 28.2566 78.7858C41.4374 82.2639 52.6964 83.3688 61.6989 83.3688C77.004 83.3688 85.8276 80.167 86.5823 79.8752C87.3254 79.918 88.0607 79.9413 88.7726 79.9569L88.7337 80.0036C88.7104 80.2992 88.2669 87.5549 101.599 110.061C101.685 110.229 101.825 110.474 102.008 110.797C112.139 128.767 113.87 144.212 113.539 154.004L113.516 154.669C113.142 163.092 111.158 171.052 107.602 178.58L108.034 178.782C111.575 171.301 113.567 163.411 113.979 155.051C126.864 161.096 131.105 178.557 131.148 178.736L131.618 178.631C131.575 178.448 127.241 160.602 114.006 154.533L114.022 154.202C116.099 153.619 135.824 147.515 141.228 124.627C146.624 147.515 166.352 153.615 168.43 154.202L168.445 154.533C155.206 160.602 150.899 178.448 150.857 178.631L151.327 178.736C151.366 178.557 155.587 161.096 168.473 155.051C168.885 163.411 170.9 171.305 174.441 178.782L174.872 178.58C171.316 171.052 169.309 163.092 168.936 154.669L168.912 154.004C168.581 144.212 170.313 128.77 180.444 110.797C180.626 110.474 180.766 110.232 180.848 110.077C194.177 87.5549 193.745 80.307 193.722 80.0074V79.953C194.437 79.9374 195.122 79.9141 195.869 79.8713H195.873C196.659 80.1747 205.483 83.2326 220.76 83.2326C229.767 83.2326 241.014 82.12 254.183 78.6536C258.934 79.5328 263.898 80.1047 268.726 80.1047C270.57 80.1047 272.402 80.0191 274.192 79.8363L274.137 79.3577C257.249 81.0968 236.859 73.8839 229.315 70.8999L229.323 70.9038ZM236.279 60.3178C236.941 60.6018 237.789 61.0142 238.777 61.4889C239.94 62.053 241.376 62.7455 242.998 63.4691C242.457 63.7298 241.924 63.9982 241.411 64.2744C237.116 66.6826 232.836 68.8302 228.701 70.6626C228.487 70.5731 228.281 70.4914 228.09 70.4136C226.713 69.8494 225.374 69.2036 224.114 68.5034C213.528 62.6249 204.35 59.0884 196.519 56.9098C210.221 53.101 223.596 54.1553 236.279 60.3178ZM154.167 62.5043C154.132 63.1656 154.121 63.7803 154.128 64.5001C146.429 57.1782 142.613 49.444 141.796 47.6738C143.609 47.8528 151.039 48.9343 155.681 54.8945C154.809 57.0654 154.296 59.6253 154.167 62.5043ZM122.732 49.1328C116.835 44.4564 114.212 40.6165 114.936 37.7298C115.745 34.5085 120.628 33.5904 120.674 33.5826L120.881 33.5437V22.5687C120.881 11.1346 129.829 1.87924 141.232 1.50187H141.251C152.662 1.89481 161.594 11.1424 161.594 22.5687V33.5437L161.8 33.5826C161.847 33.5904 166.73 34.5085 167.539 37.7298C168.262 40.6165 165.64 44.4564 159.735 49.1405C158.069 50.58 156.821 52.2918 155.903 54.3654C150.635 47.8295 142.107 47.1836 141.449 47.1447H141.022C140.364 47.1836 131.84 47.8295 126.568 54.3654C125.658 52.2879 124.401 50.5761 122.729 49.1289L122.732 49.1328ZM126.794 54.8945C131.435 48.9343 138.866 47.8528 140.679 47.6738C139.862 49.444 136.046 57.1782 128.339 64.5079C128.393 60.7925 127.872 57.5595 126.794 54.8945ZM127.809 62.5315C127.848 63.329 127.852 64.1383 127.829 64.9825C124.444 68.126 120.737 70.8065 116.807 72.9501C107.116 65.2315 97.2927 59.8315 87.6016 56.8864C115.632 49.5257 127.261 61.9207 127.809 62.5315ZM140.761 98.491C139.586 99.6698 130.72 107.478 111.298 96.6508L111.135 96.5613C111.135 96.5613 111.096 96.538 111.077 96.5263L110.956 96.4602C109.816 95.8144 108.641 95.1024 107.451 94.3438C101.152 90.3133 95.2036 85.6019 89.2784 79.9646C89.6013 79.9685 89.9203 79.9724 90.2432 79.9724C99.8955 79.9724 108.808 77.8093 116.757 73.5298C130.595 84.6254 139.656 96.9621 140.761 98.491ZM41.0795 64.4067C40.566 64.1344 40.0408 63.862 39.4961 63.6014C41.1106 62.8777 42.5423 62.1853 43.7095 61.625C44.6937 61.1465 45.5458 60.738 46.2188 60.4462C58.8472 54.3071 72.1682 53.1088 85.8237 56.8748C85.7692 56.8903 85.7186 56.902 85.6642 56.9215C85.5864 56.9409 85.5163 56.9643 85.4385 56.9837C85.0339 57.1004 84.6293 57.2171 84.2208 57.3416C84.2052 57.3455 84.1936 57.3494 84.1741 57.3572C83.7073 57.5011 83.2404 57.6451 82.7658 57.7968C82.6763 57.824 82.579 57.8552 82.4818 57.8863C82.4156 57.9096 82.3417 57.9291 82.2756 57.9524C81.9215 58.0691 81.5597 58.1859 81.1979 58.3065C81.1396 58.3298 81.0773 58.3493 81.019 58.3687C80.5599 58.5204 80.093 58.6838 79.6301 58.8511C79.4083 58.9289 79.1827 59.0029 78.957 59.0923C78.5252 59.2441 78.0933 59.4075 77.6576 59.5709C77.1674 59.7576 76.6733 59.9443 76.1792 60.135C76.0003 60.205 75.8252 60.275 75.6462 60.3451C75.1911 60.5279 74.7359 60.7147 74.2768 60.9014C74.1523 60.9559 74.0239 61.0064 73.8916 61.0609C73.4948 61.2282 73.0902 61.3955 72.6895 61.5706C72.1798 61.7923 71.6624 62.0102 71.145 62.2436L71.1177 62.2592C70.7754 62.407 70.4369 62.5626 70.0907 62.7182C70.0829 62.7221 70.0712 62.726 70.0634 62.7338C69.7989 62.8505 69.5343 62.9672 69.2659 63.0917C69.227 63.1112 69.1959 63.1267 69.1569 63.1462C68.6473 63.3757 68.1415 63.6169 67.6319 63.8543C67.0911 64.1149 66.5426 64.3756 65.9979 64.644C65.7256 64.7802 65.4493 64.9125 65.177 65.0486C64.1655 65.5583 63.1423 66.0757 62.1191 66.6126C61.5005 66.9355 60.878 67.2662 60.2556 67.6047C59.6331 67.9392 59.0106 68.2816 58.3804 68.6317C57.1199 69.332 55.7816 69.9739 54.4004 70.542L53.7857 70.7909C49.6463 68.9546 45.3707 66.8071 41.0795 64.4028V64.4067ZM29.3809 78.5796C40.2936 76.4516 49.9536 72.8412 53.778 71.3123C64.9358 76.2415 75.5567 79.101 85.3802 79.8051C81.0617 81.2213 60.9753 86.6796 29.3809 78.5835V78.5796ZM86.5823 79.3966C76.615 78.8481 65.7878 76.047 54.3965 71.0633L54.5833 70.9855C55.9839 70.4136 57.3338 69.7678 58.6099 69.0597C59.3608 68.6434 60.1116 68.231 60.8547 67.8381C61.3527 67.5658 61.8468 67.3012 62.3409 67.0483C62.9594 66.7215 63.5741 66.4064 64.1811 66.0952C65.3988 65.4805 66.6087 64.8852 67.807 64.3172C68.0832 64.1811 68.3594 64.0527 68.6317 63.9282C68.9663 63.7687 69.3048 63.6169 69.6355 63.4613C70.2346 63.1851 70.8337 62.9128 71.4251 62.656C72.0203 62.3914 72.6078 62.1386 73.1991 61.8896C73.4948 61.7651 73.7905 61.6406 74.0823 61.52C74.7709 61.2321 75.4595 60.9559 76.1442 60.6874C76.4671 60.559 76.7822 60.4345 77.0974 60.3139C77.7121 60.0805 78.3268 59.8471 78.9337 59.6292C79.4628 59.4308 79.9919 59.2441 80.521 59.0651C81.0345 58.8822 81.5481 58.7111 82.0616 58.536C82.5946 58.3648 83.1198 58.1975 83.6489 58.0263C84.1508 57.8746 84.6526 57.719 85.1467 57.5751C85.174 57.5673 85.2051 57.5595 85.2323 57.5517C85.7303 57.4039 86.2244 57.2638 86.7185 57.1315C96.5497 59.991 106.517 65.3988 116.36 73.2069H116.364C116.364 73.2069 116.36 73.2108 116.36 73.2147C108.167 77.5798 98.9462 79.6884 88.9399 79.4861C88.1735 79.4706 87.3799 79.4433 86.5901 79.4005L86.5823 79.3966ZM114.053 153.693C114.341 143.827 112.528 128.428 102.448 110.563C102.265 110.248 102.132 110.003 102.039 109.836C90.8112 90.8657 89.4146 82.6763 89.2512 80.6027C95.1024 86.1388 100.973 90.7723 107.194 94.7523C108.349 95.4915 109.489 96.1801 110.602 96.8103L110.699 96.8726L110.781 96.9154C110.82 96.9348 110.859 96.9582 110.898 96.9815C110.944 97.0049 110.995 97.036 111.042 97.0632C111.042 97.0632 111.046 97.0671 111.049 97.0671C120.511 106.665 125.257 116.827 125.164 127.28C125.028 142.119 114.92 152.813 114.053 153.697H114.049L114.053 153.693ZM141.006 123.503C136.462 144.877 119.694 151.736 115.15 153.257C117.231 151.004 125.526 141.088 125.65 127.292C125.74 117.025 121.34 107.198 112.36 97.7752C130.362 107.272 139.146 100.658 140.924 99.0123C140.951 99.1602 140.983 99.308 141.006 99.4597V99.487L141.01 123.503H141.006ZM141.239 98.3043C140.539 97.3161 131.404 84.6721 117.243 73.2808C121.168 71.1177 124.872 68.4256 128.253 65.2743C136.723 57.3883 140.687 49.1833 141.243 47.9306C141.519 48.5531 142.652 50.7006 144.776 53.9725C146.896 57.2327 150.001 61.3294 154.237 65.2743C157.618 68.4256 161.318 71.1177 165.247 73.2808C151.082 84.6721 141.947 97.3161 141.243 98.3043H141.239ZM141.481 123.483V99.4792L141.488 99.452C141.512 99.308 141.543 99.1602 141.566 99.0123C143.356 100.666 152.207 107.338 170.367 97.6429C161.501 107.015 157.046 116.943 157.112 127.164C157.214 141.251 165.601 151.16 167.477 153.179C163.477 151.903 146.122 145.414 141.477 123.487L141.481 123.483ZM180.44 109.843C180.354 110.003 180.218 110.248 180.035 110.563C170.075 128.226 168.189 143.469 168.422 153.35C166.916 151.759 157.696 141.446 157.595 127.156C157.525 116.656 162.322 106.455 171.83 96.8415H171.826L171.706 96.9076C171.258 97.1605 170.815 97.4017 170.379 97.6312C170.729 97.2538 171.099 96.8726 171.468 96.4991L171.639 96.4291V96.6625H171.885L171.76 96.787L171.826 96.8337L171.885 96.7987C172.993 96.1723 174.133 95.4798 175.289 94.7406C181.615 90.6945 187.33 86.1855 193.231 80.5949C193.068 82.6763 191.667 90.8618 180.44 109.836V109.843ZM196.986 79.8129C206.844 79.1165 217.52 76.1248 228.724 71.1761C233.089 72.9229 242.489 76.3815 253.078 78.4513C221.356 86.5784 201.187 81.1901 196.986 79.8129Z" stroke="white" stroke-width="1.71056" stroke-miterlimit="10"/>
</svg>
