<svg width="65" height="65" viewBox="0 0 65 65" fill="none" xmlns="http://www.w3.org/2000/svg">
<g id="fluent:dentist-28-filled">
<path id="Vector" d="M29.0691 10.8811C25.7799 8.23651 22.1342 7.67651 18.8656 8.31422C15.6519 8.94279 12.8085 10.7211 10.9182 12.7691L10.9136 12.7736C8.79477 15.0845 6.71706 17.9736 6.55706 22.2479C6.45877 24.3759 6.74906 27.4548 8.41306 29.7496L8.41763 29.7542C10.2028 32.1999 11.2405 33.6537 11.7548 35.0662C12.3262 36.6319 12.3376 38.1954 12.3559 40.4011L12.3605 40.8696C12.3742 43.1416 12.8542 46.2571 14.0062 49.0891C15.1491 51.8868 17.0851 54.7348 20.2188 55.9028L20.2988 55.9325L20.3811 55.9554C22.2256 56.4399 23.9285 56.2617 25.2108 55.0639C26.3422 54.0011 26.8153 52.4194 27.0805 50.9908C27.3251 49.6765 27.4462 48.1496 27.5651 46.6479L27.6108 46.0765C27.7525 44.3439 27.9148 42.6136 28.2553 40.9816C29.2153 36.4742 30.5548 35.6628 31.1948 35.4685C32.7422 35.0708 33.7136 35.2742 34.3719 35.6491C35.0713 36.0491 35.6862 36.7965 36.1959 37.9645C37.2473 40.3668 37.5491 43.7611 37.8073 46.8308C38.0633 49.8845 38.7079 52.6434 39.9285 54.4057C40.5593 55.3199 41.4531 56.1154 42.6576 56.3736C43.8736 56.6365 45.0576 56.2776 46.1091 55.6034C49.9948 53.1211 52.2439 47.9782 52.8565 41.1485C53.1491 37.8936 53.4851 36.3942 53.9902 35.1714C54.2485 34.5474 54.5685 33.9554 55.0119 33.1919L55.4371 32.4628C55.7967 31.8624 56.2066 31.1538 56.6668 30.3371C57.5353 28.7896 58.9388 25.9942 59.0988 22.7256C59.2656 19.3336 58.0816 15.5828 54.0816 12.3256C50.2416 9.20565 46.6691 8.07422 43.4828 8.24336C40.3262 8.41022 37.8028 9.84794 35.9993 11.3976L35.9513 11.4365L35.9056 11.4822C34.1548 13.2216 33.3319 13.5439 32.7902 13.5211C32.1776 13.4959 31.1971 13.0182 29.2153 11.0114L29.1468 10.9428L29.0691 10.8811ZM43.1719 16.7439C44.8908 16.7439 46.6325 17.2582 48.0108 18.4856C49.4028 19.7222 50.2622 21.5394 50.4793 23.8296C50.5004 24.0539 50.477 24.28 50.4106 24.4952C50.3442 24.7104 50.2361 24.9104 50.0924 25.0838C49.9487 25.2573 49.7723 25.4007 49.5731 25.5059C49.374 25.6111 49.1561 25.6761 48.9319 25.6971C48.7077 25.7181 48.4815 25.6947 48.2663 25.6283C48.0511 25.5619 47.8511 25.4538 47.6777 25.3101C47.5043 25.1664 47.3609 24.99 47.2557 24.7909C47.1505 24.5918 47.0855 24.3739 47.0645 24.1496C46.9159 22.5542 46.3582 21.6034 45.7319 21.0479C45.0942 20.4811 44.2188 20.1725 43.1719 20.1725C42.7173 20.1725 42.2812 19.9919 41.9597 19.6704C41.6382 19.3489 41.4576 18.9129 41.4576 18.4582C41.4576 18.0036 41.6382 17.5675 41.9597 17.246C42.2812 16.9245 42.7173 16.7439 43.1719 16.7439Z" fill="white"/>
</g>
</svg>
