<svg width="24" height="24" viewBox="0 0 24 24" fill="none" xmlns="http://www.w3.org/2000/svg">
<g id="ep:video-play">
<path id="Vector" d="M12 1.5C14.7848 1.5 17.4555 2.60625 19.4246 4.57538C21.3938 6.54451 22.5 9.21523 22.5 12C22.5 14.7848 21.3938 17.4555 19.4246 19.4246C17.4555 21.3938 14.7848 22.5 12 22.5C9.21523 22.5 6.54451 21.3938 4.57538 19.4246C2.60625 17.4555 1.5 14.7848 1.5 12C1.5 9.21523 2.60625 6.54451 4.57538 4.57538C6.54451 2.60625 9.21523 1.5 12 1.5ZM12 21C14.3869 21 16.6761 20.0518 18.364 18.364C20.0518 16.6761 21 14.3869 21 12C21 9.61305 20.0518 7.32387 18.364 5.63604C16.6761 3.94821 14.3869 3 12 3C9.61305 3 7.32387 3.94821 5.63604 5.63604C3.94821 7.32387 3 9.61305 3 12C3 14.3869 3.94821 16.6761 5.63604 18.364C7.32387 20.0518 9.61305 21 12 21ZM10.875 15.1965L15.6705 12L10.875 8.8035V15.1965ZM11.124 7.1655L16.971 11.064C17.1251 11.1667 17.2514 11.3059 17.3388 11.4692C17.4262 11.6325 17.4719 11.8148 17.4719 12C17.4719 12.1852 17.4262 12.3675 17.3388 12.5308C17.2514 12.6941 17.1251 12.8333 16.971 12.936L11.124 16.8345C10.9546 16.9474 10.7577 17.0123 10.5543 17.0221C10.3509 17.0319 10.1487 16.9864 9.96918 16.8903C9.78965 16.7942 9.63957 16.6512 9.53493 16.4766C9.43029 16.3019 9.37501 16.1021 9.375 15.8985V8.1C9.37501 7.89639 9.43029 7.69659 9.53493 7.52193C9.63957 7.34726 9.78965 7.20426 9.96918 7.10819C10.1487 7.01212 10.3509 6.96656 10.5543 6.97639C10.7577 6.98622 10.9546 7.05106 11.124 7.164V7.1655Z" fill="white"/>
</g>
</svg>
