<svg width="25" height="24" viewBox="0 0 25 24" fill="none" xmlns="http://www.w3.org/2000/svg">
<g id="visibility_off_FILL0_wght400_GRAD0_opsz24 (2) 1">
<path id="Vector" d="M16.5292 13.3L15.0792 11.85C15.2292 11.0667 15.0042 10.3334 14.4042 9.65005C13.8042 8.96672 13.0292 8.70005 12.0792 8.85005L10.6292 7.40005C10.9125 7.26672 11.2 7.16672 11.4917 7.10005C11.7834 7.03338 12.0959 7.00005 12.4292 7.00005C13.6792 7.00005 14.7417 7.43755 15.6167 8.31255C16.4917 9.18755 16.9292 10.25 16.9292 11.5C16.9292 11.8334 16.8959 12.1459 16.8292 12.4375C16.7625 12.7292 16.6625 13.0167 16.5292 13.3ZM19.7292 16.4501L18.2792 15.05C18.9125 14.5667 19.475 14.0375 19.9667 13.4626C20.4584 12.8875 20.8792 12.2334 21.2292 11.5C20.3959 9.81672 19.2 8.47922 17.6417 7.48755C16.0834 6.49588 14.3459 6.00005 12.4292 6.00005C11.9459 6.00005 11.4709 6.03338 11.0042 6.10005C10.5375 6.16672 10.0792 6.26672 9.6292 6.40005L8.0792 4.85005C8.76253 4.56672 9.46253 4.35422 10.1792 4.21255C10.8959 4.07088 11.6459 4.00005 12.4292 4.00005C14.9459 4.00005 17.1875 4.69588 19.1542 6.08755C21.1209 7.47922 22.5459 9.28338 23.4292 11.5C23.0459 12.4834 22.5417 13.3959 21.9167 14.2375C21.2917 15.0792 20.5625 15.8167 19.7292 16.4501ZM20.2292 22.6L16.0292 18.4501C15.4459 18.6334 14.8584 18.7709 14.2667 18.8626C13.675 18.9542 13.0625 19 12.4292 19C9.91253 19 7.67087 18.3042 5.7042 16.9125C3.73753 15.5209 2.31253 13.7167 1.4292 11.5C1.7792 10.6167 2.22087 9.79588 2.7542 9.03755C3.28753 8.27922 3.89587 7.60005 4.5792 7.00005L1.8292 4.20005L3.2292 2.80005L21.6292 21.2001L20.2292 22.6ZM5.9792 8.40005C5.49587 8.83338 5.0542 9.30838 4.6542 9.82505C4.2542 10.3417 3.91253 10.9 3.6292 11.5C4.46253 13.1834 5.65837 14.5209 7.2167 15.5126C8.77503 16.5042 10.5125 17.0001 12.4292 17.0001C12.7625 17.0001 13.0875 16.9792 13.4042 16.9376C13.7209 16.8959 14.0459 16.85 14.3792 16.8L13.4792 15.85C13.2959 15.9001 13.1209 15.9375 12.9542 15.9626C12.7875 15.9875 12.6125 16 12.4292 16C11.1792 16 10.1167 15.5625 9.2417 14.6875C8.3667 13.8125 7.9292 12.75 7.9292 11.5C7.9292 11.3167 7.9417 11.1417 7.9667 10.975C7.9917 10.8084 8.0292 10.6334 8.0792 10.45L5.9792 8.40005Z" fill="#0A1920"/>
</g>
</svg>
